<?xml version="1.0" encoding="UTF-8" standalone="no"?>
<!DOCTYPE svg PUBLIC "-//W3C//DTD SVG 1.1//EN" "http://www.w3.org/Graphics/SVG/1.1/DTD/svg11.dtd">
<svg width="100%" height="100%" viewBox="0 0 300 300" version="1.1" xmlns="http://www.w3.org/2000/svg"
     xmlns:xlink="http://www.w3.org/1999/xlink" xml:space="preserve" xmlns:serif="http://www.serif.com/"
     style="fill-rule:evenodd;clip-rule:evenodd;stroke-linecap:round;stroke-linejoin:round;stroke-miterlimit:1.5;">
    <g id="grass">
        <path d="M-5.038,171.875L302.367,171.875C305.806,168.714 308.506,163.75 308.867,159.695L303.481,149.865C296.796,139.227 286.775,150.249 278.668,151.345C272.815,152.137 267.32,148.488 261.422,148.862C255.135,149.261 250.172,153.529 244.074,154.74C239.432,155.661 235.236,152.593 230.679,152.692C226.423,152.784 222.852,155.812 218.691,156.443C215.201,156.971 212.429,152.077 208.672,151.902C205.376,151.748 203.406,155.223 200.27,154.995C197.488,154.793 196.531,150.98 193.582,150.519C189.673,149.91 187.232,153.531 183.563,153.17C180.368,152.856 177.065,150.926 173.973,150.044C169.185,148.678 163.583,148.065 158.622,147.881C151.458,147.616 144.614,149.629 137.607,150.676C131.147,151.641 124.846,151.526 118.364,152.766C114.439,153.517 111.068,151.852 107.186,153.672C105.416,154.502 103.534,156.595 101.594,156.687C99.036,156.81 96.857,154.894 94.179,155.199C93.035,155.329 91.89,155.648 90.826,156.082C90.296,156.298 89.648,157.346 89.309,156.886C86.154,152.595 82.29,151.06 76.836,152.109C76.012,152.268 73.165,153.828 72.349,153.671C69.27,153.082 67.96,149.683 64.989,148.857C61.536,147.898 58.397,150.145 55.923,152.217C55.319,152.723 53.002,154.573 52.126,153.905C50.606,152.747 50.513,150.089 48.763,148.916C45.95,147.031 41.438,148.501 38.867,150.022C38.562,150.202 36.178,152.291 35.969,152.264C30.889,151.602 27.495,145.976 21.969,145.634C19.552,145.484 16.774,146.186 14.699,147.48C14.145,147.825 12.455,149.75 11.914,149.807C11.78,149.822 9.845,147.226 9.321,146.841C6.763,144.959 1.862,142.69 -1.31,144.227C-4.051,145.555 -4.738,149.234 -5.157,151.86C-6.101,157.782 -6.693,163.392 -5.502,169.322C-5.346,170.098 -5.217,170.982 -5.038,171.875Z"
              style="fill:rgb(83,135,57);stroke:black;stroke-width:2px;" />
        <g transform="matrix(1,0,0,1,0,1)">
            <rect x="-65.503" y="170.875" width="469.374" height="159.724"
                  style="fill:rgb(109,166,86);stroke:black;stroke-width:2px;" />
        </g>
    </g>
    <g id="pink_backwards" transform="matrix(1,0,0,1,135.576,2.03229)">
        <g transform="matrix(0.991973,0.12645,-0.12645,0.991973,21.3632,-14.6445)">
            <path d="M114.355,178.53C113.888,184.323 103.226,194.677 114.355,194.276" style="fill:rgb(240,225,196);" />
            <path
                  d="M113.398,178.453C113.312,179.516 112.836,180.74 112.237,182.025C111.251,184.14 109.923,186.392 109.118,188.362C108.317,190.321 108.085,192.059 108.755,193.265C109.423,194.469 111.058,195.355 114.389,195.235C114.919,195.216 115.333,194.771 115.314,194.241C115.295,193.712 114.85,193.297 114.32,193.317C113.075,193.361 112.134,193.27 111.442,193.041C110.949,192.877 110.612,192.654 110.433,192.333C110.246,191.996 110.233,191.583 110.293,191.121C110.373,190.504 110.597,189.819 110.895,189.089C111.689,187.144 113.004,184.924 113.977,182.836C114.685,181.319 115.211,179.862 115.312,178.607C115.354,178.079 114.96,177.616 114.432,177.573C113.904,177.531 113.441,177.925 113.398,178.453Z" />
        </g>
        <path d="M127.555,145.104C110.115,161.295 95.037,232.957 140.942,217.849C140.942,217.849 140.958,218.428 137.047,219.743C137.387,222.904 137.804,225.492 137.955,228.671C144.858,234.063 162.263,247.657 174.068,225.803C174.118,219.114 172.76,163.608 171.96,156.936L127.555,145.104Z"
              style="fill:rgb(240,225,196);" />
        <path
              d="M136.126,220.15C136.457,223.155 136.85,225.661 136.996,228.717C137.009,228.996 137.144,229.256 137.364,229.428C140.321,231.738 145.175,235.513 150.696,237.476C154.501,238.829 158.616,239.324 162.666,237.991C166.961,236.578 171.217,233.101 174.913,226.259C174.987,226.121 175.027,225.967 175.028,225.81C175.078,219.109 173.715,163.505 172.913,156.822C172.866,156.432 172.586,156.109 172.207,156.008L127.802,144.176C127.483,144.091 127.143,144.176 126.901,144.4C122.633,148.363 118.482,155.57 115.317,164.044C110.6,176.677 108.065,192.115 110.436,203.626C111.796,210.23 114.771,215.557 119.765,218.469C123.785,220.813 129.151,221.61 136.126,220.15ZM140.983,218.73C141.165,218.382 141.892,217.039 141.902,217.836C141.902,217.843 141.904,217.883 141.897,217.956C141.891,218.005 141.952,218.37 141.293,218.89C140.932,219.175 140.091,219.681 138.086,220.399C138.393,223.102 138.737,225.437 138.891,228.184C141.755,230.419 146.246,233.856 151.339,235.667C154.749,236.88 158.436,237.362 162.066,236.167C165.957,234.887 169.75,231.69 173.109,225.556C173.127,218.106 171.868,166.56 171.072,157.693L127.827,146.17L127.827,146.17C119.383,154.423 111.659,175.704 111.454,193.225C111.332,203.661 113.835,212.789 120.732,216.81C125.322,219.487 131.809,219.844 140.642,216.937C140.411,217.013 140.226,217.171 140.111,217.369L140.146,217.347C140.146,217.347 140.02,217.587 140.01,217.623C140.001,217.66 139.995,217.691 139.992,217.716L139.99,217.728L139.987,217.751L139.985,217.779L139.984,217.804C139.98,217.869 139.984,217.935 139.995,218.001C140.024,218.186 140.105,218.351 140.222,218.484C140.506,218.77 140.942,218.809 140.942,218.809L140.983,218.73Z" />
        <g>
            <path d="M150.559,196.313C152.316,198.603 154.436,200.673 156.832,202.283C158.608,203.476 160.749,204.073 162.831,204.562C179.57,208.487 187.01,189.208 188.697,176.018C191.719,152.4 179.159,124.554 156.832,123.664C152.147,123.478 130.458,111.712 123.737,113.293C120.165,114.133 120.565,117.827 120.565,117.827C120.565,117.827 115.023,116.413 113.128,117.827C110.378,119.878 113.128,123.664 113.128,123.664C113.128,123.664 106.109,121.238 106.489,126.571C108.399,153.416 142.668,155.843 144.13,158.636C145.769,161.768 144.13,170.669 144.13,170.669C144.13,170.669 138.728,174.191 138.631,175.963C138.505,178.25 138.31,180.068 139.612,182.128C140.378,183.341 143.779,180.535 144.13,180.435C147.286,179.539 149.897,179.542 151.703,182.457C153.821,185.875 153.372,189.292 151.839,192.957C150.319,196.592 145.713,197.883 142.553,195.654C144.575,197.151 147.278,197.303 150.559,196.313Z"
                  style="fill:rgb(207,178,59);" />
            <path
                  d="M143.305,159.133C143.724,159.972 143.863,161.254 143.893,162.637C143.957,165.582 143.444,168.964 143.254,170.1C142.461,170.642 140.495,172.03 139.178,173.364C138.278,174.276 137.71,175.222 137.672,175.91C137.535,178.411 137.377,180.389 138.8,182.641C139.242,183.341 140.095,183.572 141.154,183.229C142.308,182.857 144.261,181.49 144.483,181.333C147.137,180.592 149.363,180.503 150.887,182.962C152.828,186.095 152.359,189.228 150.954,192.587C149.669,195.659 145.777,196.754 143.106,194.87C142.676,194.566 142.083,194.665 141.775,195.092C141.467,195.518 141.559,196.113 141.982,196.426C144.089,197.985 146.856,198.294 150.201,197.412C151.939,199.579 153.996,201.533 156.297,203.08C158.167,204.337 160.417,204.982 162.612,205.496C171.428,207.564 177.81,203.554 182.196,197.257C186.446,191.154 188.788,182.872 189.65,176.14C191.495,161.718 187.616,145.751 179.322,135.086C173.712,127.872 166.092,123.073 156.87,122.705C156.087,122.674 154.797,122.274 153.164,121.681C149.063,120.192 142.979,117.452 137.279,115.308C133.963,114.061 130.774,113.015 128.163,112.514C126.291,112.155 124.694,112.081 123.518,112.358C120.634,113.037 119.853,115.225 119.656,116.649C118.602,116.446 116.988,116.2 115.541,116.244C114.341,116.28 113.252,116.536 112.554,117.057C111.118,118.128 110.816,119.556 110.988,120.891C111.05,121.373 111.18,121.841 111.336,122.266C110.802,122.188 110.215,122.138 109.632,122.159C108.313,122.205 107.043,122.622 106.269,123.64C105.756,124.315 105.434,125.273 105.531,126.639C106.904,145.92 124.452,153.017 135.428,156.468C138.161,157.327 140.468,157.958 141.97,158.505C142.568,158.724 143.219,159.084 143.305,159.133ZM151.198,195.598C151.832,194.969 152.357,194.208 152.725,193.328C154.386,189.357 154.813,185.655 152.519,181.951C150.449,178.609 147.488,178.484 143.868,179.512C143.783,179.536 143.598,179.615 143.357,179.772C142.899,180.071 141.923,180.792 141.023,181.216C140.805,181.319 140.481,181.407 140.321,181.448C139.257,179.647 139.479,178.028 139.59,176.015C139.597,175.887 139.692,175.754 139.796,175.596C139.984,175.315 140.245,175.016 140.545,174.712C142.105,173.131 144.654,171.473 144.654,171.473C144.875,171.33 145.026,171.102 145.074,170.843C145.074,170.843 145.895,166.376 145.812,162.595C145.774,160.842 145.525,159.232 144.98,158.191C144.788,157.823 144.265,157.376 143.363,156.99C141.909,156.368 139.253,155.658 136.004,154.636C125.586,151.361 108.749,144.804 107.446,126.503C107.392,125.735 107.509,125.181 107.798,124.802C108.226,124.238 108.969,124.103 109.7,124.077C111.236,124.023 112.814,124.572 112.814,124.572C113.21,124.709 113.65,124.573 113.899,124.236C114.149,123.899 114.151,123.44 113.905,123.1C113.905,123.1 113.315,122.285 113.02,121.251C112.774,120.39 112.718,119.33 113.702,118.596C114.32,118.135 115.426,118.12 116.516,118.175C118.427,118.272 120.328,118.757 120.328,118.757C120.633,118.835 120.957,118.758 121.194,118.552C121.432,118.346 121.554,118.036 121.52,117.723C121.52,117.723 121.206,114.874 123.957,114.227C124.931,113.998 126.251,114.102 127.801,114.399C130.323,114.883 133.4,115.901 136.603,117.105C142.31,119.252 148.402,121.995 152.508,123.486C154.392,124.17 155.891,124.588 156.794,124.624C165.434,124.968 172.55,129.506 177.806,136.265C185.812,146.558 189.526,161.977 187.745,175.896C186.919,182.354 184.697,190.306 180.621,196.16C176.68,201.818 170.972,205.485 163.05,203.627C161.08,203.165 159.048,202.615 157.368,201.486C155.058,199.934 153.015,197.937 151.32,195.729C151.283,195.681 151.243,195.637 151.198,195.598Z" />
            <g transform="matrix(1,0,0,1,-135.576,-2.03229)">
                <path
                      d="M255.077,120.041C256.004,122.572 257.24,124.384 259.404,125.9C259.838,126.204 260.437,126.099 260.741,125.665C261.045,125.231 260.939,124.632 260.505,124.328C258.684,123.051 257.661,121.512 256.88,119.38C256.698,118.883 256.146,118.627 255.648,118.809C255.151,118.991 254.895,119.543 255.077,120.041Z" />
            </g>
        </g>
        <g transform="matrix(1,0,0,1,-135.576,-2.03229)">
            <path
                  d="M247.871,126.174C249.02,128.182 250.218,129.601 251.869,130.742C252.305,131.043 252.904,130.934 253.205,130.498C253.506,130.063 253.397,129.464 252.961,129.163C251.541,128.181 250.525,126.947 249.537,125.22C249.274,124.76 248.687,124.6 248.227,124.863C247.767,125.127 247.607,125.714 247.871,126.174Z" />
        </g>
        <g transform="matrix(1,0,0,1,-3.44195,-0.960347)">
            <path
                  d="M125.703,201.898C123.679,203.264 120.918,203.329 118.703,202.764C117.303,202.406 116.108,201.81 115.523,201.062C115.197,200.645 114.593,200.572 114.176,200.899C113.758,201.225 113.685,201.829 114.012,202.246C114.797,203.249 116.348,204.145 118.229,204.624C120.936,205.315 124.302,205.16 126.777,203.489C127.216,203.192 127.332,202.595 127.036,202.156C126.739,201.717 126.142,201.601 125.703,201.898Z" />
        </g>
        <path d="M127.056,166.564C121.551,164.597 118.044,167.232 121.076,170.202C123.267,172.347 131.397,173.795 131.987,173.158C134.222,170.747 128.86,167.209 127.056,166.564Z"
              style="fill:rgb(207,178,59);" />
        <path
              d="M127.379,165.66C125.184,164.876 123.273,164.777 121.886,165.094C120.783,165.345 119.977,165.866 119.51,166.506C118.694,167.625 118.724,169.242 120.405,170.888C121.182,171.649 122.619,172.359 124.255,172.911C126.561,173.69 129.258,174.189 130.792,174.26C131.353,174.286 131.789,174.249 132.053,174.177C132.362,174.094 132.565,173.947 132.691,173.811C133.931,172.473 133.638,170.876 132.497,169.395C131.147,167.644 128.563,166.083 127.379,165.66L127.379,165.66ZM131.421,172.326C131.147,172.329 130.491,172.327 129.904,172.253C128.326,172.056 126.154,171.574 124.35,170.909C123.25,170.503 122.288,170.045 121.748,169.516C121.144,168.925 120.835,168.4 120.931,167.925C121.016,167.504 121.434,167.235 121.996,167.053C123.122,166.687 124.784,166.772 126.733,167.468L126.733,167.468C127.714,167.819 129.857,169.115 130.976,170.567C131.433,171.16 131.762,171.776 131.421,172.326Z" />
        <g transform="matrix(0.996,-0.0893582,0.0893582,0.996,-15.5352,11.6923)">
            <path d="M121.584,175.209C117.842,174.146 116.152,177.494 118.649,180.423C120.16,182.196 125.774,183.777 127.731,181.238C130.795,177.263 122.106,174.231 121.584,175.209Z"
                  style="fill:white;" />
            <path
                  d="M121.421,174.179C119.21,173.7 117.64,174.553 116.932,175.863C116.205,177.209 116.348,179.204 117.918,181.046C118.944,182.249 121.619,183.43 124.09,183.518C125.878,183.581 127.531,183.071 128.492,181.824C129.215,180.885 129.423,179.975 129.319,179.136C129.219,178.325 128.809,177.562 128.187,176.89C127.127,175.746 125.424,174.862 124.011,174.414C123.068,174.114 122.239,174.018 121.763,174.091C121.637,174.111 121.523,174.141 121.421,174.179ZM122.132,175.997C122.346,176.02 122.958,176.094 123.43,176.244C124.558,176.602 125.933,177.282 126.779,178.195C127.165,178.612 127.446,179.072 127.422,179.589C127.407,179.93 127.257,180.281 126.971,180.652C126.366,181.437 125.283,181.639 124.158,181.599C122.26,181.532 120.167,180.724 119.379,179.8C118.451,178.712 118.192,177.571 118.621,176.776C119.026,176.026 120.012,175.761 121.322,176.132C121.606,176.213 121.902,176.157 122.132,175.997Z" />
        </g>
        <g transform="matrix(1,0,0,1,7.25665,-4.15174)">
            <circle cx="112.954" cy="182.309" r="2.606" />
        </g>
        <path d="M121.053,273.913C120.21,280.372 120.583,286.482 120.436,292.963C120.336,297.404 120.153,299.315 120.28,303.755M192.154,275.003C192.422,281.213 193.661,287.506 194.525,293.641C195.307,299.192 196.052,298.245 197.086,303.755M174.993,225.15C185.728,226.244 196.617,232.915 201.9,242.247C211.639,259.447 214.239,277.946 214.668,297.485C214.802,303.556 213.91,297.73 214.668,303.755C214.668,303.755 212.556,316.514 101.813,302.322C101.988,294.822 103.322,269.001 103.934,264.056C106.235,245.477 124.491,237.688 137.67,228.419L137.895,228.673C140.748,232.806 145.829,234.489 150.596,234.889C158.603,235.561 168.993,232.972 173.938,226.099L174.993,225.15Z"
              style="fill:rgb(224,129,138);" />
        <path
              d="M137.654,229.257L137.67,229.379L136.952,229.055C136.864,228.957 136.797,228.84 136.755,228.709C136.629,228.31 136.776,227.875 137.118,227.634C130.508,232.283 122.627,236.564 116.107,242.009C109.424,247.591 104.164,254.385 102.982,263.938C102.368,268.896 101.029,294.781 100.853,302.3C100.841,302.791 101.203,303.212 101.691,303.275C168.335,311.815 195.757,310.597 207.031,308.278C210.977,307.466 213.031,306.5 214.107,305.759C215.591,304.738 215.615,303.912 215.615,303.912C215.63,303.82 215.632,303.727 215.621,303.635C215.445,302.236 215.365,301.422 215.335,301.072C215.402,300.965 215.47,300.813 215.52,300.589C215.598,300.242 215.671,299.431 215.628,297.464C215.195,277.763 212.554,259.116 202.735,241.774C197.306,232.184 186.122,225.319 175.09,224.195C174.821,224.168 174.552,224.255 174.351,224.436L173.296,225.385C173.245,225.431 173.199,225.482 173.159,225.538C168.401,232.151 158.38,234.579 150.676,233.932C146.185,233.555 141.373,232.022 138.685,228.127C138.663,228.096 138.639,228.065 138.614,228.037C138.412,227.809 138.392,227.786 138.39,227.783C137.375,226.636 137.585,228.718 137.654,229.257ZM213.657,300.051C213.681,299.745 213.738,298.846 213.708,297.506C213.283,278.128 210.723,259.778 201.065,242.72C195.996,233.768 185.617,227.343 175.316,226.151L175.316,226.151C175.316,226.151 174.655,226.744 174.658,226.74C169.503,233.814 158.794,236.541 150.515,235.845C145.673,235.439 140.546,233.734 137.474,229.725C131.065,234.146 123.573,238.276 117.338,243.483C111.023,248.757 106.005,255.148 104.887,264.174C104.298,268.932 103.041,293.06 102.795,301.48C108.596,302.22 114.096,302.885 119.313,303.482C119.201,299.233 119.378,297.302 119.476,292.942C119.624,286.425 119.253,280.282 120.101,273.789C120.169,273.264 120.652,272.893 121.177,272.961C121.702,273.03 122.073,273.512 122.005,274.037C121.166,280.461 121.542,286.539 121.396,292.985C121.296,297.397 121.114,299.3 121.239,303.701C173.642,309.608 196.595,308.465 206.644,306.397C209.852,305.737 211.687,304.996 212.729,304.364C213.267,304.038 213.559,303.727 213.679,303.581C213.427,301.548 213.384,300.892 213.409,300.663C213.445,300.328 213.56,300.162 213.657,300.051ZM191.195,275.044C191.464,281.285 192.706,287.61 193.574,293.775C194.36,299.349 195.104,298.399 196.143,303.932C196.24,304.453 196.743,304.796 197.263,304.698C197.784,304.601 198.127,304.099 198.03,303.578C197,298.091 196.254,299.035 195.476,293.507C194.616,287.403 193.379,281.141 193.113,274.962C193.091,274.432 192.642,274.021 192.113,274.044C191.584,274.067 191.172,274.515 191.195,275.044ZM213.979,299.794C213.995,299.784 214.005,299.778 214.005,299.778L213.979,299.794Z" />
    </g>
    <g id="blue_backwards">
        <path d="M114.355,178.53C113.888,184.323 103.226,194.677 114.355,194.276" style="fill:rgb(240,225,196);" />
        <path
              d="M113.398,178.453C113.312,179.516 112.836,180.74 112.237,182.025C111.251,184.14 109.923,186.392 109.118,188.362C108.317,190.321 108.085,192.059 108.755,193.265C109.423,194.469 111.058,195.355 114.389,195.235C114.919,195.216 115.333,194.771 115.314,194.241C115.295,193.712 114.85,193.297 114.32,193.317C113.075,193.361 112.134,193.27 111.442,193.041C110.949,192.877 110.612,192.654 110.433,192.333C110.246,191.996 110.233,191.583 110.293,191.121C110.373,190.504 110.597,189.819 110.895,189.089C111.689,187.144 113.004,184.924 113.977,182.836C114.685,181.319 115.211,179.862 115.312,178.607C115.354,178.079 114.96,177.616 114.432,177.573C113.904,177.531 113.441,177.925 113.398,178.453Z" />
        <path d="M119.276,150.233C117.459,154.548 116.036,161.101 115.489,165.744C114.119,177.363 113.16,189.392 114.901,201.017C115.621,205.829 116.551,211.616 120.555,214.897C123.442,217.264 128.508,218.029 132.099,218.379C135.07,218.669 138.098,218.899 140.942,217.849L137.032,219.164C137.371,222.325 137.804,225.492 137.955,228.671C144.858,234.063 162.263,247.657 174.068,225.803C174.118,219.114 172.76,163.608 171.96,156.936L119.276,150.233Z"
              style="fill:rgb(240,225,196);" />
        <path
              d="M136.111,219.578C136.443,222.617 136.85,225.661 136.996,228.717C137.009,228.996 137.144,229.256 137.364,229.428C140.321,231.738 145.175,235.513 150.696,237.476C154.501,238.829 158.616,239.324 162.666,237.991C166.961,236.578 171.217,233.101 174.913,226.259C174.987,226.121 175.027,225.967 175.028,225.81C175.078,219.109 173.715,163.505 172.913,156.822C172.86,156.385 172.518,156.039 172.081,155.984L119.397,149.281C118.97,149.226 118.559,149.463 118.391,149.861C116.543,154.248 115.092,160.91 114.535,165.632C113.156,177.334 112.198,189.45 113.951,201.159C114.705,206.191 115.76,212.209 119.946,215.64C122.966,218.115 128.249,218.968 132.006,219.335C133.37,219.468 134.745,219.583 136.111,219.578ZM140.642,218.963L138.07,219.828C138.379,222.607 138.736,225.392 138.891,228.184C141.755,230.419 146.246,233.856 151.339,235.667C154.749,236.88 158.436,237.362 162.066,236.167C165.957,234.887 169.75,231.69 173.109,225.556C173.127,218.134 171.878,166.936 171.081,157.792L119.888,151.279L119.888,151.279C118.233,155.507 116.953,161.527 116.442,165.856C115.082,177.392 114.122,189.333 115.85,200.875C116.538,205.467 117.342,211.023 121.163,214.155C123.918,216.413 128.766,217.09 132.192,217.424C134.82,217.68 137.496,217.913 140.034,217.142L140.633,216.941L140.942,218.809L141.243,218.761L141.275,218.75C141.065,218.827 140.854,218.898 140.642,218.963Z" />
        <path d="M140.184,181.351C139.817,180.99 139.689,180.386 139.605,179.745C139.43,178.396 139.589,176.851 139.591,175.965C139.598,173.039 140.14,169.259 140.068,165.762C140.017,163.273 139.651,160.923 138.651,159.062C137.978,157.809 136.714,157.143 135.207,156.809C133.406,156.409 131.234,156.508 129.824,156.089C125.146,154.698 121.098,151.812 117.31,148.815C116.895,148.486 116.291,148.557 115.962,148.972C115.633,149.387 115.703,149.992 116.119,150.321C120.096,153.468 124.365,156.469 129.277,157.929C130.504,158.294 132.282,158.302 133.929,158.531C135.2,158.709 136.419,158.965 136.96,159.97C137.828,161.588 138.104,163.639 138.148,165.802C138.22,169.283 137.678,173.047 137.671,175.96C137.669,176.906 137.514,178.553 137.701,179.993C137.856,181.181 138.26,182.229 138.984,182.855C139.484,183.286 140.246,183.389 141.126,183.112C142.328,182.734 143.876,181.593 144.513,181.315C145.892,180.714 147.032,180.484 148.066,180.755C149.103,181.026 150.001,181.793 150.936,183.034C152.952,185.711 152.535,189.893 150.824,192.803C149.846,194.468 148.432,195.737 146.727,195.956C145.611,196.099 144.389,195.774 143.106,194.87C142.673,194.564 142.074,194.668 141.768,195.101C141.463,195.534 141.566,196.133 141.999,196.438C143.754,197.676 145.444,198.056 146.971,197.86C149.233,197.571 151.181,195.984 152.479,193.777C154.563,190.233 154.925,185.139 152.47,181.879C151.214,180.212 149.945,179.262 148.553,178.897C147.157,178.532 145.606,178.745 143.746,179.555C143.213,179.787 142.031,180.646 140.966,181.12C140.751,181.215 140.543,181.293 140.352,181.333C140.301,181.343 140.227,181.349 140.184,181.351Z"
              style="fill:rgb(212,15,15);" />
        <path d="M150.559,196.313C152.316,198.603 154.436,200.673 156.832,202.283C158.608,203.476 160.749,204.073 162.831,204.562C179.57,208.487 187.01,189.208 188.697,176.018C191.719,152.4 172.885,132.616 150.559,131.726C138.348,131.24 121.59,135.741 116.284,148.271L116.715,149.568C120.852,152.842 124.469,155.363 129.55,157.009C131.768,157.727 136.343,156.723 137.805,159.516C140.344,164.367 138.905,170.965 138.631,175.963C138.505,178.25 138.31,180.068 139.612,182.128C140.378,183.341 143.779,180.535 144.13,180.435C147.286,179.539 149.897,179.542 151.703,182.457C153.821,185.875 153.372,189.292 151.839,192.957C150.319,196.592 145.713,197.883 142.553,195.654C144.575,197.151 147.278,197.303 150.559,196.313Z"
              style="fill:rgb(108,102,88);" />
        <path
              d="M144.483,181.333C147.137,180.592 149.363,180.503 150.887,182.962C152.828,186.095 152.359,189.228 150.954,192.587C149.669,195.659 145.777,196.754 143.106,194.87C142.676,194.566 142.083,194.665 141.775,195.092C141.467,195.518 141.559,196.113 141.982,196.426C144.089,197.985 146.856,198.294 150.201,197.412C151.939,199.579 153.996,201.533 156.297,203.08C158.167,204.337 160.417,204.982 162.612,205.496C171.428,207.564 177.81,203.554 182.196,197.257C186.446,191.154 188.788,182.872 189.65,176.14C192.745,151.95 173.464,131.678 150.597,130.767C143.112,130.469 133.958,132.013 126.659,136.054C121.707,138.797 117.607,142.685 115.4,147.897L116.284,149.231C116.284,149.231 115.373,148.575 115.373,148.575C115.373,148.575 115.416,148.703 115.804,149.87C115.863,150.048 115.972,150.204 116.119,150.321C120.351,153.67 124.057,156.238 129.254,157.922C130.41,158.296 132.178,158.242 133.849,158.438C135.125,158.587 136.373,158.85 136.955,159.961C138.15,162.246 138.386,164.946 138.313,167.659C138.237,170.53 137.809,173.419 137.672,175.91C137.535,178.411 137.377,180.389 138.8,182.641C139.242,183.341 140.095,183.572 141.154,183.229C142.308,182.857 144.261,181.49 144.483,181.333ZM151.198,195.598C151.832,194.969 152.357,194.208 152.725,193.328C154.386,189.357 154.813,185.655 152.519,181.951C150.449,178.609 147.488,178.484 143.868,179.512C143.783,179.536 143.598,179.615 143.357,179.772C142.899,180.071 141.923,180.792 141.023,181.216C140.805,181.319 140.481,181.407 140.321,181.448C139.257,179.647 139.479,178.028 139.59,176.015C139.727,173.508 140.156,170.6 140.233,167.71C140.314,164.662 139.999,161.638 138.656,159.071C137.932,157.689 136.624,157.01 135.102,156.694C133.291,156.318 131.151,156.518 129.846,156.096C124.973,154.517 121.485,152.106 117.536,148.993L117.311,148.317C119.381,143.67 123.121,140.208 127.589,137.734C134.58,133.863 143.352,132.4 150.52,132.685C172.306,133.553 190.694,152.851 187.745,175.896C186.919,182.354 184.697,190.306 180.621,196.16C176.68,201.818 170.972,205.485 163.05,203.627C161.08,203.165 159.048,202.615 157.368,201.486C155.058,199.934 153.015,197.937 151.32,195.729C151.283,195.681 151.243,195.637 151.198,195.598Z" />
        <path
              d="M120.332,202.223C118.565,201.927 116.8,201.519 115.163,200.78C114.68,200.561 114.111,200.776 113.893,201.259C113.674,201.742 113.889,202.311 114.372,202.529C116.161,203.337 118.085,203.793 120.014,204.117C120.537,204.204 121.032,203.851 121.12,203.329C121.207,202.806 120.854,202.311 120.332,202.223Z" />
        <path d="M127.056,166.564C121.551,164.597 118.044,167.232 121.076,170.202C123.267,172.347 131.397,173.795 131.987,173.158C134.222,170.747 128.86,167.209 127.056,166.564Z"
              style="fill:rgb(108,102,88);" />
        <path
              d="M127.379,165.66C125.184,164.876 123.273,164.777 121.886,165.094C120.783,165.345 119.977,165.866 119.51,166.506C118.694,167.625 118.724,169.242 120.405,170.888C121.182,171.649 122.619,172.359 124.255,172.911C126.561,173.69 129.258,174.189 130.792,174.26C131.353,174.286 131.789,174.249 132.053,174.177C132.362,174.094 132.565,173.947 132.691,173.811C133.931,172.473 133.638,170.876 132.497,169.395C131.147,167.644 128.563,166.083 127.379,165.66L127.379,165.66ZM131.421,172.326C131.147,172.329 130.491,172.327 129.904,172.253C128.326,172.056 126.154,171.574 124.35,170.909C123.25,170.503 122.288,170.045 121.748,169.516C121.144,168.925 120.835,168.4 120.931,167.925C121.016,167.504 121.434,167.235 121.996,167.053C123.122,166.687 124.784,166.772 126.733,167.468L126.733,167.468C127.714,167.819 129.857,169.115 130.976,170.567C131.433,171.16 131.762,171.776 131.421,172.326Z" />
        <g transform="matrix(0.996,-0.0893582,0.0893582,0.996,-15.5352,11.6923)">
            <path d="M121.271,175.721C117.529,174.658 116.152,177.494 118.649,180.423C120.16,182.196 126.209,184.091 127.596,182.767C130.786,179.722 121.271,175.721 121.271,175.721Z"
                  style="fill:white;" />
            <path
                  d="M121.643,174.836C121.607,174.821 121.57,174.808 121.533,174.797C119.067,174.097 117.431,174.883 116.772,176.125C116.138,177.32 116.334,179.188 117.918,181.046C119.082,182.41 122.666,183.899 125.25,184.135C126.602,184.259 127.7,183.995 128.258,183.461C128.826,182.919 129.102,182.345 129.184,181.775C129.3,180.965 129.013,180.12 128.398,179.318C126.585,176.954 121.643,174.836 121.643,174.836ZM120.953,176.629C121.308,176.782 123.353,177.685 125.08,178.89C125.938,179.488 126.729,180.149 127.113,180.845C127.231,181.059 127.31,181.27 127.286,181.483C127.263,181.688 127.137,181.877 126.933,182.072C126.787,182.212 126.525,182.225 126.221,182.243C125.714,182.273 125.108,182.208 124.468,182.082C122.502,181.696 120.194,180.756 119.379,179.8C118.869,179.201 118.545,178.614 118.411,178.073C118.312,177.673 118.317,177.31 118.468,177.025C118.601,176.776 118.849,176.61 119.176,176.524C119.645,176.4 120.241,176.434 120.947,176.627L120.953,176.629Z" />
        </g>
        <g transform="matrix(1,0,0,1,7.25665,-4.15174)">
            <circle cx="112.954" cy="182.309" r="2.606" />
        </g>
        <path d="M121.053,273.913C120.21,280.372 120.583,286.482 120.436,292.963C120.336,297.404 120.153,299.315 120.28,303.755M192.154,275.003C192.422,281.213 193.661,287.506 194.525,293.641C195.307,299.192 196.052,298.245 197.086,303.755M174.993,225.15C185.728,226.244 196.617,232.915 201.9,242.247C211.639,259.447 214.239,277.946 214.668,297.485C214.802,303.556 213.91,297.73 214.668,303.755C214.668,303.755 211.621,314.592 100.878,300.4C99.755,292.906 100.918,266.555 102.554,261.605C108.431,243.831 124.491,237.688 137.67,228.419L137.895,228.673C140.748,232.806 145.829,234.489 150.596,234.889C158.603,235.561 168.993,232.972 173.938,226.099L174.993,225.15Z"
              style="fill:rgb(39,134,152);" />
        <path
              d="M137.654,229.257L137.67,229.379L136.952,229.055C136.864,228.957 136.797,228.84 136.755,228.709C136.629,228.31 136.776,227.875 137.118,227.634C130.518,232.276 123.197,236.137 116.789,241.061C110.246,246.09 104.648,252.214 101.643,261.304C99.987,266.31 98.792,292.962 99.928,300.543C99.992,300.967 100.33,301.298 100.756,301.353C107.31,302.193 113.489,302.945 119.316,303.617L119.32,303.782C119.335,304.312 119.778,304.73 120.307,304.714C120.8,304.7 121.195,304.317 121.236,303.838C173.24,309.761 196.376,309.181 206.653,307.61C210.662,306.998 212.79,306.22 213.919,305.614C215.302,304.872 215.516,304.224 215.558,304.117L215.566,304.094L215.57,304.085L215.575,304.068L215.582,304.05L215.59,304.024L215.589,304.024C215.626,303.899 215.637,303.767 215.621,303.635C215.445,302.236 215.365,301.422 215.335,301.072C215.402,300.965 215.47,300.813 215.52,300.589C215.598,300.242 215.671,299.431 215.628,297.464C215.195,277.763 212.554,259.116 202.735,241.774C197.306,232.184 186.122,225.319 175.09,224.195C174.821,224.168 174.552,224.255 174.351,224.436L173.296,225.385C173.245,225.431 173.199,225.482 173.159,225.538C168.401,232.151 158.38,234.579 150.676,233.932C146.185,233.555 141.373,232.022 138.685,228.127C138.663,228.096 138.639,228.065 138.614,228.037C138.412,227.809 138.392,227.786 138.39,227.783C137.375,226.636 137.585,228.718 137.654,229.257ZM213.657,300.051C213.681,299.745 213.738,298.846 213.708,297.506C213.283,278.128 210.723,259.778 201.065,242.72C195.996,233.768 185.617,227.343 175.316,226.151L175.316,226.151C175.316,226.151 174.655,226.744 174.658,226.74C169.503,233.814 158.794,236.541 150.515,235.845C145.673,235.439 140.546,233.734 137.474,229.725C131.093,234.123 124.104,237.861 117.959,242.584C111.708,247.388 106.337,253.222 103.466,261.907C101.896,266.653 100.785,291.305 101.733,299.542C107.914,300.331 113.755,301.042 119.281,301.681C119.253,298.587 119.393,296.636 119.476,292.942C119.624,286.425 119.253,280.282 120.101,273.789C120.169,273.264 120.652,272.893 121.177,272.961C121.702,273.03 122.073,273.512 122.005,274.037C121.166,280.461 121.542,286.539 121.396,292.985C121.311,296.747 121.166,298.684 121.203,301.902C173.069,307.824 196.126,307.277 206.363,305.712C209.319,305.261 211.17,304.729 212.324,304.246C212.989,303.968 213.454,303.635 213.665,303.468C213.425,301.523 213.385,300.888 213.409,300.663C213.445,300.328 213.56,300.162 213.657,300.051ZM191.195,275.044C191.464,281.285 192.706,287.61 193.574,293.775C194.36,299.349 195.104,298.399 196.143,303.932C196.24,304.453 196.743,304.796 197.263,304.698C197.784,304.601 198.127,304.099 198.03,303.578C197,298.091 196.254,299.035 195.476,293.507C194.616,287.403 193.379,281.141 193.113,274.962C193.091,274.432 192.642,274.021 192.113,274.044C191.584,274.067 191.172,274.515 191.195,275.044ZM213.702,303.762C213.7,303.875 213.722,303.975 213.76,304.064C213.739,304.004 213.724,303.94 213.716,303.875L213.702,303.762ZM213.979,299.794C213.995,299.784 214.005,299.778 214.005,299.778L213.979,299.794Z" />
    </g>
</svg>
