<?xml version="1.0" encoding="UTF-8" standalone="no"?>
<!DOCTYPE svg PUBLIC "-//W3C//DTD SVG 1.1//EN" "http://www.w3.org/Graphics/SVG/1.1/DTD/svg11.dtd">
<svg width="100%" height="100%" viewBox="0 0 300 300" version="1.1" xmlns="http://www.w3.org/2000/svg"
     xmlns:xlink="http://www.w3.org/1999/xlink" xml:space="preserve" xmlns:serif="http://www.serif.com/"
     style="fill-rule:evenodd;clip-rule:evenodd;stroke-linecap:round;stroke-linejoin:round;stroke-miterlimit:1.5;">
    <g id="background" transform="matrix(1.04216,-2.55256e-16,2.49607e-16,1.0191,-0.0527564,-0.0236179)">
        <rect x="1.251" y="1.237" width="287.863" height="294.378" style="fill:rgb(187,221,244);" />
    </g>
    <g id="clouds_backwards">
        <g transform="matrix(1,0,0,1,41.5185,-14.0188)">
            <path d="M206.249,86.818C216.961,82.753 236.132,89.937 233.318,93.492C236.206,89.993 209.728,77.724 196.121,93.492C192.537,97.646 191.779,107.091 188.866,109.469C181.264,115.675 167.704,104.064 165.457,121.65C165.193,123.719 165.322,125.882 165.668,127.935C168.335,143.771 187.571,150.272 201.754,146.997C209.446,145.221 216.661,140.445 223.979,137.552C228.803,135.644 233.789,134.257 239.024,134.689C255.814,136.076 271.623,142.271 288.661,142.295C297.796,142.308 306.428,141.637 310.549,132.112C316.209,119.026 315.219,100.897 307.99,88.694C304.583,82.942 300.425,77.899 293.151,77.523C281.113,76.899 277.786,85.086 268.529,88.001C267.228,88.41 264.688,81.323 264.401,80.645C262.461,76.054 260.344,72.278 255.595,70.19C238.678,62.752 218.184,76.127 206.249,86.818Z"
                  style="fill:rgb(223,238,248);stroke:rgb(187,221,244);stroke-width:2px;" />
        </g>
        <g transform="matrix(1,0,0,1,-191.469,-73.2386)">
            <path d="M206.249,86.818C216.961,82.753 236.132,89.937 233.318,93.492C236.206,89.993 213.273,81.679 196.121,93.492C169.691,111.696 207.149,133.566 223.979,123.552C228.437,120.899 233.789,120.257 239.024,120.689C255.814,122.076 261.623,128.271 278.661,128.295C287.796,128.308 304.709,121.185 297.99,108.694C291.031,95.758 277.089,95.672 268.099,104.672C277.033,95.287 282.725,92.265 262.8,83.179C245.987,75.511 218.184,76.127 206.249,86.818Z"
                  style="fill:rgb(223,238,248);stroke:rgb(187,221,244);stroke-width:2px;" />
        </g>
    </g>
</svg>
