<?xml version="1.0" encoding="UTF-8" standalone="no"?>
<!DOCTYPE svg PUBLIC "-//W3C//DTD SVG 1.1//EN" "http://www.w3.org/Graphics/SVG/1.1/DTD/svg11.dtd">
<svg width="100%" height="100%" viewBox="0 0 300 300" version="1.1" xmlns="http://www.w3.org/2000/svg"
     xmlns:xlink="http://www.w3.org/1999/xlink" xml:space="preserve" xmlns:serif="http://www.serif.com/"
     style="fill-rule:evenodd;clip-rule:evenodd;stroke-linecap:round;stroke-linejoin:round;stroke-miterlimit:1.5;">
    <g id="background" transform="matrix(1.04216,-2.55256e-16,2.49607e-16,1.0191,-0.0527564,-0.0236179)">
        <rect x="1.251" y="1.237" width="287.863" height="294.378" style="fill:rgb(187,221,244);" />
    </g>
    <g id="clouds">
        <g transform="matrix(0.612861,0,0,0.612861,131.449,31.1081)">
            <path d="M206.249,86.818C216.961,82.753 236.132,89.937 233.318,93.492C236.206,89.993 209.728,77.724 196.121,93.492C192.537,97.646 191.779,107.091 188.866,109.469C181.264,115.675 167.704,104.064 165.457,121.65C165.193,123.719 165.322,125.882 165.668,127.935C168.335,143.771 187.571,150.272 201.754,146.997C209.446,145.221 216.661,140.445 223.979,137.552C228.803,135.644 233.789,134.257 239.024,134.689C255.814,136.076 271.623,142.271 288.661,142.295C297.796,142.308 306.428,141.637 310.549,132.112C316.209,119.026 315.219,100.897 307.99,88.694C304.583,82.942 300.425,77.899 293.151,77.523C281.113,76.899 277.786,85.086 268.529,88.001C267.228,88.41 264.688,81.323 264.401,80.645C262.461,76.054 260.344,72.278 255.595,70.19C238.678,62.752 218.184,76.127 206.249,86.818Z"
                  style="fill:rgb(223,238,248);stroke:rgb(187,221,244);stroke-width:3.26px;" />
        </g>
        <g transform="matrix(0.612861,0,0,0.612861,-115.201,27.3221)">
            <path d="M209.513,75.396C220.224,71.331 236.132,89.937 233.318,93.492C236.206,89.993 212.991,66.303 199.385,82.07C195.8,86.224 195.042,95.669 192.129,98.047C184.528,104.253 170.967,92.642 168.721,110.228C168.456,112.297 168.586,114.46 168.931,116.513C171.598,132.349 185.939,140.482 200.123,137.207C207.815,135.431 202.83,127.348 233.318,133.943C258.724,139.439 288.48,126.952 292.6,117.427C298.261,104.341 316.85,105.792 309.622,93.589C306.214,87.837 300.425,77.899 293.151,77.523C281.113,76.899 280.772,79.008 271.515,81.923C270.214,82.332 260.344,72.278 255.595,70.19C238.678,62.752 221.448,64.705 209.513,75.396Z"
                  style="fill:rgb(223,238,248);stroke:rgb(187,221,244);stroke-width:3.26px;" />
        </g>
        <g transform="matrix(-0.612861,0,0,0.612861,389.722,-42.5543)">
            <path d="M206.249,86.818C209.762,82.53 221.949,84.652 223.113,86.818C223.113,86.818 209.728,77.724 196.121,93.492C192.537,97.646 190.11,105.921 188.866,109.469C171.449,159.128 249.392,116.265 288.661,131.77C321.698,144.814 331.614,107.713 303.628,93.492C297.668,90.464 264.401,93.492 264.401,93.492C264.401,93.492 288.948,91.983 288.661,91.304C286.721,86.713 278.349,71.536 255.595,70.19C237.148,69.099 218.184,76.127 206.249,86.818Z"
                  style="fill:rgb(223,238,248);stroke:rgb(187,221,244);stroke-width:3.26px;" />
        </g>
        <g transform="matrix(0.592167,0.157915,-0.157915,0.592167,33.3438,-17.4545)">
            <path d="M206.249,86.818C209.762,82.53 221.949,84.652 223.113,86.818C223.113,86.818 209.728,77.724 196.121,93.492C192.537,97.646 186.4,106.63 188.866,109.469C212.825,137.066 219.86,99.781 233.453,106.866C245.729,113.265 260.32,104.829 262.68,100.01C268.356,88.42 277,69.729 254.246,68.383C235.799,67.292 218.184,76.127 206.249,86.818Z"
                  style="fill:rgb(223,238,248);stroke:rgb(187,221,244);stroke-width:3.26px;" />
        </g>
        <g transform="matrix(-0.600495,-0.04704,-0.04704,0.600495,203.77,-35.8549)">
            <path d="M206.249,86.818C216.961,82.753 236.132,89.937 233.318,93.492C236.206,89.993 213.273,81.679 196.121,93.492C169.691,111.696 207.149,133.566 223.979,123.552C228.437,120.899 233.789,120.257 239.024,120.689C255.814,122.076 261.623,128.271 278.661,128.295C287.796,128.308 304.709,121.185 297.99,108.694C291.031,95.758 277.089,95.672 268.099,104.672C277.033,95.287 282.725,92.265 262.8,83.179C245.987,75.511 218.184,76.127 206.249,86.818Z"
                  style="fill:rgb(223,238,248);stroke:rgb(187,221,244);stroke-width:3.32px;" />
        </g>
    </g>
</svg>
