<?xml version="1.0" encoding="UTF-8" standalone="no"?>
<!DOCTYPE svg PUBLIC "-//W3C//DTD SVG 1.1//EN" "http://www.w3.org/Graphics/SVG/1.1/DTD/svg11.dtd">
<svg width="100%" height="100%" viewBox="0 0 300 300" version="1.1" xmlns="http://www.w3.org/2000/svg" xmlns:xlink="http://www.w3.org/1999/xlink" xml:space="preserve" xmlns:serif="http://www.serif.com/" style="fill-rule:evenodd;clip-rule:evenodd;stroke-linecap:round;stroke-linejoin:round;stroke-miterlimit:1.5;">
    <g id="grass_backwards" transform="matrix(-1,0,0,1,300.409,46.0523)">
        <g transform="matrix(0.988662,-0.150158,0.150158,0.988662,-21.0053,35.1223)">
            <path d="M-11.518,208.106L303.481,189.214C306.92,186.053 308.506,163.75 308.867,159.695L303.481,149.865C296.796,139.227 286.775,150.249 278.668,151.345C272.815,152.137 267.32,148.488 261.422,148.862C255.135,149.261 250.172,153.529 244.074,154.74C239.432,155.661 235.236,152.593 230.679,152.692C226.423,152.784 222.852,155.812 218.691,156.443C215.201,156.971 212.429,152.077 208.672,151.902C205.376,151.748 203.406,155.223 200.27,154.995C197.488,154.793 196.531,150.98 193.582,150.519C189.673,149.91 187.232,153.531 183.563,153.17C180.368,152.856 177.065,150.926 173.973,150.044C169.185,148.678 163.583,148.065 158.622,147.881C151.458,147.616 144.614,149.629 137.607,150.676C131.147,151.641 124.846,151.526 118.364,152.766C114.439,153.517 111.068,151.852 107.186,153.672C105.416,154.502 103.534,156.595 101.594,156.687C99.036,156.81 96.857,154.894 94.179,155.199C93.035,155.329 91.89,155.648 90.826,156.082C90.296,156.298 89.648,157.346 89.309,156.886C86.154,152.595 82.29,151.06 76.836,152.109C76.012,152.268 73.165,153.828 72.349,153.671C69.27,153.082 67.96,149.683 64.989,148.857C61.536,147.898 58.397,150.145 55.923,152.217C55.319,152.723 53.002,154.573 52.126,153.905C50.606,152.747 50.513,150.089 48.763,148.916C45.95,147.031 41.438,148.501 38.867,150.022C38.562,150.202 36.178,152.291 35.969,152.264C30.889,151.602 27.495,145.976 21.969,145.634C19.552,145.484 16.774,146.186 14.699,147.48C14.145,147.825 12.455,149.75 11.914,149.807C11.78,149.822 9.845,147.226 9.321,146.841C6.763,144.959 1.862,142.69 -1.31,144.227C-4.051,145.555 -4.738,149.234 -5.157,151.86C-6.101,157.782 -6.693,163.392 -5.502,169.322C-5.346,170.098 -11.696,207.213 -11.518,208.106Z" style="fill:rgb(83,135,57);stroke:black;stroke-width:2px;"/>
        </g>
        <g transform="matrix(1,0,0,1,0,1)">
            <path d="M403.872,170.875C67.835,167.585 142.506,185.581 -37.157,191.08L-65.503,330.599L403.872,330.599L403.872,170.875Z" style="fill:rgb(109,166,86);stroke:black;stroke-width:2px;"/>
        </g>
    </g>
    <g id="blue" transform="matrix(-1.17454,0,0,1.17454,397.793,-37.6391)">
        <path d="M119.276,150.233C117.459,154.548 116.036,161.101 115.489,165.744C114.119,177.363 113.16,189.392 114.901,201.017C115.621,205.829 119.397,225.638 137.955,226.563C143.808,226.855 158.704,219.251 161.757,212.668C158.753,219.314 143.823,227.629 137.955,226.563C138.295,229.724 137.804,225.492 137.955,228.671C144.858,234.063 162.263,247.657 174.068,225.803C174.118,219.114 172.76,163.608 171.96,156.936L119.276,150.233Z" style="fill:rgb(240,225,196);"/>
        <path d="M137.141,227.33C118.693,225.877 114.824,206.027 114.092,201.138C112.341,189.441 113.299,177.339 114.677,165.648C115.232,160.938 116.679,154.293 118.523,149.916C118.665,149.578 119.015,149.376 119.379,149.422L172.063,156.125C172.435,156.172 172.727,156.466 172.771,156.839C173.573,163.521 174.935,219.11 174.886,225.809C174.885,225.942 174.851,226.074 174.787,226.191C171.114,232.991 166.889,236.451 162.622,237.856C158.602,239.178 154.519,238.684 150.743,237.342C145.239,235.384 140.401,231.619 137.452,229.316C137.264,229.169 137.15,228.948 137.138,228.71C137.103,227.961 137.118,227.542 137.141,227.33ZM162.499,213.012L162.499,213.012L162.498,213.013C160.634,217.124 154.39,221.896 148.356,224.784C144.806,226.483 141.329,227.515 138.864,227.466C138.888,227.764 138.891,227.887 138.888,227.912C138.868,228.069 138.817,228.183 138.762,228.264C141.633,230.505 146.157,233.976 151.291,235.801C154.731,237.025 158.449,237.508 162.111,236.303C166.035,235.011 169.865,231.79 173.251,225.594C173.274,218.268 172.011,166.515 171.213,157.665C171.213,157.665 119.796,151.123 119.796,151.123L119.796,151.123C118.117,155.367 116.816,161.464 116.3,165.84C114.939,177.387 113.979,189.342 115.709,200.896C116.408,205.564 119.993,224.85 137.996,225.747C140.826,225.888 145.83,224.079 150.509,221.479C155.178,218.885 159.542,215.501 161.016,212.324C161.205,211.916 161.689,211.738 162.098,211.925C162.507,212.113 162.687,212.595 162.502,213.005L162.499,213.012Z"/>
        <g transform="matrix(-0.851399,0,0,0.851399,338.68,32.0459)">
            <path d="M261.29,146.94C262.489,140.777 203.885,145.299 203.57,151.337C203.57,151.337 204.767,166.586 202.841,174.185C202.24,176.553 200.873,180.747 198.299,181.765C195.575,182.841 185.008,188.244 184.836,187.456C179.049,160.977 184.002,128.156 212.202,123.113C251.475,116.09 262.408,145.166 261.29,146.94Z" style="fill:rgb(108,102,88);"/>
            <path d="M260.345,146.77C260.264,147.219 260.511,147.664 260.936,147.833C261.366,148.003 261.856,147.843 262.102,147.452C262.267,147.191 262.404,146.572 262.23,145.663C261.969,144.3 261.095,141.931 259.422,139.184C254.001,130.279 240.128,117.144 212.033,122.168C197.546,124.759 189.013,134.465 184.863,146.943C180.772,159.242 180.968,174.254 183.898,187.661C183.979,188.032 184.366,188.627 185.34,188.465C187.227,188.15 196.166,183.64 198.652,182.657C199.86,182.18 200.868,181.133 201.657,179.838C202.716,178.098 203.392,175.915 203.771,174.421C205.637,167.063 204.628,152.627 204.534,151.352C204.556,151.269 204.639,151.202 204.724,151.117C204.877,150.965 205.077,150.818 205.317,150.67C206.429,149.985 208.276,149.348 210.624,148.749C220.158,146.317 237.679,144.71 249.387,144.991C251.521,145.042 253.461,145.156 255.121,145.34C256.977,145.547 258.472,145.834 259.47,146.233C259.783,146.358 260.039,146.489 260.222,146.64C260.256,146.668 260.286,146.696 260.312,146.725C260.323,146.737 260.337,146.758 260.345,146.77ZM259.84,144.327C257.717,143.599 254.001,143.181 249.433,143.071C235.847,142.745 214.554,144.949 206.465,148.018C205.121,148.528 204.115,149.077 203.508,149.626C202.915,150.16 202.64,150.734 202.612,151.287C202.609,151.329 202.61,151.37 202.613,151.412C202.613,151.412 203.81,166.454 201.91,173.949C201.568,175.297 200.972,177.271 200.017,178.84C199.462,179.752 198.797,180.536 197.946,180.872C195.724,181.75 188.221,185.569 185.597,186.419C182.91,173.56 182.781,159.287 186.685,147.549C190.614,135.737 198.657,126.511 212.371,124.058C239.259,119.25 252.594,131.66 257.782,140.183C258.734,141.747 259.41,143.173 259.84,144.327Z"/>
        </g>
        <g id="ear" transform="matrix(-0.851399,0,0,0.851399,338.68,32.0459)">
            <path d="M201.227,182.666C199.018,181.493 196.483,180.54 194.058,179.964C188.005,178.528 181.22,183.156 182.734,189.94C184.056,195.861 188.991,199.229 194.919,199.386C197.071,199.443 199.481,198.938 201.324,197.778" style="fill:rgb(240,225,196);"/>
            <path d="M201.677,181.818C199.397,180.608 196.782,179.624 194.28,179.03C187.575,177.439 180.12,182.635 181.797,190.149C183.22,196.524 188.511,200.176 194.894,200.345C197.227,200.407 199.837,199.848 201.836,198.59C202.284,198.308 202.419,197.715 202.137,197.266C201.855,196.818 201.261,196.683 200.813,196.965C199.125,198.028 196.915,198.478 194.945,198.426C189.47,198.281 184.892,195.199 183.671,189.73C182.32,183.677 188.435,179.616 193.837,180.898C196.184,181.456 198.638,182.378 200.777,183.514C201.245,183.762 201.826,183.584 202.075,183.116C202.323,182.648 202.145,182.067 201.677,181.818Z"/>
        </g>
        <g id="nose" transform="matrix(1,0,0,1,20.3417,6.85287)">
            <path d="M114.355,180.802C113.888,186.595 102.911,189.396 114.355,194.276" style="fill:rgb(240,225,196);"/>
            <path d="M115.17,180.868C114.969,183.355 113.026,185.365 111.478,187.173C110.983,187.752 110.537,188.307 110.253,188.861C110.037,189.282 109.916,189.696 110.016,190.122C110.127,190.596 110.485,191.058 111.118,191.565C111.895,192.187 113.048,192.83 114.676,193.524C115.09,193.701 115.284,194.182 115.107,194.597C114.93,195.011 114.449,195.205 114.034,195.028C111.849,194.096 110.442,193.221 109.594,192.4C108.923,191.751 108.568,191.112 108.424,190.494C108.237,189.694 108.394,188.906 108.798,188.116C109.134,187.46 109.65,186.795 110.237,186.11C110.941,185.287 111.752,184.429 112.407,183.491C112.994,182.652 113.459,181.75 113.54,180.736C113.576,180.287 113.971,179.951 114.421,179.987C114.87,180.024 115.206,180.418 115.17,180.868Z"/>
        </g>
        <g id="blue_suspect_face">
            <g transform="matrix(0.962505,-0.271262,0.271262,0.962505,-41.7758,45.0708)">
                <path d="M127.056,166.564C121.551,164.597 118.044,167.232 121.076,170.202C123.267,172.347 131.397,173.795 131.987,173.158C134.222,170.747 128.86,167.209 127.056,166.564Z" style="fill:rgb(108,102,88);"/>
                <path d="M127.331,165.794C128.499,166.212 131.051,167.753 132.384,169.482C133.478,170.902 133.775,172.432 132.587,173.714C132.474,173.835 132.292,173.965 132.016,174.04C131.761,174.109 131.34,174.143 130.798,174.118C129.274,174.047 126.593,173.55 124.301,172.776C122.688,172.232 121.27,171.536 120.504,170.786C118.894,169.209 118.843,167.663 119.625,166.59C120.075,165.973 120.854,165.475 121.917,165.233C123.284,164.921 125.167,165.021 127.331,165.794L127.331,165.794ZM131.501,172.464C131.939,171.848 131.604,171.148 131.089,170.48C129.952,169.006 127.777,167.69 126.781,167.334L126.781,167.334C124.794,166.624 123.099,166.545 121.952,166.917C121.332,167.118 120.885,167.432 120.791,167.897C120.688,168.407 120.999,168.983 121.648,169.618C122.199,170.157 123.179,170.629 124.3,171.043C126.115,171.712 128.299,172.196 129.886,172.395C130.529,172.476 131.253,172.469 131.501,172.464Z"/>
            </g>
            <g transform="matrix(-0.902456,-0.430783,-0.430783,0.902456,335.309,77.0879)">
                <path d="M127.056,166.564C121.551,164.597 118.044,167.232 121.076,170.202C123.267,172.347 131.397,173.795 131.987,173.158C134.222,170.747 128.86,167.209 127.056,166.564Z" style="fill:rgb(108,102,88);"/>
                <path d="M127.331,165.794C125.167,165.021 123.284,164.921 121.917,165.233C120.854,165.475 120.075,165.973 119.625,166.59C118.843,167.663 118.894,169.209 120.504,170.786C121.27,171.536 122.688,172.232 124.301,172.776C126.593,173.55 129.274,174.047 130.798,174.118C131.34,174.143 131.761,174.109 132.016,174.04C132.292,173.965 132.474,173.835 132.587,173.714C133.775,172.432 133.478,170.902 132.384,169.482C131.051,167.753 128.499,166.212 127.331,165.794L127.331,165.794ZM131.501,172.464C131.253,172.469 130.529,172.476 129.886,172.395C128.299,172.196 126.115,171.712 124.3,171.043C123.179,170.629 122.199,170.157 121.648,169.618C120.999,168.983 120.688,168.407 120.791,167.897C120.885,167.432 121.332,167.118 121.952,166.917C123.099,166.544 124.794,166.624 126.781,167.334C127.777,167.69 129.952,169.006 131.089,170.48C131.604,171.148 131.939,171.848 131.501,172.464Z"/>
            </g>
            <g transform="matrix(-1.25663,0.475066,-0.475066,-1.25663,363.515,349.706)">
                <path d="M122.232,176.762C118.491,175.699 116.152,177.494 118.649,180.423C120.16,182.196 126.231,184.114 127.596,182.767C130.56,179.841 122.76,176.256 122.232,176.762Z" style="fill:white;"/>
                <path d="M122.215,176.126C122.308,176.108 122.414,176.101 122.535,176.11C123.086,176.151 124.297,176.586 125.507,177.288C126.63,177.939 127.748,178.815 128.355,179.754C128.71,180.303 128.898,180.878 128.872,181.45C128.844,182.036 128.599,182.632 128.023,183.2C127.523,183.694 126.521,183.907 125.292,183.795C122.795,183.568 119.311,182.137 118.186,180.818C116.97,179.391 116.803,178.154 117.203,177.304C117.465,176.749 117.975,176.314 118.702,176.068C119.577,175.773 120.8,175.754 122.215,176.126ZM122.582,177.26C122.61,177.241 122.633,177.22 122.654,177.201C122.631,177.222 122.607,177.242 122.582,177.26ZM122.454,177.328C122.332,177.376 122.196,177.384 122.066,177.347C121.052,177.059 120.153,176.993 119.451,177.128C118.899,177.234 118.479,177.451 118.304,177.822C118.196,178.052 118.196,178.329 118.288,178.646C118.408,179.061 118.681,179.523 119.112,180.028C120.103,181.191 123.202,182.383 125.402,182.584C125.846,182.624 126.252,182.623 126.592,182.565C126.835,182.523 127.039,182.461 127.168,182.334C127.482,182.024 127.641,181.713 127.656,181.394C127.672,181.061 127.54,180.734 127.333,180.414C126.818,179.617 125.85,178.894 124.897,178.341C124.192,177.932 123.491,177.618 122.963,177.447C122.773,177.386 122.543,177.344 122.454,177.328Z"/>
            </g>
            <g transform="matrix(-0.851399,0,0,0.851399,341.491,34.0261)">
                <path d="M249.871,202.997C244.109,205.176 238.679,201.896 233.052,205.558" style="fill:none;stroke:black;stroke-width:2px;"/>
            </g>
            <g transform="matrix(1.32314,0,0,1.32314,-27.8421,-58.692)">
                <circle cx="112.954" cy="182.309" r="2.606"/>
            </g>
            <g transform="matrix(-1.25663,0.475066,-0.475066,-1.25663,389.234,351.829)">
                <path d="M121.64,176.538C117.898,175.475 116.152,177.494 118.649,180.423C120.16,182.196 126.184,184.064 127.596,182.767C130.832,179.795 122.167,176.032 121.64,176.538Z" style="fill:white;"/>
                <path d="M121.641,175.908C121.773,175.884 121.93,175.88 122.113,175.907C122.943,176.034 124.82,176.785 126.372,177.846C128.56,179.341 129.944,181.436 128.007,183.215C127.494,183.687 126.491,183.886 125.27,183.773C122.771,183.544 119.311,182.137 118.186,180.818C116.67,179.039 116.611,177.499 117.33,176.603C118.006,175.76 119.535,175.351 121.642,175.908L121.641,175.908ZM121.857,177.106C121.736,177.152 121.602,177.159 121.473,177.123C120.633,176.884 119.906,176.811 119.322,176.888C118.855,176.949 118.492,177.1 118.279,177.364C118.089,177.602 118.048,177.924 118.131,178.3C118.243,178.809 118.568,179.39 119.112,180.028C119.96,181.023 122.344,182.015 124.389,182.416C125.188,182.572 125.935,182.638 126.518,182.557C126.799,182.518 127.035,182.456 127.184,182.319C127.523,182.007 127.696,181.695 127.708,181.37C127.721,181.029 127.569,180.694 127.338,180.365C126.955,179.819 126.352,179.306 125.685,178.85C124.588,178.1 123.314,177.514 122.458,177.243C122.227,177.171 121.953,177.122 121.857,177.106Z"/>
            </g>
            <g transform="matrix(1.32314,0,0,1.32314,-2.12314,-56.5687)">
                <circle cx="112.954" cy="182.309" r="2.606"/>
            </g>
        </g>
        <g id="body">
            <path d="M121.053,273.913C120.21,280.372 120.583,286.482 120.436,292.963C120.336,297.404 120.153,299.315 120.28,303.755M192.154,275.003C192.422,281.213 193.661,287.506 194.525,293.641C195.307,299.192 196.052,298.245 197.086,303.755M174.993,225.15C185.728,226.244 196.617,232.915 201.9,242.247C211.639,259.447 214.239,277.946 214.668,297.485C214.802,303.556 213.91,297.73 214.668,303.755C214.668,303.755 211.621,314.592 100.878,300.4C99.755,292.906 100.915,266.554 102.554,261.605C109.018,242.092 126.87,230.634 137.67,228.419L137.895,228.673C140.748,232.806 145.829,234.489 150.596,234.889C158.603,235.561 168.993,232.972 173.938,226.099L174.993,225.15Z" style="fill:rgb(39,134,152);"/>
            <path d="M215.19,301.032C215.218,301.369 215.296,302.199 215.479,303.653C215.493,303.761 215.485,303.871 215.455,303.976C215.455,303.976 215.367,304.676 213.852,305.489C212.729,306.091 210.615,306.86 206.631,307.469C196.348,309.041 173.185,309.619 121.095,303.678L121.097,303.732C121.11,304.182 120.754,304.559 120.303,304.572C119.852,304.585 119.476,304.229 119.463,303.778L119.455,303.49C113.59,302.814 107.373,302.057 100.774,301.211C100.411,301.165 100.123,300.883 100.069,300.522C98.935,292.953 100.123,266.345 101.778,261.348C108.351,241.505 126.522,229.871 137.506,227.618L137.67,229.236C137.67,229.236 138.283,227.878 138.283,227.878C138.283,227.878 138.305,227.903 138.507,228.131C138.528,228.156 138.549,228.181 138.567,228.208C141.28,232.138 146.132,233.694 150.664,234.074C158.413,234.725 168.489,232.273 173.274,225.621C173.309,225.574 173.348,225.53 173.391,225.491L174.447,224.542C174.618,224.388 174.846,224.314 175.076,224.337C186.063,225.456 197.203,232.293 202.611,241.844C212.418,259.165 215.053,277.79 215.485,297.467C215.528,299.413 215.458,300.214 215.381,300.557C215.329,300.788 215.258,300.933 215.19,301.032ZM137.354,229.324C140.37,233.526 145.599,235.289 150.527,235.703C158.765,236.395 169.425,233.689 174.549,226.648L175.268,226.002L175.269,226.002C185.634,227.18 196.089,233.642 201.189,242.649C210.859,259.728 213.425,278.101 213.851,297.503C213.885,299.026 213.822,299.844 213.796,300.109L213.792,300.113C213.703,300.211 213.586,300.355 213.551,300.678C213.527,300.904 213.57,301.547 213.818,303.535C213.667,303.673 213.336,303.936 212.762,304.208C211.649,304.735 209.718,305.344 206.384,305.853C196.135,307.42 173.036,307.969 121.061,302.029C121.019,298.734 121.167,296.794 121.253,292.982C121.4,286.53 121.024,280.448 121.863,274.019C121.922,273.572 121.606,273.161 121.159,273.103C120.711,273.044 120.301,273.36 120.242,273.807C119.395,280.296 119.767,286.434 119.619,292.945C119.534,296.701 119.391,298.654 119.424,301.841C113.82,301.194 107.887,300.472 101.604,299.669C100.633,291.527 101.749,266.636 103.33,261.862C109.59,242.965 126.697,231.735 137.354,229.324ZM192.971,274.968C193.237,281.152 194.474,287.418 195.334,293.527C196.113,299.058 196.859,298.114 197.89,303.604C197.973,304.047 197.68,304.475 197.237,304.558C196.794,304.641 196.366,304.349 196.283,303.906C195.245,298.376 194.5,299.326 193.716,293.755C192.848,287.594 191.606,281.275 191.338,275.038C191.318,274.587 191.668,274.206 192.119,274.186C192.57,274.167 192.951,274.517 192.971,274.968Z"/>
        </g>
    </g>
    <g id="pink" transform="matrix(-1.13326,0,0,1,232.382,0.925377)">
        <g transform="matrix(0.660376,0,0,0.921532,50.8172,42.4465)">
            <path d="M150.012,134.546C129.953,150.758 131.299,193.638 132.979,205.274C137.133,234.046 155.171,239.218 173.576,223.608C181.331,217.031 189.216,204.431 190.271,165.762L150.012,134.546Z" style="fill:rgb(240,225,196);"/>
            <path d="M149.107,133.808C149.6,133.409 150.394,133.403 150.898,133.793L191.157,165.009C191.417,165.211 191.561,165.493 191.553,165.786C190.485,204.939 182.355,217.669 174.503,224.329C164.795,232.562 155.098,235.118 147.366,232.018C139.784,228.979 133.853,220.275 131.705,205.395C130.689,198.363 129.793,180.001 133.605,162.909C136.178,151.37 140.923,140.422 149.107,133.808ZM150.049,136.015C142.724,142.43 138.509,152.609 136.129,163.28C132.373,180.125 133.252,198.222 134.253,205.153C136.259,219.045 141.423,227.312 148.501,230.15C155.429,232.927 163.952,230.265 172.65,222.888C180.277,216.419 187.886,204.023 188.976,166.199C188.976,166.198 150.049,136.015 150.049,136.015L150.049,136.015Z"/>
        </g>
        <g transform="matrix(0.952698,0,0,1,7.46319,-2)">
            <path d="M121.053,273.913C120.21,280.372 120.583,286.482 120.436,292.963C120.336,297.404 120.153,299.315 120.28,303.755M192.154,275.003C192.422,281.213 193.661,287.506 194.525,293.641C195.307,299.192 196.052,298.245 197.086,303.755M174.993,225.15C185.728,226.244 196.617,232.915 201.9,242.247C211.639,259.447 214.239,277.946 214.668,297.485C214.802,303.556 213.91,297.73 214.668,303.755C214.668,303.755 212.556,316.514 101.813,302.322C101.988,294.822 103.263,268.994 103.934,264.056C106.705,243.671 126.229,231.014 137.67,228.419L137.895,228.673C140.748,232.806 145.829,234.489 150.596,234.889C158.603,235.561 168.993,232.972 173.938,226.099L174.993,225.15Z" style="fill:rgb(224,129,138);"/>
            <path d="M215.265,301.089C215.296,301.442 215.376,302.248 215.549,303.626C215.562,303.725 215.56,303.825 215.544,303.924C215.544,303.924 215.519,304.76 214.041,305.778C212.971,306.514 210.927,307.474 207.004,308.281C195.735,310.599 168.325,311.812 101.708,303.276C101.252,303.217 100.912,302.794 100.924,302.298C101.1,294.776 102.382,268.869 103.055,263.917C105.885,243.093 125.799,230.131 137.488,227.48L137.67,229.379C137.67,229.379 138.314,227.756 138.314,227.756C138.314,227.756 138.336,227.782 138.538,228.01C138.563,228.038 138.586,228.068 138.607,228.099C141.311,232.015 146.149,233.553 150.665,233.932C158.4,234.581 168.459,232.149 173.236,225.51C173.275,225.455 173.32,225.405 173.369,225.361L174.424,224.412C174.606,224.249 174.841,224.17 175.076,224.194C186.085,225.316 197.241,232.177 202.659,241.746C212.482,259.096 215.124,277.752 215.557,297.462C215.601,299.441 215.526,300.256 215.448,300.604C215.397,300.829 215.331,300.981 215.265,301.089ZM137.346,229.479C140.377,233.663 145.6,235.432 150.527,235.846C158.774,236.538 169.444,233.816 174.58,226.771L175.275,226.145L175.276,226.145C185.618,227.323 196.053,233.76 201.141,242.747C210.795,259.797 213.354,278.139 213.779,297.508C213.809,298.837 213.753,299.73 213.729,300.035C213.706,300.06 213.686,300.085 213.669,300.111C213.597,300.218 213.511,300.371 213.48,300.654C213.456,300.884 213.496,301.54 213.748,303.565C213.623,303.715 213.329,304.022 212.792,304.348C211.743,304.984 209.898,305.731 206.671,306.395C196.614,308.464 173.637,309.611 121.168,303.694C121.043,299.298 121.225,297.395 121.325,292.987C121.471,286.543 121.095,280.468 121.933,274.047C122.002,273.523 121.663,273.037 121.177,272.963C120.691,272.889 120.241,273.255 120.172,273.779C119.324,280.275 119.695,286.421 119.547,292.94C119.448,297.304 119.272,299.236 119.383,303.491C114.124,302.89 108.578,302.219 102.725,301.472C102.967,293.047 104.169,268.941 104.814,264.195C107.484,244.547 126.091,232.268 137.346,229.479ZM193.042,274.958C193.308,281.136 194.545,287.395 195.404,293.496C196.182,299.023 196.928,298.079 197.958,303.564C198.055,304.083 197.744,304.591 197.263,304.696C196.782,304.801 196.312,304.465 196.215,303.945C195.176,298.411 194.431,299.361 193.646,293.785C192.778,287.618 191.535,281.291 191.266,275.047C191.243,274.518 191.623,274.069 192.113,274.044C192.603,274.019 193.02,274.429 193.042,274.958ZM213.924,299.862C214,299.804 214.061,299.766 214.061,299.766C214.061,299.766 213.988,299.809 213.924,299.862Z"/>
        </g>
        <g transform="matrix(1.12265,0,0,1.09988,-23.8588,-25.611)">
            <path d="M150.012,134.546C129.953,150.758 131.299,193.638 132.979,205.274C137.133,234.046 155.171,239.218 173.576,223.608C181.331,217.031 189.216,204.431 190.271,165.762L150.012,134.546Z" style="fill:rgb(240,225,196);"/>
            <path d="M149.58,133.831C149.835,133.624 150.173,133.621 150.432,133.821L190.691,165.037C190.907,165.205 191.033,165.489 191.025,165.79C189.957,204.937 181.874,217.654 174.023,224.312C164.577,232.323 155.209,234.925 147.686,231.909C140.148,228.887 134.371,220.214 132.234,205.418C131.218,198.376 130.32,179.99 134.136,162.877C136.704,151.36 141.411,140.432 149.58,133.831ZM150.025,135.607C142.405,142.008 138.03,152.403 135.598,163.313C131.846,180.136 132.724,198.209 133.723,205.13C135.741,219.106 141.06,227.405 148.181,230.259C155.317,233.12 164.17,230.503 173.13,222.904C180.757,216.436 188.41,204.031 189.503,166.218C189.503,166.218 150.025,135.607 150.025,135.607L150.025,135.607Z"/>
        </g>
        <g transform="matrix(-0.882408,0,0,1,194.466,0.0746234)">
            <path d="M11.57,199.456C17.979,194.892 20.086,186.592 17.908,179.287C17.122,176.652 16.104,174.01 14.763,171.603C14.684,171.462 13.355,169.508 13.4,169.442C14.989,167.114 17.223,165.863 18.499,163.032C20.241,159.166 20.023,154.809 21.476,151.053C21.527,150.921 23.993,151.414 24.244,151.447C26.123,151.692 27.983,152.048 29.867,152.26C30.55,152.337 31.234,152.402 31.918,152.455C38.172,152.938 42.973,150.785 48.914,149.24C59.89,146.385 72.691,145.057 80.832,136.124C83.836,132.826 86.019,128.309 86.244,126.024C87.024,118.107 81.635,120.324 79.559,122.406C84.887,116.262 82.775,109.042 72.556,113.507C74.384,102.014 55.998,107.286 49.997,113.507C38.328,125.602 24.293,122.266 11.57,127.941C-2.054,134.018 -3.794,149.512 -3.785,155.634C-3.778,160.266 -3.6,164.852 -3.377,169.479C-3.143,174.338 -2.625,179.076 -2.169,183.901C-1.96,186.116 -2.108,188.704 -0.938,190.689C0.521,193.163 3.005,194.554 5.283,196.159C6.465,196.992 8.111,198.54 9.549,199.013" style="fill:rgb(207,178,59);"/>
            <path d="M14.549,169.495C15.234,168.606 16.013,167.871 16.761,167.09C17.749,166.057 18.687,164.952 19.374,163.427C20.279,161.418 20.684,159.284 21.042,157.161C21.335,155.428 21.595,153.703 22.129,152.078C22.825,152.192 23.973,152.379 24.12,152.399C26.004,152.645 27.87,153.001 29.76,153.214C30.453,153.292 31.148,153.359 31.845,153.412C38.212,153.903 43.106,151.742 49.155,150.169C54.661,148.737 60.624,147.686 66.231,145.875C71.98,144.018 77.355,141.364 81.541,136.77C84.704,133.299 86.962,128.524 87.199,126.118C87.57,122.354 86.543,120.581 85.289,119.89C84.477,119.443 83.498,119.389 82.504,119.63C82.905,118.744 83.162,117.878 83.278,117.066C83.472,115.704 83.274,114.479 82.723,113.506C82.016,112.254 80.728,111.374 78.8,111.194C77.439,111.067 75.72,111.301 73.643,112.042C73.653,110.207 73.1,108.838 72.196,107.849C71.055,106.6 69.3,105.934 67.197,105.793C61.48,105.41 53.065,108.944 49.306,112.84C43.627,118.727 37.363,120.842 30.98,122.192C24.357,123.593 17.604,124.198 11.179,127.064C-2.894,133.341 -4.754,149.312 -4.745,155.635C-4.738,160.283 -4.559,164.883 -4.336,169.525C-4.102,174.399 -3.582,179.151 -3.125,183.992C-2.903,186.339 -3.005,189.072 -1.765,191.176C-0.235,193.771 2.341,195.26 4.73,196.944C5.977,197.822 7.733,199.426 9.249,199.925C9.753,200.09 10.296,199.816 10.461,199.312C10.627,198.809 10.352,198.266 9.849,198.101C8.49,197.654 6.953,196.161 5.836,195.374C3.668,193.847 1.277,192.556 -0.111,190.201C-1.211,188.335 -1.017,185.893 -1.213,183.811C-1.668,179 -2.185,174.277 -2.418,169.433C-2.64,164.821 -2.818,160.25 -2.825,155.632C-2.833,149.712 -1.214,134.694 11.961,128.818C18.259,126.008 24.885,125.444 31.377,124.071C38.11,122.647 44.698,120.382 50.688,114.173C54.131,110.605 61.833,107.358 67.069,107.708C68.617,107.812 69.939,108.225 70.779,109.144C71.609,110.052 71.914,111.43 71.608,113.356C71.553,113.703 71.691,114.052 71.969,114.266C72.246,114.481 72.619,114.527 72.94,114.387C75.301,113.355 77.187,112.972 78.621,113.106C79.797,113.216 80.62,113.687 81.052,114.451C81.413,115.09 81.505,115.901 81.377,116.795C81.157,118.338 80.291,120.097 78.833,121.777C78.495,122.168 78.526,122.757 78.905,123.109C79.284,123.461 79.873,123.45 80.238,123.084C80.881,122.44 81.89,121.775 82.89,121.513C83.414,121.375 83.935,121.337 84.363,121.572C84.707,121.762 84.959,122.131 85.13,122.689C85.364,123.455 85.428,124.511 85.289,125.93C85.075,128.095 82.969,132.353 80.122,135.477C76.168,139.817 71.072,142.294 65.641,144.048C60.069,145.848 54.143,146.888 48.672,148.311C42.839,149.827 38.132,151.972 31.992,151.498C31.319,151.446 30.646,151.381 29.975,151.306C28.096,151.094 26.242,150.74 24.369,150.495C24.129,150.463 21.987,150.054 21.522,150.072C20.878,150.096 20.648,150.532 20.58,150.707C19.831,152.644 19.505,154.735 19.149,156.842C18.818,158.803 18.46,160.781 17.624,162.638C17.036,163.943 16.219,164.879 15.374,165.762C14.421,166.757 13.433,167.691 12.607,168.901C12.546,168.99 12.291,169.392 12.567,169.944C12.753,170.316 13.852,171.941 13.924,172.07C15.231,174.417 16.222,176.993 16.988,179.562C19.051,186.48 17.084,194.351 11.013,198.674C10.581,198.982 10.481,199.582 10.788,200.013C11.095,200.445 11.695,200.546 12.127,200.238C18.875,195.433 21.121,186.703 18.828,179.013C18.022,176.311 16.976,173.604 15.602,171.136C15.553,171.048 14.92,170.067 14.549,169.495Z"/>
        </g>
        <g transform="matrix(1.00016,0,0,1.97876,-118.481,-136.354)">
            <path d="M249.688,126.158C250.707,127.94 251.588,128.358 253.053,129.371C253.352,129.577 253.302,129.883 252.942,130.054C252.582,130.225 252.047,130.196 251.749,129.99C250.142,128.879 249.196,128.415 248.078,126.461C247.933,126.206 248.175,125.932 248.619,125.849C249.063,125.765 249.542,125.904 249.688,126.158Z"/>
        </g>
        <g id="ear1" serif:id="ear" transform="matrix(-0.878736,-0.0911362,-0.089463,1.10783,372.413,5.79542)">
            <path d="M201.227,182.666C199.018,181.493 196.483,180.54 194.058,179.964C188.005,178.528 181.22,183.156 182.734,189.94C184.056,195.861 188.991,199.229 194.919,199.386C197.071,199.443 199.481,198.938 201.324,197.778" style="fill:rgb(240,225,196);"/>
            <path d="M201.715,181.923C199.431,180.71 196.811,179.725 194.303,179.13C187.628,177.546 180.123,182.629 181.793,190.109C183.213,196.471 188.522,200.08 194.891,200.248C197.238,200.311 199.864,199.75 201.875,198.485C202.309,198.211 202.415,197.673 202.111,197.283C201.807,196.893 201.208,196.798 200.774,197.071C199.098,198.126 196.904,198.575 194.947,198.523C189.459,198.378 184.899,195.252 183.675,189.77C182.317,183.683 188.382,179.51 193.813,180.799C196.156,181.355 198.604,182.276 200.739,183.409C201.195,183.651 201.784,183.515 202.053,183.105C202.323,182.695 202.171,182.165 201.715,181.923Z"/>
        </g>
        <g transform="matrix(0.991973,0.12645,-0.12645,0.991973,59.4867,-8.60857)">
            <path d="M114.355,178.53C113.888,184.323 103.226,194.677 114.355,194.276" style="fill:rgb(240,225,196);"/>
            <path d="M115.2,178.647C115.099,179.907 114.572,181.374 113.861,182.897C112.888,184.985 111.574,187.205 110.779,189.149C110.483,189.874 110.261,190.553 110.181,191.165C110.124,191.601 110.133,191.991 110.309,192.309C110.494,192.642 110.844,192.863 111.356,193.033C112.064,193.268 113.027,193.364 114.301,193.318C114.769,193.301 115.173,193.717 115.202,194.245C115.232,194.774 114.876,195.217 114.409,195.234C112.575,195.3 111.282,195.075 110.406,194.666C109.673,194.323 109.187,193.845 108.879,193.29C108.565,192.725 108.429,192.066 108.458,191.328C108.493,190.439 108.782,189.407 109.233,188.302C110.038,186.331 111.367,184.079 112.353,181.964C112.949,180.686 113.424,179.471 113.509,178.414C113.552,177.889 113.965,177.515 114.432,177.579C114.898,177.643 115.243,178.122 115.2,178.647Z"/>
        </g>
        <g id="pink_puzzled_face">
            <g transform="matrix(0.802265,0.676522,0.526769,-0.802265,-25.8991,223.259)">
                <path d="M127.056,166.564C121.551,164.597 118.044,167.232 121.076,170.202C123.267,172.347 131.397,173.795 131.987,173.158C134.222,170.747 128.86,167.209 127.056,166.564Z" style="fill:rgb(207,178,59);"/>
                <path d="M127.311,165.649C124.909,164.79 122.854,164.766 121.466,165.217C120.143,165.646 119.365,166.528 119.164,167.52C118.968,168.491 119.288,169.72 120.522,170.928C121.288,171.678 122.708,172.377 124.32,172.922C126.607,173.694 129.281,174.19 130.802,174.261C131.334,174.285 131.748,174.252 131.999,174.184C132.275,174.11 132.459,173.975 132.571,173.854C133.118,173.264 133.347,172.62 133.369,171.967C133.397,171.115 133.031,170.201 132.374,169.35C131.038,167.616 128.482,166.067 127.311,165.649ZM131.516,172.319C131.264,172.325 130.53,172.334 129.877,172.252C128.287,172.052 126.098,171.568 124.28,170.897C123.159,170.483 122.181,170.015 121.63,169.475C121.042,168.899 120.722,168.412 120.816,167.949C120.865,167.705 121.049,167.521 121.291,167.361C122.347,166.663 124.351,166.604 126.801,167.48C127.636,167.778 129.29,168.752 130.481,169.923C130.913,170.349 131.284,170.796 131.506,171.254C131.682,171.617 131.732,171.986 131.516,172.319Z"/>
            </g>
            <g transform="matrix(-0.882408,0,0,1,205.055,-0.925377)">
                <path d="M53.949,209.769C66.325,206.295 64.539,211.101 77.727,208.476" style="fill:none;stroke:black;stroke-width:2px;"/>
            </g>
            <g transform="matrix(-0.952779,0.344131,-0.267955,-0.952779,303.693,285.434)">
                <path d="M127.056,166.564C121.551,164.597 118.044,167.232 121.076,170.202C123.267,172.347 131.397,173.795 131.987,173.158C134.222,170.747 128.86,167.209 127.056,166.564Z" style="fill:rgb(207,178,59);"/>
                <path d="M127.311,165.649C128.482,166.067 131.038,167.616 132.374,169.35C133.031,170.201 133.397,171.115 133.369,171.967C133.347,172.62 133.118,173.264 132.571,173.854C132.459,173.975 132.275,174.11 131.999,174.184C131.748,174.252 131.334,174.285 130.802,174.261C129.281,174.19 126.607,173.694 124.32,172.922C122.708,172.377 121.288,171.678 120.522,170.928C119.288,169.72 118.968,168.491 119.164,167.52C119.365,166.528 120.143,165.646 121.466,165.217C122.854,164.766 124.909,164.79 127.311,165.649L127.311,165.649ZM131.516,172.319C131.872,171.786 131.544,171.19 131.098,170.613C129.965,169.143 127.795,167.835 126.801,167.48C124.351,166.604 122.347,166.663 121.291,167.361C121.049,167.521 120.865,167.705 120.816,167.949C120.722,168.412 121.042,168.899 121.63,169.475C122.181,170.015 123.159,170.483 124.28,170.897C126.098,171.568 128.287,172.052 129.877,172.252C130.53,172.334 131.266,172.325 131.516,172.319Z"/>
            </g>
            <g transform="matrix(0.996,-0.0893582,0.0893582,0.996,-1.92041,12.8332)">
                <path d="M120.491,173.075C113.511,172.915 112.466,177.349 118.649,180.423C120.648,181.417 125.774,183.777 127.731,181.238C130.795,177.263 125.889,173.198 120.491,173.075Z" style="fill:white;"/>
                <path d="M120.527,172.116C124.061,172.197 127.373,173.893 128.758,176.12C129.824,177.834 129.909,179.856 128.365,181.859C127.412,183.096 125.863,183.473 124.165,183.289C121.98,183.052 119.546,181.926 118.293,181.302C116.247,180.285 114.94,179.101 114.291,177.991C113.741,177.051 113.615,176.125 113.817,175.299C114.015,174.49 114.543,173.739 115.45,173.173C116.534,172.496 118.236,172.063 120.527,172.116L120.527,172.116ZM120.455,174.034C118.853,173.997 117.589,174.208 116.687,174.613C116.023,174.912 115.573,175.275 115.451,175.773C115.334,176.251 115.557,176.762 115.987,177.31C116.591,178.081 117.596,178.843 119.004,179.543C120.15,180.113 122.367,181.163 124.364,181.379C125.455,181.498 126.485,181.412 127.097,180.617C127.559,180.018 127.799,179.426 127.826,178.847C127.866,177.956 127.415,177.142 126.713,176.435C125.316,175.029 122.938,174.091 120.455,174.034Z"/>
            </g>
            <g transform="matrix(-0.912725,-0.460564,-0.377263,0.905252,342.409,79.2095)">
                <path d="M120.491,173.075C113.511,172.915 112.466,177.349 118.649,180.423C120.648,181.417 125.774,183.777 127.731,181.238C130.795,177.263 125.889,173.198 120.491,173.075Z" style="fill:white;"/>
                <path d="M120.527,172.116C118.236,172.063 116.534,172.496 115.45,173.173C114.543,173.739 114.015,174.49 113.817,175.299C113.615,176.125 113.741,177.051 114.291,177.991C114.94,179.101 116.247,180.285 118.293,181.302C119.546,181.926 121.98,183.052 124.165,183.289C125.863,183.473 127.412,183.096 128.365,181.859C129.909,179.856 129.824,177.834 128.758,176.12C127.373,173.893 124.061,172.197 120.527,172.116L120.527,172.116ZM120.455,174.034C122.938,174.091 125.316,175.029 126.713,176.435C127.415,177.142 127.866,177.956 127.826,178.847C127.799,179.426 127.559,180.018 127.097,180.617C126.485,181.412 125.455,181.498 124.364,181.379C122.367,181.163 120.15,180.113 119.004,179.543C117.596,178.843 116.591,178.081 115.987,177.31C115.557,176.762 115.334,176.251 115.451,175.773C115.573,175.275 116.023,174.912 116.687,174.613C117.589,174.208 118.853,173.997 120.455,174.034L120.455,174.034Z"/>
            </g>
            <g transform="matrix(1.37133,0,0,1.55407,-22.7465,-104.949)">
                <circle cx="112.954" cy="182.309" r="2.606"/>
            </g>
            <g transform="matrix(1.37133,0,0,1.55407,5.65001,-99.9806)">
                <circle cx="112.954" cy="182.309" r="2.606"/>
            </g>
        </g>
    </g>
</svg>
