<?xml version="1.0" encoding="UTF-8" standalone="no"?>
<!DOCTYPE svg PUBLIC "-//W3C//DTD SVG 1.1//EN" "http://www.w3.org/Graphics/SVG/1.1/DTD/svg11.dtd">
<svg width="100%" height="100%" viewBox="0 0 300 300" version="1.1" xmlns="http://www.w3.org/2000/svg" xmlns:xlink="http://www.w3.org/1999/xlink" xml:space="preserve" xmlns:serif="http://www.serif.com/" style="fill-rule:evenodd;clip-rule:evenodd;stroke-linecap:round;stroke-linejoin:round;stroke-miterlimit:1.5;">
    <g id="grass_backwards" transform="matrix(-1,0,0,1,300.409,46.0523)">
        <g transform="matrix(0.988662,-0.150158,0.150158,0.988662,-21.0053,35.1223)">
            <path d="M-11.518,208.106L303.481,189.214C306.92,186.053 308.506,163.75 308.867,159.695L303.481,149.865C296.796,139.227 286.775,150.249 278.668,151.345C272.815,152.137 267.32,148.488 261.422,148.862C255.135,149.261 250.172,153.529 244.074,154.74C239.432,155.661 235.236,152.593 230.679,152.692C226.423,152.784 222.852,155.812 218.691,156.443C215.201,156.971 212.429,152.077 208.672,151.902C205.376,151.748 203.406,155.223 200.27,154.995C197.488,154.793 196.531,150.98 193.582,150.519C189.673,149.91 187.232,153.531 183.563,153.17C180.368,152.856 177.065,150.926 173.973,150.044C169.185,148.678 163.583,148.065 158.622,147.881C151.458,147.616 144.614,149.629 137.607,150.676C131.147,151.641 124.846,151.526 118.364,152.766C114.439,153.517 111.068,151.852 107.186,153.672C105.416,154.502 103.534,156.595 101.594,156.687C99.036,156.81 96.857,154.894 94.179,155.199C93.035,155.329 91.89,155.648 90.826,156.082C90.296,156.298 89.648,157.346 89.309,156.886C86.154,152.595 82.29,151.06 76.836,152.109C76.012,152.268 73.165,153.828 72.349,153.671C69.27,153.082 67.96,149.683 64.989,148.857C61.536,147.898 58.397,150.145 55.923,152.217C55.319,152.723 53.002,154.573 52.126,153.905C50.606,152.747 50.513,150.089 48.763,148.916C45.95,147.031 41.438,148.501 38.867,150.022C38.562,150.202 36.178,152.291 35.969,152.264C30.889,151.602 27.495,145.976 21.969,145.634C19.552,145.484 16.774,146.186 14.699,147.48C14.145,147.825 12.455,149.75 11.914,149.807C11.78,149.822 9.845,147.226 9.321,146.841C6.763,144.959 1.862,142.69 -1.31,144.227C-4.051,145.555 -4.738,149.234 -5.157,151.86C-6.101,157.782 -6.693,163.392 -5.502,169.322C-5.346,170.098 -11.696,207.213 -11.518,208.106Z" style="fill:rgb(83,135,57);stroke:black;stroke-width:2px;"/>
        </g>
        <g transform="matrix(1,0,0,1,0,1)">
            <path d="M403.872,170.875C67.835,167.585 142.506,185.581 -37.157,191.08L-65.503,330.599L403.872,330.599L403.872,170.875Z" style="fill:rgb(109,166,86);stroke:black;stroke-width:2px;"/>
        </g>
    </g>
    <g id="blue" transform="matrix(-1.17454,0,0,1.17454,397.793,-37.6391)">
        <path d="M119.276,150.233C117.459,154.548 116.036,161.101 115.489,165.744C114.119,177.363 113.16,189.392 114.901,201.017C115.621,205.829 119.397,225.638 137.955,226.563C143.808,226.855 158.704,219.251 161.757,212.668C158.753,219.314 143.823,227.629 137.955,226.563C138.295,229.724 137.804,225.492 137.955,228.671C144.858,234.063 162.263,247.657 174.068,225.803C174.118,219.114 172.76,163.608 171.96,156.936L119.276,150.233Z" style="fill:rgb(240,225,196);"/>
        <path d="M137.141,227.33C118.693,225.877 114.824,206.027 114.092,201.138C112.341,189.441 113.299,177.339 114.677,165.648C115.232,160.938 116.679,154.293 118.523,149.916C118.665,149.578 119.015,149.376 119.379,149.422L172.063,156.125C172.435,156.172 172.727,156.466 172.771,156.839C173.573,163.521 174.935,219.11 174.886,225.809C174.885,225.942 174.851,226.074 174.787,226.191C171.114,232.991 166.889,236.451 162.622,237.856C158.602,239.178 154.519,238.684 150.743,237.342C145.239,235.384 140.401,231.619 137.452,229.316C137.264,229.169 137.15,228.948 137.138,228.71C137.103,227.961 137.118,227.542 137.141,227.33ZM162.499,213.012L162.499,213.012L162.498,213.013C160.634,217.124 154.39,221.896 148.356,224.784C144.806,226.483 141.329,227.515 138.864,227.466C138.888,227.764 138.891,227.887 138.888,227.912C138.868,228.069 138.817,228.183 138.762,228.264C141.633,230.505 146.157,233.976 151.291,235.801C154.731,237.025 158.449,237.508 162.111,236.303C166.035,235.011 169.865,231.79 173.251,225.594C173.274,218.268 172.011,166.515 171.213,157.665C171.213,157.665 119.796,151.123 119.796,151.123L119.796,151.123C118.117,155.367 116.816,161.464 116.3,165.84C114.939,177.387 113.979,189.342 115.709,200.896C116.408,205.564 119.993,224.85 137.996,225.747C140.826,225.888 145.83,224.079 150.509,221.479C155.178,218.885 159.542,215.501 161.016,212.324C161.205,211.916 161.689,211.738 162.098,211.925C162.507,212.113 162.687,212.595 162.502,213.005L162.499,213.012Z"/>
        <g transform="matrix(-0.851399,0,0,0.851399,338.68,32.0459)">
            <path d="M261.29,146.94C262.489,140.777 203.885,145.299 203.57,151.337C203.57,151.337 204.767,166.586 202.841,174.185C202.24,176.553 200.873,180.747 198.299,181.765C195.575,182.841 185.008,188.244 184.836,187.456C179.049,160.977 184.002,128.156 212.202,123.113C251.475,116.09 262.408,145.166 261.29,146.94Z" style="fill:rgb(108,102,88);"/>
            <path d="M260.345,146.77C260.264,147.219 260.511,147.664 260.936,147.833C261.366,148.003 261.856,147.843 262.102,147.452C262.267,147.191 262.404,146.572 262.23,145.663C261.969,144.3 261.095,141.931 259.422,139.184C254.001,130.279 240.128,117.144 212.033,122.168C197.546,124.759 189.013,134.465 184.863,146.943C180.772,159.242 180.968,174.254 183.898,187.661C183.979,188.032 184.366,188.627 185.34,188.465C187.227,188.15 196.166,183.64 198.652,182.657C199.86,182.18 200.868,181.133 201.657,179.838C202.716,178.098 203.392,175.915 203.771,174.421C205.637,167.063 204.628,152.627 204.534,151.352C204.556,151.269 204.639,151.202 204.724,151.117C204.877,150.965 205.077,150.818 205.317,150.67C206.429,149.985 208.276,149.348 210.624,148.749C220.158,146.317 237.679,144.71 249.387,144.991C251.521,145.042 253.461,145.156 255.121,145.34C256.977,145.547 258.472,145.834 259.47,146.233C259.783,146.358 260.039,146.489 260.222,146.64C260.256,146.668 260.286,146.696 260.312,146.725C260.323,146.737 260.337,146.758 260.345,146.77ZM259.84,144.327C257.717,143.599 254.001,143.181 249.433,143.071C235.847,142.745 214.554,144.949 206.465,148.018C205.121,148.528 204.115,149.077 203.508,149.626C202.915,150.16 202.64,150.734 202.612,151.287C202.609,151.329 202.61,151.37 202.613,151.412C202.613,151.412 203.81,166.454 201.91,173.949C201.568,175.297 200.972,177.271 200.017,178.84C199.462,179.752 198.797,180.536 197.946,180.872C195.724,181.75 188.221,185.569 185.597,186.419C182.91,173.56 182.781,159.287 186.685,147.549C190.614,135.737 198.657,126.511 212.371,124.058C239.259,119.25 252.594,131.66 257.782,140.183C258.734,141.747 259.41,143.173 259.84,144.327Z"/>
        </g>
        <g id="ear" transform="matrix(-0.851399,0,0,0.851399,338.68,32.0459)">
            <path d="M201.227,182.666C199.018,181.493 196.483,180.54 194.058,179.964C188.005,178.528 181.22,183.156 182.734,189.94C184.056,195.861 188.991,199.229 194.919,199.386C197.071,199.443 199.481,198.938 201.324,197.778" style="fill:rgb(240,225,196);"/>
            <path d="M201.677,181.818C199.397,180.608 196.782,179.624 194.28,179.03C187.575,177.439 180.12,182.635 181.797,190.149C183.22,196.524 188.511,200.176 194.894,200.345C197.227,200.407 199.837,199.848 201.836,198.59C202.284,198.308 202.419,197.715 202.137,197.266C201.855,196.818 201.261,196.683 200.813,196.965C199.125,198.028 196.915,198.478 194.945,198.426C189.47,198.281 184.892,195.199 183.671,189.73C182.32,183.677 188.435,179.616 193.837,180.898C196.184,181.456 198.638,182.378 200.777,183.514C201.245,183.762 201.826,183.584 202.075,183.116C202.323,182.648 202.145,182.067 201.677,181.818Z"/>
        </g>
        <g id="nose" transform="matrix(1,0,0,1,20.3417,6.85287)">
            <path d="M114.355,180.802C113.888,186.595 102.911,189.396 114.355,194.276" style="fill:rgb(240,225,196);"/>
            <path d="M115.17,180.868C114.969,183.355 113.026,185.365 111.478,187.173C110.983,187.752 110.537,188.307 110.253,188.861C110.037,189.282 109.916,189.696 110.016,190.122C110.127,190.596 110.485,191.058 111.118,191.565C111.895,192.187 113.048,192.83 114.676,193.524C115.09,193.701 115.284,194.182 115.107,194.597C114.93,195.011 114.449,195.205 114.034,195.028C111.849,194.096 110.442,193.221 109.594,192.4C108.923,191.751 108.568,191.112 108.424,190.494C108.237,189.694 108.394,188.906 108.798,188.116C109.134,187.46 109.65,186.795 110.237,186.11C110.941,185.287 111.752,184.429 112.407,183.491C112.994,182.652 113.459,181.75 113.54,180.736C113.576,180.287 113.971,179.951 114.421,179.987C114.87,180.024 115.206,180.418 115.17,180.868Z"/>
        </g>
        <g id="blue_check_face" transform="matrix(1,0,0,1,0.851399,0)">
            <g transform="matrix(0.962505,-0.271262,0.271262,0.962505,-42.6272,43.368)">
                <path d="M127.056,166.564C121.551,164.597 118.044,167.232 121.076,170.202C123.267,172.347 131.397,173.795 131.987,173.158C134.222,170.747 128.86,167.209 127.056,166.564Z" style="fill:rgb(108,102,88);"/>
                <path d="M127.331,165.794C128.499,166.212 131.051,167.753 132.384,169.482C133.478,170.902 133.775,172.432 132.587,173.714C132.474,173.835 132.292,173.965 132.016,174.04C131.761,174.109 131.34,174.143 130.798,174.118C129.274,174.047 126.593,173.55 124.301,172.776C122.688,172.232 121.27,171.536 120.504,170.786C118.894,169.209 118.843,167.663 119.625,166.59C120.075,165.973 120.854,165.475 121.917,165.233C123.284,164.921 125.167,165.021 127.331,165.794ZM131.501,172.464C131.939,171.848 131.604,171.148 131.089,170.48C129.952,169.006 127.777,167.69 126.781,167.334C124.794,166.624 123.099,166.544 121.952,166.917C121.332,167.118 120.885,167.432 120.791,167.897C120.688,168.407 120.999,168.983 121.648,169.618C122.199,170.157 123.179,170.629 124.3,171.043C126.115,171.712 128.299,172.196 129.886,172.395C130.529,172.476 131.253,172.469 131.501,172.464Z"/>
            </g>
            <g transform="matrix(-0.902456,-0.430783,-0.430783,0.902456,337.863,76.2365)">
                <path d="M127.056,166.564C121.551,164.597 118.044,167.232 121.076,170.202C123.267,172.347 131.397,173.795 131.987,173.158C134.222,170.747 128.86,167.209 127.056,166.564Z" style="fill:rgb(108,102,88);"/>
                <path d="M127.331,165.794C125.167,165.021 123.284,164.921 121.917,165.233C120.854,165.475 120.075,165.973 119.625,166.59C118.843,167.663 118.894,169.209 120.504,170.786C121.27,171.536 122.688,172.232 124.301,172.776C126.593,173.55 129.274,174.047 130.798,174.118C131.34,174.143 131.761,174.109 132.016,174.04C132.292,173.965 132.474,173.835 132.587,173.714C133.775,172.432 133.478,170.902 132.384,169.482C131.051,167.753 128.499,166.212 127.331,165.794L127.331,165.794ZM131.501,172.464C131.253,172.469 130.529,172.476 129.886,172.395C128.299,172.196 126.115,171.712 124.3,171.043C123.179,170.629 122.199,170.157 121.648,169.618C120.999,168.983 120.688,168.407 120.791,167.897C120.885,167.432 121.332,167.118 121.952,166.917C123.099,166.544 124.794,166.624 126.781,167.334C127.777,167.69 129.952,169.006 131.089,170.48C131.604,171.148 131.939,171.848 131.501,172.464Z"/>
            </g>
            <g transform="matrix(-1.25663,0.475066,-0.475066,-1.25663,363.515,349.706)">
                <path d="M121.271,175.721C119.78,175.33 116.376,176.901 118.873,179.83C120.384,181.603 126.209,184.091 127.596,182.767C131.291,179.238 122.762,176.111 121.271,175.721Z" style="fill:white;"/>
                <path d="M121.425,175.132C122.359,175.377 125.933,176.658 127.813,178.432C128.685,179.255 129.196,180.193 129.116,181.164C129.061,181.82 128.742,182.513 128.016,183.207C127.499,183.7 126.499,183.858 125.284,183.651C122.87,183.24 119.528,181.536 118.41,180.225C117.502,179.16 117.284,178.227 117.408,177.478C117.559,176.561 118.238,175.863 119.072,175.458C119.868,175.072 120.791,174.966 121.425,175.132ZM121.117,176.309C120.707,176.202 120.117,176.304 119.603,176.553C119.125,176.785 118.695,177.151 118.608,177.676C118.528,178.164 118.745,178.742 119.336,179.435C120.333,180.606 123.335,182.085 125.488,182.452C125.914,182.524 126.305,182.553 126.634,182.516C126.86,182.491 127.051,182.445 127.175,182.327C127.632,181.891 127.869,181.476 127.903,181.063C127.956,180.43 127.547,179.854 126.977,179.317C125.255,177.691 121.972,176.533 121.117,176.309Z"/>
            </g>
            <g transform="matrix(1.32314,0,0,1.32314,-21.8823,-58.692)">
                <circle cx="112.954" cy="182.309" r="2.606"/>
            </g>
            <g transform="matrix(-0.851399,0,0,0.851399,338.68,32.0459)">
                <path d="M247.622,204.55C244.086,205.864 234.143,207.472 226.857,205.958" style="fill:none;stroke:black;stroke-width:2px;"/>
            </g>
            <g transform="matrix(-1.25663,0.475066,-0.475066,-1.25663,389.234,351.829)">
                <path d="M121.864,175.945C118.122,174.882 116.376,176.901 118.873,179.83C120.384,181.603 126.209,184.091 127.596,182.767C131.291,179.238 122.391,175.439 121.864,175.945Z" style="fill:white;"/>
                <path d="M121.853,175.311C121.952,175.293 122.065,175.286 122.194,175.298C122.792,175.351 124.138,175.821 125.475,176.583C126.728,177.297 127.968,178.265 128.608,179.327C128.977,179.94 129.156,180.587 129.084,181.243C129.012,181.889 128.697,182.557 128.016,183.207C127.499,183.7 126.499,183.858 125.284,183.651C122.87,183.24 119.528,181.536 118.41,180.225C116.894,178.447 116.835,176.906 117.554,176.01C118.229,175.169 119.753,174.76 121.853,175.311ZM122.084,176.512C121.963,176.559 121.827,176.567 121.697,176.53C120.858,176.292 120.13,176.218 119.546,176.295C119.079,176.356 118.716,176.507 118.503,176.772C118.313,177.009 118.272,177.331 118.355,177.707C118.467,178.216 118.792,178.798 119.336,179.435C120.333,180.606 123.335,182.085 125.488,182.452C125.914,182.524 126.305,182.553 126.634,182.516C126.86,182.491 127.051,182.445 127.175,182.327C127.587,181.933 127.813,181.545 127.869,181.153C127.954,180.557 127.654,179.989 127.204,179.457C126.609,178.756 125.739,178.134 124.872,177.64C124.078,177.187 123.284,176.843 122.69,176.654C122.448,176.577 122.175,176.527 122.084,176.512Z"/>
            </g>
            <g transform="matrix(1.32314,0,0,1.32314,3.83665,-56.5687)">
                <circle cx="112.954" cy="182.309" r="2.606"/>
            </g>
        </g>
        <g id="body">
            <path d="M121.053,273.913C120.21,280.372 120.583,286.482 120.436,292.963C120.336,297.404 120.153,299.315 120.28,303.755M192.154,275.003C192.422,281.213 193.661,287.506 194.525,293.641C195.307,299.192 196.052,298.245 197.086,303.755M174.993,225.15C185.728,226.244 196.617,232.915 201.9,242.247C211.639,259.447 214.239,277.946 214.668,297.485C214.802,303.556 213.91,297.73 214.668,303.755C214.668,303.755 211.621,314.592 100.878,300.4C99.755,292.906 100.915,266.554 102.554,261.605C109.018,242.092 126.87,230.634 137.67,228.419L137.895,228.673C140.748,232.806 145.829,234.489 150.596,234.889C158.603,235.561 168.993,232.972 173.938,226.099L174.993,225.15Z" style="fill:rgb(39,134,152);"/>
            <path d="M215.19,301.032C215.218,301.369 215.296,302.199 215.479,303.653C215.493,303.761 215.485,303.871 215.455,303.976C215.455,303.976 215.367,304.676 213.852,305.489C212.729,306.091 210.615,306.86 206.631,307.469C196.348,309.041 173.185,309.619 121.095,303.678L121.097,303.732C121.11,304.182 120.754,304.559 120.303,304.572C119.852,304.585 119.476,304.229 119.463,303.778L119.455,303.49C113.59,302.814 107.373,302.057 100.774,301.211C100.411,301.165 100.123,300.883 100.069,300.522C98.935,292.953 100.123,266.345 101.778,261.348C108.351,241.505 126.522,229.871 137.506,227.618L137.67,229.236C137.67,229.236 138.283,227.878 138.283,227.878C138.283,227.878 138.305,227.903 138.507,228.131C138.528,228.156 138.549,228.181 138.567,228.208C141.28,232.138 146.132,233.694 150.664,234.074C158.413,234.725 168.489,232.273 173.274,225.621C173.309,225.574 173.348,225.53 173.391,225.491L174.447,224.542C174.618,224.388 174.846,224.314 175.076,224.337C186.063,225.456 197.203,232.293 202.611,241.844C212.418,259.165 215.053,277.79 215.485,297.467C215.528,299.413 215.458,300.214 215.381,300.557C215.329,300.788 215.258,300.933 215.19,301.032ZM137.354,229.324C140.37,233.526 145.599,235.289 150.527,235.703C158.765,236.395 169.425,233.689 174.549,226.648L175.268,226.002L175.269,226.002C185.634,227.18 196.089,233.642 201.189,242.649C210.859,259.728 213.425,278.101 213.851,297.503C213.885,299.026 213.822,299.844 213.796,300.109L213.792,300.113C213.703,300.211 213.586,300.355 213.551,300.678C213.527,300.904 213.57,301.547 213.818,303.535C213.667,303.673 213.336,303.936 212.762,304.208C211.649,304.735 209.718,305.344 206.384,305.853C196.135,307.42 173.036,307.969 121.061,302.029C121.019,298.734 121.167,296.794 121.253,292.982C121.4,286.53 121.024,280.448 121.863,274.019C121.922,273.572 121.606,273.161 121.159,273.103C120.711,273.044 120.301,273.36 120.242,273.807C119.395,280.296 119.767,286.434 119.619,292.945C119.534,296.701 119.391,298.654 119.424,301.841C113.82,301.194 107.887,300.472 101.604,299.669C100.633,291.527 101.749,266.636 103.33,261.862C109.59,242.965 126.697,231.735 137.354,229.324ZM192.971,274.968C193.237,281.152 194.474,287.418 195.334,293.527C196.113,299.058 196.859,298.114 197.89,303.604C197.973,304.047 197.68,304.475 197.237,304.558C196.794,304.641 196.366,304.349 196.283,303.906C195.245,298.376 194.5,299.326 193.716,293.755C192.848,287.594 191.606,281.275 191.338,275.038C191.318,274.587 191.668,274.206 192.119,274.186C192.57,274.167 192.951,274.517 192.971,274.968Z"/>
        </g>
    </g>
    <g id="pink_check" transform="matrix(-1.13326,0,0,1,232.191,-5.63082)">
        <g transform="matrix(0.706935,0,0,0.921532,37.8195,43.2666)">
            <path d="M150.012,134.546C129.953,150.758 131.299,193.638 132.979,205.274C137.133,234.046 155.171,239.218 173.576,223.608C181.331,217.031 189.216,204.431 190.271,165.762L150.012,134.546Z" style="fill:rgb(240,225,196);"/>
            <path d="M149.196,133.783C149.649,133.417 150.348,133.411 150.809,133.769L191.068,164.985C191.331,165.188 191.477,165.482 191.469,165.787C190.4,204.959 182.269,217.691 174.413,224.354C164.754,232.546 155.125,235.114 147.432,232.03C139.849,228.99 133.939,220.286 131.79,205.404C130.774,198.368 129.877,179.997 133.691,162.896C136.265,151.353 141.008,140.401 149.196,133.783ZM150.043,135.967C142.67,142.374 138.431,152.587 136.043,163.293C132.289,180.129 133.167,198.217 134.168,205.144C136.173,219.034 141.359,227.301 148.435,230.138C155.401,232.931 163.994,230.28 172.74,222.863C180.362,216.399 187.968,204.008 189.059,166.219C189.059,166.219 150.043,135.967 150.043,135.967L150.043,135.967Z"/>
        </g>
        <g transform="matrix(1.0519,0,0,1.13346,-13.8331,-32.0488)">
            <path d="M192.154,275.003C192.422,281.213 193.661,287.506 194.525,293.641C195.307,299.192 196.052,298.245 197.086,303.755M174.993,225.15C185.728,226.244 196.617,232.915 201.9,242.247C211.639,259.447 214.239,277.946 214.668,297.485C214.802,303.556 213.91,297.73 214.668,303.755C214.668,303.755 229.134,317.946 118.391,303.755C116.347,274.16 126.229,231.014 137.67,228.419L137.895,228.673C140.748,232.806 145.829,234.489 150.596,234.889C158.603,235.561 168.993,232.972 173.938,226.099L174.993,225.15Z" style="fill:rgb(224,129,138);"/>
            <path d="M215.179,301.051C215.207,301.373 215.278,302.12 215.436,303.397C215.757,303.828 216.29,304.749 216.015,305.836C215.801,306.684 215.067,307.745 212.972,308.628C210.342,309.737 205.289,310.702 195.843,310.88C181.893,311.142 158.218,309.712 118.293,304.596C117.911,304.547 117.615,304.22 117.587,303.816C116.148,282.965 120.597,255.431 127.341,239.891C129.111,235.813 131.047,232.55 133.066,230.415C134.502,228.895 135.995,227.933 137.501,227.591L137.67,229.266C137.67,229.266 138.26,227.843 138.26,227.843C138.26,227.843 138.283,227.868 138.484,228.096C138.506,228.121 138.527,228.147 138.546,228.175C141.263,232.111 146.122,233.664 150.66,234.045C158.418,234.696 168.505,232.247 173.296,225.587C173.331,225.539 173.371,225.494 173.415,225.455L174.47,224.506C174.636,224.357 174.853,224.285 175.071,224.307C186.054,225.426 197.186,232.266 202.592,241.813C212.404,259.143 215.041,277.778 215.473,297.465C215.516,299.422 215.445,300.228 215.367,300.573C215.316,300.802 215.246,300.949 215.179,301.051ZM137.387,229.374C136.305,229.737 135.247,230.51 134.208,231.609C132.296,233.631 130.483,236.733 128.807,240.594C122.224,255.761 117.871,282.504 119.148,302.998C158.559,308.032 181.981,309.446 195.814,309.186C204.942,309.015 209.831,308.127 212.373,307.056C213.728,306.485 214.32,305.949 214.459,305.401C214.606,304.82 214.119,304.374 214.119,304.374C213.982,304.24 213.894,304.061 213.87,303.866C213.586,301.613 213.538,300.909 213.563,300.67C213.599,300.338 213.716,300.188 213.808,300.085C213.832,299.797 213.893,298.882 213.863,297.504C213.437,278.113 210.873,259.75 201.208,242.68C196.103,233.663 185.631,227.202 175.255,226.03L175.254,226.03L174.526,226.684C169.407,233.716 158.76,236.424 150.532,235.733C145.616,235.32 140.402,233.559 137.387,229.374ZM192.959,274.965C193.225,281.147 194.462,287.41 195.322,293.517C196.101,299.047 196.846,298.102 197.876,303.591C197.962,304.049 197.678,304.495 197.242,304.586C196.806,304.676 196.382,304.377 196.296,303.919C195.258,298.388 194.513,299.338 193.728,293.765C192.861,287.602 191.618,281.28 191.35,275.041C191.33,274.574 191.674,274.178 192.118,274.157C192.562,274.136 192.939,274.498 192.959,274.965Z"/>
        </g>
        <g id="check_hand" transform="matrix(1,0,0,1,-4.52856,10.9331)">
            <g transform="matrix(-0.882408,0,0,1,194.804,10.2009)">
                <path d="M66.162,206.993C67.127,205.13 66.993,203.403 66.993,203.403C85.317,202.791 138.169,172.883 138.169,172.883C135.458,173.604 146.454,196.088 150.83,194.428C151.756,194.076 94.523,231.729 80.965,233.292" style="fill:rgb(224,129,138);"/>
                <path d="M137.4,172.214C134.482,173.853 110.496,187.232 90.082,195.653C80.859,199.458 72.382,202.262 66.961,202.443C66.699,202.452 66.453,202.568 66.278,202.763C66.103,202.958 66.016,203.216 66.036,203.477C66.036,203.477 66.137,204.954 65.309,206.551C65.066,207.022 65.249,207.601 65.72,207.845C66.19,208.089 66.77,207.905 67.014,207.435C67.635,206.237 67.853,205.088 67.926,204.312C73.515,203.877 81.827,201.136 90.814,197.428C109.287,189.808 130.673,178.146 136.874,174.706C137.035,175.708 137.417,177.025 137.984,178.511C139.831,183.347 143.559,190.137 146.696,193.373C147.32,194.016 147.93,194.525 148.502,194.877C141.741,199.392 117.328,215.115 99.047,224.742C91.164,228.894 84.452,231.924 80.855,232.339C80.329,232.399 79.951,232.876 80.011,233.402C80.072,233.929 80.549,234.307 81.075,234.246C84.8,233.817 91.777,230.741 99.942,226.441C118.698,216.564 143.887,200.292 150,196.185C150.838,195.622 151.336,195.27 151.444,195.178C151.589,195.055 151.65,194.947 151.676,194.9C151.934,194.443 151.774,194.096 151.641,193.895C151.551,193.76 151.195,193.262 150.489,193.53C150.256,193.619 149.997,193.51 149.702,193.355C149.194,193.089 148.649,192.628 148.075,192.036C145.078,188.946 141.542,182.445 139.778,177.826C139.275,176.509 138.917,175.35 138.771,174.477C138.722,174.185 138.721,173.835 138.725,173.665C139.085,173.41 139.228,172.937 139.058,172.52C138.875,172.073 138.389,171.831 137.922,171.955C137.733,172.006 137.556,172.09 137.4,172.214ZM151.118,195.344C151.135,195.338 151.153,195.332 151.171,195.325L151.118,195.344Z"/>
            </g>
            <g transform="matrix(-0.882408,0,0,1,193.75,7.95638)">
                <path d="M160.688,166.202C163.596,164.296 168.437,159.775 169.89,156.526C170.749,154.604 169.532,152.097 167.228,152.264C165.315,152.402 163.787,154.206 162.494,155.405C160.551,157.208 158.925,159.102 156.559,160.392C154.193,161.683 150.901,162.543 149.06,164.557" style="fill:rgb(240,225,196);"/>
                <path d="M161.214,167.005C164.24,165.022 169.255,160.298 170.766,156.918C171.907,154.366 170.217,151.085 167.159,151.306C166.226,151.373 165.362,151.75 164.568,152.29C163.55,152.982 162.649,153.952 161.841,154.702C159.957,156.449 158.393,158.299 156.1,159.549C154.933,160.186 153.538,160.714 152.208,161.333C150.74,162.017 149.353,162.814 148.352,163.91C147.994,164.301 148.022,164.909 148.413,165.266C148.804,165.624 149.412,165.596 149.769,165.205C150.608,164.286 151.788,163.646 153.018,163.074C154.386,162.437 155.819,161.889 157.019,161.235C159.457,159.905 161.144,157.967 163.147,156.109C163.777,155.525 164.461,154.792 165.224,154.19C165.852,153.694 166.529,153.277 167.297,153.221C168.847,153.109 169.592,154.841 169.013,156.134C167.619,159.251 162.952,163.57 160.161,165.399C159.718,165.69 159.594,166.285 159.885,166.729C160.175,167.172 160.771,167.296 161.214,167.005Z"/>
                <path d="M149.59,196.688C160.168,193.156 174.946,181.999 164.652,171.819C163.501,170.682 159.023,168.655 159.023,168.655C161.943,170.054 165.303,168.609 164.652,167.323C161.996,162.078 152.695,162.399 147.102,165.576C141.971,168.49 137.25,172.236 136.535,176.93C135.98,180.573 145.181,198.161 149.59,196.688Z" style="fill:rgb(240,225,196);"/>
                <path d="M163.512,169.881C164.075,169.704 164.548,169.46 164.884,169.184C165.702,168.513 165.902,167.666 165.508,166.889C164.316,164.533 161.957,163.135 159.121,162.585C155.121,161.808 150.17,162.729 146.628,164.741C141.223,167.811 136.34,171.84 135.586,176.785C135.455,177.642 135.756,179.198 136.438,181.09C137.893,185.122 140.996,190.876 143.991,194.382C145.168,195.76 146.344,196.796 147.398,197.314C148.301,197.758 149.149,197.848 149.894,197.599C155.336,195.782 161.85,191.992 165.688,187.359C168.112,184.433 169.471,181.165 169.005,177.842C168.692,175.618 167.565,173.351 165.327,171.137C164.963,170.777 164.284,170.33 163.512,169.881ZM163.728,167.628C162.774,165.869 160.919,164.889 158.755,164.469C155.176,163.775 150.746,164.61 147.576,166.41C145.086,167.825 142.692,169.436 140.837,171.268C139.084,173 137.812,174.921 137.484,177.074C137.382,177.748 137.708,178.951 138.244,180.438C139.633,184.289 142.591,189.787 145.451,193.135C146.275,194.1 147.085,194.882 147.846,195.365C148.381,195.705 148.858,195.921 149.286,195.778L149.286,195.778C154.423,194.063 160.586,190.508 164.209,186.134C166.261,183.657 167.498,180.922 167.103,178.109C166.841,176.243 165.856,174.36 163.977,172.502C163.038,171.574 159.75,170.04 158.854,169.632C158.772,169.597 158.69,169.559 158.608,169.52C158.134,169.293 157.931,168.726 158.153,168.249C158.375,167.772 158.94,167.563 159.419,167.78L159.438,167.789L159.438,167.789C160.879,168.479 162.449,168.353 163.36,167.893C163.495,167.825 163.647,167.699 163.728,167.628Z"/>
                <path d="M151.7,170.341C151.583,170.423 151.472,170.506 151.369,170.591C149.634,172.017 147.51,175.174 147.296,177.291C147.195,178.291 147.471,179.107 148.108,179.643C148.661,180.108 149.572,180.401 150.982,180.216C151.077,180.204 151.173,180.188 151.27,180.167C150.483,181.657 150.418,182.99 151.197,184.082C151.908,185.08 153.001,185.388 154.358,185.089C154.964,184.956 155.638,184.682 156.348,184.31C156.33,184.351 156.313,184.391 156.297,184.43C155.73,185.784 155.842,186.837 156.32,187.527C156.806,188.23 157.751,188.685 159.177,188.59C160.752,188.486 163.064,187.698 165.937,186.02C166.394,185.752 166.549,185.164 166.281,184.706C166.014,184.249 165.426,184.094 164.968,184.362C162.444,185.837 160.433,186.583 159.05,186.675C158.76,186.694 158.506,186.683 158.289,186.635C158.118,186.596 157.976,186.547 157.898,186.435C157.837,186.345 157.826,186.228 157.829,186.094C157.837,185.827 157.922,185.52 158.068,185.172C158.632,183.825 160.043,182.047 162.394,179.933C162.785,179.582 162.821,178.981 162.474,178.586C162.127,178.191 161.527,178.148 161.128,178.49C159.141,180.191 156.722,182.143 154.761,182.95C154.326,183.128 153.921,183.249 153.556,183.272C153.229,183.293 152.946,183.228 152.761,182.968C152.318,182.347 152.627,181.605 153.15,180.741C153.722,179.797 154.603,178.772 155.635,177.69C157.469,176.134 158.907,174.404 158.907,174.404C159.235,174.01 159.195,173.428 158.817,173.082C158.439,172.736 157.856,172.748 157.492,173.11C156.417,174.18 155.347,175.227 154.387,176.23C154.312,176.294 154.236,176.357 154.16,176.42C153.053,177.329 151.824,178.169 150.732,178.313C150.33,178.365 149.997,178.37 149.724,178.321C149.518,178.284 149.363,178.23 149.282,178.103C149.204,177.979 149.192,177.82 149.196,177.645C149.203,177.348 149.279,177.017 149.396,176.667C149.946,175.024 151.39,173.058 152.588,172.074C154.473,170.525 159.215,169.595 159.215,169.595C159.633,169.51 159.945,169.159 159.98,168.734C160.015,168.308 159.765,167.911 159.367,167.758C157.167,166.914 155.835,167.377 151.726,168.496C151.215,168.635 150.913,169.163 151.052,169.675C151.142,170.005 151.395,170.248 151.7,170.341Z"/>
            </g>
        </g>
        <g transform="matrix(1.12265,0,0,1.09988,-23.8588,-25.611)">
            <path d="M150.012,134.546C129.953,150.758 133.401,193.487 132.979,205.274C131.85,236.811 156.509,241.339 174.914,225.729C182.669,219.152 189.216,204.431 190.271,165.762L150.012,134.546Z" style="fill:rgb(240,225,196);"/>
            <path d="M149.58,133.831C149.835,133.624 150.173,133.621 150.432,133.821L190.691,165.037C190.907,165.205 191.033,165.489 191.025,165.79C189.958,204.922 183.209,219.777 175.361,226.433C164.032,236.041 150.383,238.11 141.535,231.321C135.605,226.772 131.759,218.246 132.225,205.238C132.479,198.139 131.344,179.859 134.737,162.855C137.033,151.349 141.405,140.438 149.58,133.831ZM150.025,135.607C142.424,142.001 138.379,152.366 136.208,163.248C132.84,180.122 133.985,198.265 133.733,205.31C133.295,217.531 136.798,225.592 142.369,229.866C150.771,236.313 163.711,234.149 174.468,225.025C182.098,218.555 188.421,204.063 189.503,166.218C189.503,166.218 150.025,135.607 150.025,135.607L150.025,135.607Z"/>
        </g>
        <g>
            <g transform="matrix(-0.882408,0,0,1,193.75,7.95638)">
                <path d="M64.013,197.456C60.799,195.251 46.032,199.494 42.75,201.246C38.781,203.365 41.77,208.403 44.677,209.432C61.248,215.298 69.859,201.466 64.013,197.456Z" style="fill:rgb(134,69,70);stroke:black;stroke-width:2px;"/>
            </g>
            <g transform="matrix(-0.882408,0,0,1,193.75,7.95638)">
                <path d="M56.342,209.948C62.058,207.877 50.812,197.696 42.75,201.246C38.633,203.059 41.77,208.403 44.677,209.432C49.085,210.993 53.094,211.125 56.342,209.948Z" style="fill:rgb(159,123,127);stroke:black;stroke-width:2px;"/>
            </g>
        </g>
        <g transform="matrix(-0.882408,0,0,1,194.466,0.0746234)">
            <path d="M11.57,199.456C17.979,194.892 20.086,186.592 17.908,179.287C17.122,176.652 16.104,174.01 14.763,171.603C14.684,171.462 13.355,169.508 13.4,169.442C14.989,167.114 17.223,165.863 18.499,163.032C20.241,159.166 20.023,154.809 21.476,151.053C21.527,150.921 23.993,151.414 24.244,151.447C26.123,151.692 27.983,152.048 29.867,152.26C30.55,152.337 31.234,152.402 31.918,152.455C38.172,152.938 42.973,150.785 48.914,149.24C59.89,146.385 72.691,145.057 80.832,136.124C83.836,132.826 86.019,128.309 86.244,126.024C87.024,118.107 81.635,120.324 79.559,122.406C84.887,116.262 82.775,109.042 72.556,113.507C74.384,102.014 55.998,107.286 49.997,113.507C38.328,125.602 24.293,122.266 11.57,127.941C-2.054,134.018 -3.794,149.512 -3.785,155.634C-3.778,160.266 -3.6,164.852 -3.377,169.479C-3.143,174.338 -2.625,179.076 -2.169,183.901C-1.96,186.116 -2.108,188.704 -0.938,190.689C0.521,193.163 3.005,194.554 5.283,196.159C6.465,196.992 8.111,198.54 9.549,199.013" style="fill:rgb(207,178,59);"/>
            <path d="M14.549,169.495C15.234,168.606 16.013,167.871 16.761,167.09C17.749,166.057 18.687,164.952 19.374,163.427C20.279,161.418 20.684,159.284 21.042,157.161C21.335,155.428 21.595,153.703 22.129,152.078C22.825,152.192 23.973,152.379 24.12,152.399C26.004,152.645 27.87,153.001 29.76,153.214C30.453,153.292 31.148,153.359 31.845,153.412C38.212,153.903 43.106,151.742 49.155,150.169C54.661,148.737 60.624,147.686 66.231,145.875C71.98,144.018 77.355,141.364 81.541,136.77C84.704,133.299 86.962,128.524 87.199,126.118C87.57,122.354 86.543,120.581 85.289,119.89C84.477,119.443 83.498,119.389 82.504,119.63C82.905,118.744 83.162,117.878 83.278,117.066C83.472,115.704 83.274,114.479 82.723,113.506C82.016,112.254 80.728,111.374 78.8,111.194C77.439,111.067 75.72,111.301 73.643,112.042C73.653,110.207 73.1,108.838 72.196,107.849C71.055,106.6 69.3,105.934 67.197,105.793C61.48,105.41 53.065,108.944 49.306,112.84C43.627,118.727 37.363,120.842 30.98,122.192C24.357,123.593 17.604,124.198 11.179,127.064C-2.894,133.341 -4.754,149.312 -4.745,155.635C-4.738,160.283 -4.559,164.883 -4.336,169.525C-4.102,174.399 -3.582,179.151 -3.125,183.992C-2.903,186.339 -3.005,189.072 -1.765,191.176C-0.235,193.771 2.341,195.26 4.73,196.944C5.977,197.822 7.733,199.426 9.249,199.925C9.753,200.09 10.296,199.816 10.461,199.312C10.627,198.809 10.352,198.266 9.849,198.101C8.49,197.654 6.953,196.161 5.836,195.374C3.668,193.847 1.277,192.556 -0.111,190.201C-1.211,188.335 -1.017,185.893 -1.213,183.811C-1.668,179 -2.185,174.277 -2.418,169.433C-2.64,164.821 -2.818,160.25 -2.825,155.632C-2.833,149.712 -1.214,134.694 11.961,128.818C18.259,126.008 24.885,125.444 31.377,124.071C38.11,122.647 44.698,120.382 50.688,114.173C54.131,110.605 61.833,107.358 67.069,107.708C68.617,107.812 69.939,108.225 70.779,109.144C71.609,110.052 71.914,111.43 71.608,113.356C71.553,113.703 71.691,114.052 71.969,114.266C72.246,114.481 72.619,114.527 72.94,114.387C75.301,113.355 77.187,112.972 78.621,113.106C79.797,113.216 80.62,113.687 81.052,114.451C81.413,115.09 81.505,115.901 81.377,116.795C81.157,118.338 80.291,120.097 78.833,121.777C78.495,122.168 78.526,122.757 78.905,123.109C79.284,123.461 79.873,123.45 80.238,123.084C80.881,122.44 81.89,121.775 82.89,121.513C83.414,121.375 83.935,121.337 84.363,121.572C84.707,121.762 84.959,122.131 85.13,122.689C85.364,123.455 85.428,124.511 85.289,125.93C85.075,128.095 82.969,132.353 80.122,135.477C76.168,139.817 71.072,142.294 65.641,144.048C60.069,145.848 54.143,146.888 48.672,148.311C42.839,149.827 38.132,151.972 31.992,151.498C31.319,151.446 30.646,151.381 29.975,151.306C28.096,151.094 26.242,150.74 24.369,150.495C24.129,150.463 21.987,150.054 21.522,150.072C20.878,150.096 20.648,150.532 20.58,150.707C19.831,152.644 19.505,154.735 19.149,156.842C18.818,158.803 18.46,160.781 17.624,162.638C17.036,163.943 16.219,164.879 15.374,165.762C14.421,166.757 13.433,167.691 12.607,168.901C12.546,168.99 12.291,169.392 12.567,169.944C12.753,170.316 13.852,171.941 13.924,172.07C15.231,174.417 16.222,176.993 16.988,179.562C19.051,186.48 17.084,194.351 11.013,198.674C10.581,198.982 10.481,199.582 10.788,200.013C11.095,200.445 11.695,200.546 12.127,200.238C18.875,195.433 21.121,186.703 18.828,179.013C18.022,176.311 16.976,173.604 15.602,171.136C15.553,171.048 14.92,170.067 14.549,169.495Z"/>
        </g>
        <g transform="matrix(1.00016,0,0,1.97876,-118.481,-136.354)">
            <path d="M249.688,126.158C250.707,127.94 251.588,128.358 253.053,129.371C253.352,129.577 253.302,129.883 252.942,130.054C252.582,130.225 252.047,130.196 251.749,129.99C250.142,128.879 249.196,128.415 248.078,126.461C247.933,126.206 248.175,125.932 248.619,125.849C249.063,125.765 249.542,125.904 249.688,126.158Z"/>
        </g>
        <g id="ear1" serif:id="ear" transform="matrix(-0.878736,-0.0911362,-0.089463,1.10783,372.413,5.79542)">
            <path d="M201.227,182.666C199.018,181.493 196.483,180.54 194.058,179.964C188.005,178.528 181.22,183.156 182.734,189.94C184.056,195.861 188.991,199.229 194.919,199.386C197.071,199.443 199.481,198.938 201.324,197.778" style="fill:rgb(240,225,196);"/>
            <path d="M201.715,181.923C199.431,180.71 196.811,179.725 194.303,179.13C187.628,177.546 180.123,182.629 181.793,190.109C183.213,196.471 188.522,200.08 194.891,200.248C197.238,200.311 199.864,199.75 201.875,198.485C202.309,198.211 202.415,197.673 202.111,197.283C201.807,196.893 201.208,196.798 200.774,197.071C199.098,198.126 196.904,198.575 194.947,198.523C189.459,198.378 184.899,195.252 183.675,189.77C182.317,183.683 188.382,179.51 193.813,180.799C196.156,181.355 198.604,182.276 200.739,183.409C201.195,183.651 201.784,183.515 202.053,183.105C202.323,182.695 202.171,182.165 201.715,181.923Z"/>
        </g>
        <g transform="matrix(0.991973,0.12645,-0.12645,0.991973,59.4867,-8.60857)">
            <path d="M114.355,178.53C113.888,184.323 103.226,194.677 114.355,194.276" style="fill:rgb(240,225,196);"/>
            <path d="M115.2,178.647C115.099,179.907 114.572,181.374 113.861,182.897C112.888,184.985 111.574,187.205 110.779,189.149C110.483,189.874 110.261,190.553 110.181,191.165C110.124,191.601 110.133,191.991 110.309,192.309C110.494,192.642 110.844,192.863 111.356,193.033C112.064,193.268 113.027,193.364 114.301,193.318C114.769,193.301 115.173,193.717 115.202,194.245C115.232,194.774 114.876,195.217 114.409,195.234C112.575,195.3 111.282,195.075 110.406,194.666C109.673,194.323 109.187,193.845 108.879,193.29C108.565,192.725 108.429,192.066 108.458,191.328C108.493,190.439 108.782,189.407 109.233,188.302C110.038,186.331 111.367,184.079 112.353,181.964C112.949,180.686 113.424,179.471 113.509,178.414C113.552,177.889 113.965,177.515 114.432,177.579C114.898,177.643 115.243,178.122 115.2,178.647Z"/>
        </g>
        <g transform="matrix(0.738485,0.764125,0.594981,-0.738485,-27.6512,199.383)">
            <path d="M127.056,166.564C121.551,164.597 118.044,167.232 121.076,170.202C123.267,172.347 131.397,173.795 131.987,173.158C134.222,170.747 128.86,167.209 127.056,166.564Z" style="fill:rgb(207,178,59);"/>
            <path d="M127.311,165.649C124.909,164.79 122.854,164.766 121.466,165.217C120.143,165.646 119.365,166.528 119.164,167.52C118.968,168.491 119.288,169.72 120.522,170.928C121.288,171.678 122.708,172.377 124.32,172.922C126.607,173.694 129.281,174.19 130.802,174.261C131.334,174.285 131.748,174.252 131.999,174.184C132.275,174.11 132.459,173.975 132.571,173.854C133.118,173.264 133.347,172.62 133.369,171.967C133.397,171.115 133.031,170.201 132.374,169.35C131.038,167.616 128.482,166.067 127.311,165.649L127.311,165.649ZM131.516,172.319C131.264,172.325 130.53,172.334 129.877,172.252C128.287,172.052 126.098,171.568 124.28,170.897C123.159,170.483 122.181,170.015 121.63,169.475C121.042,168.899 120.722,168.412 120.816,167.949C120.865,167.705 121.049,167.521 121.291,167.361C122.347,166.663 124.351,166.604 126.801,167.48L126.801,167.48C127.636,167.778 129.29,168.752 130.481,169.923C130.913,170.349 131.284,170.796 131.506,171.254C131.682,171.617 131.732,171.986 131.516,172.319Z"/>
        </g>
        <g transform="matrix(-0.924827,0.431079,-0.335657,-0.924827,309.881,267.718)">
            <path d="M127.056,166.564C121.551,164.597 118.044,167.232 121.076,170.202C123.267,172.347 131.397,173.795 131.987,173.158C134.222,170.747 128.86,167.209 127.056,166.564Z" style="fill:rgb(207,178,59);"/>
            <path d="M127.311,165.649C128.482,166.067 131.038,167.616 132.374,169.35C133.031,170.201 133.397,171.115 133.369,171.967C133.347,172.62 133.118,173.264 132.571,173.854C132.459,173.975 132.275,174.11 131.999,174.184C131.748,174.252 131.334,174.285 130.802,174.261C129.281,174.19 126.607,173.694 124.32,172.922C122.708,172.377 121.288,171.678 120.522,170.928C119.288,169.72 118.968,168.491 119.164,167.52C119.365,166.528 120.143,165.646 121.466,165.217C122.854,164.766 124.909,164.79 127.311,165.649ZM131.516,172.319C131.872,171.786 131.544,171.19 131.098,170.613C129.965,169.143 127.795,167.835 126.801,167.48C124.351,166.604 122.347,166.663 121.291,167.361C121.049,167.521 120.865,167.705 120.816,167.949C120.722,168.412 121.042,168.899 121.63,169.475C122.181,170.015 123.159,170.483 124.28,170.897C126.098,171.568 128.287,172.052 129.877,172.252C130.53,172.334 131.266,172.325 131.516,172.319Z"/>
        </g>
        <g transform="matrix(1.06768,-0.0957895,0.0947168,1.05573,-11.061,3.23301)">
            <path d="M120.491,173.075C114.808,173.058 113.808,178.233 118.649,180.423C119.873,180.977 122.201,182.12 124.301,182.338C125.681,182.481 126.955,182.244 127.731,181.238C130.795,177.263 125.892,173.091 120.491,173.075Z" style="fill:white;"/>
            <path d="M120.511,172.17C124.032,172.18 127.334,173.88 128.712,176.12C129.764,177.83 129.844,179.849 128.32,181.828C127.386,183.039 125.873,183.411 124.212,183.239C122.033,183.013 119.614,181.84 118.344,181.265C115.43,179.948 114.43,177.597 114.858,175.712C115.277,173.867 117.162,172.16 120.511,172.17ZM120.472,173.98C119.217,173.976 118.218,174.241 117.496,174.697C116.905,175.071 116.517,175.565 116.389,176.13C116.265,176.674 116.395,177.259 116.741,177.81C117.171,178.493 117.91,179.108 118.954,179.58C120.132,180.113 122.369,181.227 124.39,181.437C125.49,181.551 126.524,181.45 127.143,180.648C127.613,180.039 127.856,179.432 127.883,178.837C127.924,177.923 127.468,177.081 126.753,176.354C125.351,174.93 122.965,173.987 120.472,173.98Z"/>
        </g>
        <g transform="matrix(-0.939732,-0.474191,-0.409985,0.983768,351.166,67.1821)">
            <path d="M120.491,173.075C113.511,172.915 112.466,177.349 118.649,180.423C120.648,181.417 125.774,183.777 127.731,181.238C130.795,177.263 125.889,173.198 120.491,173.075Z" style="fill:white;"/>
            <path d="M120.527,172.192C118.233,172.14 116.529,172.573 115.444,173.25C114.554,173.805 114.032,174.536 113.838,175.33C113.642,176.128 113.769,177.022 114.3,177.931C114.947,179.036 116.25,180.212 118.288,181.225C119.542,181.849 121.977,182.975 124.164,183.212C125.861,183.396 127.409,183.027 128.362,181.791C129.87,179.833 129.791,177.857 128.749,176.182C127.366,173.958 124.056,172.273 120.527,172.192L120.527,172.192ZM120.455,173.957C122.939,174.014 125.316,174.955 126.713,176.362C127.324,176.977 127.743,177.677 127.834,178.435C127.922,179.16 127.69,179.92 127.101,180.685C126.488,181.48 125.457,181.574 124.366,181.456C122.37,181.24 120.154,180.19 119.009,179.621C117.597,178.919 116.588,178.152 115.983,177.379C115.528,176.799 115.306,176.248 115.43,175.742C115.556,175.231 116.011,174.842 116.693,174.536C117.594,174.131 118.856,173.92 120.455,173.957Z"/>
        </g>
        <g transform="matrix(1.37133,0,0,1.55407,-20.0993,-104.949)">
            <circle cx="112.954" cy="182.309" r="2.606"/>
        </g>
        <g transform="matrix(1.37133,0,0,1.55407,7.41483,-99.9806)">
            <circle cx="112.954" cy="182.309" r="2.606"/>
        </g>
    </g>
    <g id="check_mountains" transform="matrix(1.49441,0,0,1.49441,-105.368,-4.13364)">
        <g transform="matrix(0.669161,0,0,0.669161,70.5079,2.76607)">
            <path d="M156.283,104.703C156.85,128.062 143.442,173.553 111.895,186.748" style="fill:none;stroke:black;stroke-width:2px;"/>
        </g>
        <path d="M133.098,45.204C133.149,43.872 133.209,42.952 133.279,42.444C133.346,41.983 133.6,41.753 134.041,41.753C134.272,41.753 134.457,41.827 134.598,41.976C134.738,42.124 134.809,42.306 134.809,42.521C134.809,43.087 134.765,43.931 134.677,45.052C134.589,46.173 134.545,47.017 134.545,47.583C134.545,48.966 134.59,49.892 134.68,50.36C134.691,50.423 134.697,50.48 134.697,50.53C134.697,50.745 134.619,50.922 134.463,51.061C134.307,51.199 134.125,51.269 133.918,51.269C133.629,51.269 133.414,51.14 133.274,50.882C133.008,51.042 132.733,51.162 132.447,51.242C132.162,51.322 131.867,51.362 131.563,51.362C130.688,51.362 129.961,51.083 129.383,50.524C128.793,49.954 128.498,49.228 128.498,48.345C128.498,47.294 128.795,46.445 129.389,45.799C129.983,45.152 130.758,44.829 131.715,44.829C132.008,44.829 132.27,44.86 132.5,44.923C132.731,44.985 132.93,45.079 133.098,45.204ZM132.981,47.05C132.852,46.804 132.684,46.62 132.477,46.499C132.27,46.378 132.024,46.317 131.738,46.317C131.16,46.317 130.727,46.484 130.438,46.818C130.149,47.152 130.004,47.653 130.004,48.321C130.004,48.743 130.16,49.105 130.473,49.405C130.785,49.706 131.149,49.857 131.563,49.857C131.863,49.857 132.092,49.821 132.248,49.751C132.354,49.704 132.533,49.579 132.787,49.376C132.854,49.321 132.918,49.261 132.981,49.194C132.973,49.007 132.973,48.292 132.981,47.05Z" style="fill-rule:nonzero;"/>
        <path d="M140.99,47.706C140.99,47.968 140.992,48.362 140.996,48.89C141,49.417 141.002,49.812 141.002,50.073C141.002,50.155 141.009,50.277 141.023,50.44C141.036,50.602 141.043,50.724 141.043,50.806C141.043,51.024 140.964,51.205 140.806,51.348C140.648,51.49 140.453,51.562 140.223,51.562C139.899,51.562 139.662,51.415 139.514,51.122C139.014,51.306 138.496,51.398 137.961,51.398C137.406,51.398 136.94,51.28 136.561,51.046C136.135,50.776 135.881,50.384 135.799,49.868C135.647,48.892 135.57,48.019 135.57,47.249C135.57,46.741 135.629,46.161 135.746,45.509C135.824,45.067 136.088,44.847 136.537,44.847C136.764,44.847 136.957,44.918 137.117,45.061C137.277,45.203 137.358,45.384 137.358,45.603C137.358,45.774 137.329,46.044 137.273,46.411C137.216,46.778 137.188,47.058 137.188,47.249C137.188,47.8 137.206,48.281 137.243,48.693C137.28,49.106 137.336,49.446 137.41,49.716C137.508,49.759 137.603,49.792 137.694,49.816C137.786,49.839 137.875,49.851 137.961,49.851C138.395,49.851 138.871,49.788 139.391,49.663C139.391,49.362 139.389,49.021 139.385,48.638C139.377,48.181 139.373,47.853 139.373,47.653C139.373,46.853 139.41,46.161 139.484,45.579C139.543,45.114 139.809,44.882 140.281,44.882C140.512,44.882 140.709,44.954 140.873,45.099C141.037,45.243 141.113,45.425 141.102,45.644C141.027,47.132 140.99,47.819 140.99,47.706Z" style="fill-rule:nonzero;"/>
        <path d="M146.387,45.204C146.438,43.872 146.498,42.952 146.568,42.444C146.635,41.983 146.889,41.753 147.33,41.753C147.561,41.753 147.746,41.827 147.887,41.976C148.027,42.124 148.098,42.306 148.098,42.521C148.098,43.087 148.054,43.931 147.966,45.052C147.878,46.173 147.834,47.017 147.834,47.583C147.834,48.966 147.879,49.892 147.969,50.36C147.981,50.423 147.986,50.48 147.986,50.53C147.986,50.745 147.908,50.922 147.752,51.061C147.596,51.199 147.414,51.269 147.207,51.269C146.918,51.269 146.703,51.14 146.563,50.882C146.297,51.042 146.022,51.162 145.736,51.242C145.451,51.322 145.156,51.362 144.852,51.362C143.977,51.362 143.25,51.083 142.672,50.524C142.082,49.954 141.787,49.228 141.787,48.345C141.787,47.294 142.084,46.445 142.678,45.799C143.272,45.152 144.047,44.829 145.004,44.829C145.297,44.829 145.559,44.86 145.789,44.923C146.02,44.985 146.219,45.079 146.387,45.204ZM146.27,47.05C146.141,46.804 145.973,46.62 145.766,46.499C145.559,46.378 145.313,46.317 145.027,46.317C144.449,46.317 144.016,46.484 143.727,46.818C143.438,47.152 143.293,47.653 143.293,48.321C143.293,48.743 143.449,49.105 143.762,49.405C144.074,49.706 144.438,49.857 144.852,49.857C145.152,49.857 145.381,49.821 145.537,49.751C145.643,49.704 145.822,49.579 146.076,49.376C146.143,49.321 146.207,49.261 146.27,49.194C146.262,49.007 146.262,48.292 146.27,47.05Z" style="fill-rule:nonzero;"/>
        <path d="M152.1,51.362C151.166,51.362 150.402,51.14 149.809,50.694C149.152,50.202 148.824,49.509 148.824,48.614C148.824,47.626 149.084,46.79 149.604,46.107C150.182,45.349 150.961,44.97 151.941,44.97C152.621,44.97 153.186,45.079 153.635,45.298C154.225,45.587 154.52,46.036 154.52,46.646C154.52,47.075 154.279,47.456 153.799,47.788C153.58,47.941 153.141,48.163 152.481,48.456L150.506,49.329C150.693,49.532 150.92,49.685 151.186,49.786C151.451,49.888 151.756,49.939 152.1,49.939C152.623,49.939 153.066,49.831 153.43,49.616C153.754,49.425 154.014,49.329 154.209,49.329C154.615,49.329 154.818,49.526 154.818,49.921C154.818,50.366 154.492,50.73 153.84,51.011C153.293,51.245 152.713,51.362 152.1,51.362ZM151.941,46.388C151.578,46.388 151.268,46.509 151.01,46.751C150.752,46.993 150.545,47.357 150.389,47.841C150.83,47.649 151.27,47.46 151.707,47.273C152.234,47.034 152.654,46.814 152.967,46.61C152.705,46.462 152.363,46.388 151.941,46.388Z" style="fill-rule:nonzero;"/>
        <path d="M156.676,49.353C156.457,49.353 156.276,49.284 156.134,49.148C155.991,49.011 155.92,48.839 155.92,48.632C155.92,48.48 155.915,48.252 155.905,47.949C155.896,47.647 155.891,47.419 155.891,47.267C155.891,46.728 155.896,45.919 155.905,44.841C155.915,43.763 155.92,42.954 155.92,42.415C155.92,42.208 155.992,42.035 156.137,41.897C156.281,41.758 156.461,41.689 156.676,41.689C156.891,41.689 157.07,41.758 157.215,41.897C157.359,42.035 157.432,42.208 157.432,42.415L157.432,48.632C157.432,48.839 157.36,49.011 157.218,49.148C157.075,49.284 156.895,49.353 156.676,49.353ZM156.658,51.48C156.424,51.48 156.205,51.355 156.002,51.105C155.818,50.874 155.727,50.659 155.727,50.46C155.727,50.257 155.807,50.087 155.967,49.95C156.127,49.814 156.309,49.745 156.512,49.745C156.746,49.745 156.963,49.87 157.162,50.12C157.346,50.351 157.438,50.564 157.438,50.759C157.438,50.958 157.358,51.128 157.2,51.269C157.042,51.409 156.861,51.48 156.658,51.48Z" style="fill-rule:nonzero;"/>
        <path d="M166.608,51.462C165.748,51.462 165.027,51.218 164.445,50.73C163.832,50.214 163.525,49.534 163.525,48.691C163.525,47.913 163.801,47.11 164.352,46.282C164.977,45.337 165.703,44.864 166.531,44.864C166.938,44.864 167.412,44.974 167.955,45.192C168.615,45.462 168.945,45.773 168.945,46.124C168.945,46.316 168.879,46.485 168.746,46.634C168.606,46.794 168.424,46.874 168.201,46.874C168.033,46.874 167.831,46.783 167.595,46.602C167.358,46.42 167.004,46.329 166.531,46.329C166.231,46.329 165.904,46.624 165.553,47.214C165.217,47.784 165.049,48.276 165.049,48.691C165.049,49.101 165.197,49.423 165.494,49.657C165.775,49.88 166.147,49.991 166.608,49.991C166.869,49.991 167.19,49.892 167.568,49.692C167.947,49.493 168.188,49.394 168.289,49.394C168.5,49.394 168.681,49.47 168.831,49.622C168.982,49.774 169.057,49.948 169.057,50.144C169.057,50.448 168.725,50.753 168.061,51.058C167.467,51.327 166.983,51.462 166.608,51.462Z" style="fill-rule:nonzero;"/>
        <path d="M171.816,45.732C172.102,45.45 172.407,45.24 172.733,45.102C173.06,44.963 173.408,44.894 173.779,44.894C174.447,44.894 174.928,45.081 175.221,45.456C175.44,45.737 175.572,46.169 175.619,46.751C175.639,47.232 175.66,47.714 175.684,48.198C175.746,48.827 175.785,49.21 175.801,49.347C175.856,49.78 175.922,50.159 176,50.483C176.02,50.566 176.029,50.638 176.029,50.7C176.029,50.919 175.946,51.1 175.78,51.242C175.614,51.385 175.42,51.456 175.197,51.456C174.803,51.456 174.547,51.261 174.43,50.87C174.336,50.554 174.25,50.108 174.172,49.534C174.102,48.983 174.066,48.53 174.066,48.175C174.066,48.077 174.071,47.93 174.081,47.733C174.091,47.535 174.096,47.388 174.096,47.29C174.096,47.001 174.092,46.833 174.084,46.786C174.049,46.571 173.947,46.464 173.779,46.464C173.346,46.464 172.953,46.663 172.602,47.062C172.422,47.261 172.176,47.64 171.863,48.198C171.863,49.612 171.795,50.464 171.658,50.753C171.506,51.073 171.264,51.233 170.932,51.233C170.713,51.233 170.519,51.16 170.349,51.014C170.179,50.867 170.094,50.687 170.094,50.472C170.094,50.398 170.115,50.294 170.158,50.161C170.186,50.075 170.209,49.548 170.229,48.579C170.209,47.794 170.213,46.487 170.24,44.659L170.252,44.466C170.275,44.005 170.287,43.696 170.287,43.54C170.287,43.419 170.269,43.24 170.232,43.004C170.194,42.768 170.176,42.589 170.176,42.468C170.176,42.245 170.256,42.063 170.416,41.92C170.576,41.777 170.77,41.706 170.996,41.706C171.383,41.706 171.643,41.913 171.775,42.327C171.85,42.562 171.887,42.921 171.887,43.405C171.887,43.796 171.875,44.192 171.852,44.595C171.828,44.978 171.816,45.357 171.816,45.732Z" style="fill-rule:nonzero;"/>
        <path d="M179.961,51.362C179.027,51.362 178.264,51.14 177.67,50.694C177.014,50.202 176.686,49.509 176.686,48.614C176.686,47.626 176.945,46.79 177.465,46.107C178.043,45.349 178.822,44.97 179.803,44.97C180.483,44.97 181.047,45.079 181.496,45.298C182.086,45.587 182.381,46.036 182.381,46.646C182.381,47.075 182.141,47.456 181.66,47.788C181.441,47.941 181.002,48.163 180.342,48.456L178.367,49.329C178.555,49.532 178.781,49.685 179.047,49.786C179.313,49.888 179.617,49.939 179.961,49.939C180.484,49.939 180.928,49.831 181.291,49.616C181.615,49.425 181.875,49.329 182.07,49.329C182.477,49.329 182.68,49.526 182.68,49.921C182.68,50.366 182.354,50.73 181.701,51.011C181.154,51.245 180.574,51.362 179.961,51.362ZM179.803,46.388C179.44,46.388 179.129,46.509 178.871,46.751C178.613,46.993 178.406,47.357 178.25,47.841C178.691,47.649 179.131,47.46 179.568,47.273C180.096,47.034 180.516,46.814 180.828,46.61C180.566,46.462 180.225,46.388 179.803,46.388Z" style="fill-rule:nonzero;"/>
        <path d="M186.412,51.462C185.553,51.462 184.832,51.218 184.25,50.73C183.637,50.214 183.33,49.534 183.33,48.691C183.33,47.913 183.606,47.11 184.156,46.282C184.781,45.337 185.508,44.864 186.336,44.864C186.742,44.864 187.217,44.974 187.76,45.192C188.42,45.462 188.75,45.773 188.75,46.124C188.75,46.316 188.684,46.485 188.551,46.634C188.41,46.794 188.229,46.874 188.006,46.874C187.838,46.874 187.636,46.783 187.4,46.602C187.163,46.42 186.809,46.329 186.336,46.329C186.035,46.329 185.709,46.624 185.358,47.214C185.022,47.784 184.854,48.276 184.854,48.691C184.854,49.101 185.002,49.423 185.299,49.657C185.58,49.88 185.951,49.991 186.412,49.991C186.674,49.991 186.994,49.892 187.373,49.692C187.752,49.493 187.992,49.394 188.094,49.394C188.305,49.394 188.485,49.47 188.636,49.622C188.786,49.774 188.861,49.948 188.861,50.144C188.861,50.448 188.529,50.753 187.865,51.058C187.272,51.327 186.787,51.462 186.412,51.462Z" style="fill-rule:nonzero;"/>
        <path d="M194.809,51.333C194.5,51.333 194.266,51.185 194.106,50.888C193.914,50.532 193.627,50.112 193.244,49.628C192.65,48.874 192.336,48.474 192.301,48.427C191.988,48.657 191.731,48.833 191.527,48.954C191.488,49.497 191.469,50.017 191.469,50.513C191.469,50.739 191.393,50.927 191.24,51.075C191.088,51.224 190.895,51.298 190.66,51.298C190.109,51.298 189.834,50.97 189.834,50.314C189.834,50.005 189.857,49.543 189.901,48.928C189.946,48.313 189.969,47.851 189.969,47.542C189.969,46.976 189.978,46.328 189.995,45.6C190.013,44.871 190.022,44.228 190.022,43.669C190.022,43.501 190.013,43.303 189.995,43.074C189.978,42.846 189.969,42.648 189.969,42.48C189.969,42.253 190.045,42.066 190.197,41.92C190.35,41.774 190.543,41.7 190.777,41.7C191.012,41.7 191.205,41.774 191.358,41.92C191.51,42.066 191.586,42.253 191.586,42.48C191.586,42.651 191.596,42.855 191.615,43.089C191.635,43.323 191.645,43.526 191.645,43.698C191.645,44.163 191.633,44.714 191.609,45.351C191.586,45.96 191.576,46.503 191.58,46.98C192.111,46.569 192.92,45.823 194.006,44.741C194.178,44.569 194.373,44.483 194.592,44.483C194.811,44.483 195.004,44.564 195.172,44.724C195.34,44.884 195.424,45.069 195.424,45.28C195.424,45.46 195.348,45.634 195.195,45.802C194.734,46.317 194.186,46.857 193.549,47.419L194.768,48.989C195.358,49.774 195.652,50.298 195.652,50.56C195.652,50.774 195.566,50.957 195.395,51.108C195.223,51.258 195.027,51.333 194.809,51.333Z" style="fill-rule:nonzero;"/>
        <path d="M203.979,51.439C203.256,51.439 202.635,51.191 202.115,50.694C201.545,50.151 201.246,49.427 201.219,48.521C201.191,47.657 201.428,46.888 201.928,46.212C202.522,45.415 203.348,45.017 204.406,45.017C205.188,45.017 205.809,45.329 206.27,45.954C206.684,46.517 206.891,47.214 206.891,48.046C206.891,48.952 206.649,49.726 206.164,50.366C205.621,51.081 204.893,51.439 203.979,51.439ZM204.33,46.564C203.85,46.56 203.471,46.778 203.193,47.22C202.959,47.591 202.842,48.024 202.842,48.521C202.842,48.989 202.975,49.349 203.24,49.599C203.451,49.798 203.697,49.898 203.979,49.898C204.318,49.898 204.613,49.782 204.863,49.552C205.149,49.282 205.301,48.917 205.32,48.456C205.371,47.198 205.041,46.567 204.33,46.564Z" style="fill-rule:nonzero;"/>
        <path d="M213.008,47.706C213.008,47.968 213.01,48.362 213.014,48.89C213.018,49.417 213.02,49.812 213.02,50.073C213.02,50.155 213.026,50.277 213.04,50.44C213.054,50.602 213.061,50.724 213.061,50.806C213.061,51.024 212.982,51.205 212.823,51.348C212.665,51.49 212.471,51.562 212.24,51.562C211.916,51.562 211.68,51.415 211.531,51.122C211.031,51.306 210.514,51.398 209.979,51.398C209.424,51.398 208.957,51.28 208.578,51.046C208.152,50.776 207.899,50.384 207.816,49.868C207.664,48.892 207.588,48.019 207.588,47.249C207.588,46.741 207.647,46.161 207.764,45.509C207.842,45.067 208.106,44.847 208.555,44.847C208.781,44.847 208.975,44.918 209.135,45.061C209.295,45.203 209.375,45.384 209.375,45.603C209.375,45.774 209.347,46.044 209.29,46.411C209.233,46.778 209.205,47.058 209.205,47.249C209.205,47.8 209.224,48.281 209.261,48.693C209.298,49.106 209.354,49.446 209.428,49.716C209.525,49.759 209.62,49.792 209.712,49.816C209.804,49.839 209.893,49.851 209.979,49.851C210.412,49.851 210.889,49.788 211.408,49.663C211.408,49.362 211.406,49.021 211.402,48.638C211.395,48.181 211.391,47.853 211.391,47.653C211.391,46.853 211.428,46.161 211.502,45.579C211.561,45.114 211.826,44.882 212.299,44.882C212.529,44.882 212.727,44.954 212.891,45.099C213.055,45.243 213.131,45.425 213.119,45.644C213.045,47.132 213.008,47.819 213.008,47.706Z" style="fill-rule:nonzero;"/>
        <path d="M218.252,46.376C218.17,46.376 218.073,46.373 217.962,46.367C217.851,46.361 217.754,46.358 217.672,46.358C217.512,46.358 217.326,46.374 217.115,46.405C217.186,47.983 217.221,49.015 217.221,49.499C217.221,49.55 217.223,49.645 217.227,49.783C217.231,49.922 217.233,50.034 217.233,50.12C217.233,51.019 216.949,51.468 216.383,51.468C216.168,51.468 215.983,51.401 215.826,51.269C215.654,51.128 215.568,50.952 215.568,50.741C215.568,50.601 215.574,50.39 215.586,50.108C215.598,49.827 215.604,49.616 215.604,49.476C215.604,49.003 215.568,47.991 215.498,46.441C215.256,46.429 214.89,46.397 214.4,46.344C213.909,46.291 213.664,46.038 213.664,45.585C213.664,45.366 213.738,45.181 213.887,45.028C214.035,44.876 214.227,44.8 214.461,44.8C214.606,44.8 214.938,44.823 215.457,44.87C215.453,44.745 215.443,44.538 215.428,44.249C215.412,43.999 215.404,43.806 215.404,43.669C215.404,43.45 215.484,43.269 215.645,43.124C215.805,42.98 215.998,42.907 216.225,42.907C216.803,42.907 217.092,43.394 217.092,44.366L217.08,44.847C217.322,44.812 217.52,44.794 217.672,44.794C218.121,44.794 218.428,44.823 218.592,44.882C218.904,44.991 219.061,45.23 219.061,45.597C219.061,45.819 218.984,46.005 218.832,46.153C218.68,46.302 218.486,46.376 218.252,46.376Z" style="fill-rule:nonzero;"/>
        <path d="M132.945,58.376C132.863,58.376 132.767,58.373 132.655,58.367C132.544,58.361 132.447,58.358 132.365,58.358C132.205,58.358 132.02,58.374 131.809,58.405C131.879,59.983 131.914,61.015 131.914,61.499C131.914,61.55 131.916,61.645 131.92,61.783C131.924,61.922 131.926,62.034 131.926,62.12C131.926,63.019 131.643,63.468 131.076,63.468C130.861,63.468 130.676,63.401 130.52,63.269C130.348,63.128 130.262,62.952 130.262,62.741C130.262,62.601 130.268,62.39 130.279,62.108C130.291,61.827 130.297,61.616 130.297,61.476C130.297,61.003 130.262,59.991 130.191,58.441C129.949,58.429 129.583,58.397 129.093,58.344C128.603,58.291 128.358,58.038 128.358,57.585C128.358,57.366 128.432,57.181 128.58,57.028C128.729,56.876 128.92,56.8 129.154,56.8C129.299,56.8 129.631,56.823 130.15,56.87C130.147,56.745 130.137,56.538 130.121,56.249C130.106,55.999 130.098,55.806 130.098,55.669C130.098,55.45 130.178,55.269 130.338,55.124C130.498,54.98 130.691,54.907 130.918,54.907C131.496,54.907 131.785,55.394 131.785,56.366L131.774,56.847C132.016,56.812 132.213,56.794 132.365,56.794C132.815,56.794 133.121,56.823 133.285,56.882C133.598,56.991 133.754,57.23 133.754,57.597C133.754,57.819 133.678,58.005 133.525,58.153C133.373,58.302 133.18,58.376 132.945,58.376Z" style="fill-rule:nonzero;"/>
        <path d="M136.203,57.732C136.488,57.45 136.794,57.24 137.12,57.102C137.446,56.963 137.795,56.894 138.166,56.894C138.834,56.894 139.315,57.081 139.608,57.456C139.826,57.737 139.959,58.169 140.006,58.751C140.025,59.232 140.047,59.714 140.07,60.198C140.133,60.827 140.172,61.21 140.188,61.347C140.242,61.78 140.309,62.159 140.387,62.483C140.406,62.566 140.416,62.638 140.416,62.7C140.416,62.919 140.333,63.1 140.167,63.242C140.001,63.385 139.807,63.456 139.584,63.456C139.19,63.456 138.934,63.261 138.816,62.87C138.723,62.554 138.637,62.108 138.559,61.534C138.488,60.983 138.453,60.53 138.453,60.175C138.453,60.077 138.458,59.93 138.468,59.733C138.478,59.535 138.483,59.388 138.483,59.29C138.483,59.001 138.479,58.833 138.471,58.786C138.436,58.571 138.334,58.464 138.166,58.464C137.733,58.464 137.34,58.663 136.988,59.062C136.809,59.261 136.563,59.64 136.25,60.198C136.25,61.612 136.182,62.464 136.045,62.753C135.893,63.073 135.65,63.233 135.318,63.233C135.1,63.233 134.905,63.16 134.735,63.014C134.566,62.867 134.481,62.687 134.481,62.472C134.481,62.398 134.502,62.294 134.545,62.161C134.572,62.075 134.596,61.548 134.615,60.579C134.596,59.794 134.6,58.487 134.627,56.659L134.639,56.466C134.662,56.005 134.674,55.696 134.674,55.54C134.674,55.419 134.655,55.24 134.618,55.004C134.581,54.768 134.563,54.589 134.563,54.468C134.563,54.245 134.643,54.063 134.803,53.92C134.963,53.777 135.156,53.706 135.383,53.706C135.77,53.706 136.029,53.913 136.162,54.327C136.236,54.562 136.274,54.921 136.274,55.405C136.274,55.796 136.262,56.192 136.238,56.595C136.215,56.978 136.203,57.357 136.203,57.732Z" style="fill-rule:nonzero;"/>
        <path d="M143.809,63.439C143.086,63.439 142.465,63.191 141.945,62.694C141.375,62.151 141.076,61.427 141.049,60.521C141.022,59.657 141.258,58.888 141.758,58.212C142.352,57.415 143.178,57.017 144.236,57.017C145.018,57.017 145.639,57.329 146.1,57.954C146.514,58.517 146.721,59.214 146.721,60.046C146.721,60.952 146.479,61.726 145.994,62.366C145.451,63.081 144.723,63.439 143.809,63.439ZM144.16,58.564C143.68,58.56 143.301,58.778 143.024,59.22C142.789,59.591 142.672,60.024 142.672,60.521C142.672,60.989 142.805,61.349 143.07,61.599C143.281,61.798 143.527,61.898 143.809,61.898C144.149,61.898 144.443,61.782 144.693,61.552C144.979,61.282 145.131,60.917 145.15,60.456C145.201,59.198 144.871,58.567 144.16,58.564Z" style="fill-rule:nonzero;"/>
        <path d="M151.83,58.804C151.443,58.804 151.211,58.642 151.133,58.317C150.977,58.29 150.816,58.276 150.652,58.276C149.711,58.276 149.24,58.405 149.24,58.663C149.24,58.816 149.524,59.021 150.09,59.278C150.863,59.634 151.387,59.911 151.66,60.11C152.227,60.521 152.51,60.983 152.51,61.499C152.51,62.171 152.197,62.681 151.572,63.028C151.068,63.306 150.449,63.444 149.715,63.444C149.195,63.444 148.721,63.364 148.291,63.204C147.705,62.985 147.412,62.663 147.412,62.237C147.412,61.847 147.645,61.651 148.109,61.651C148.289,61.651 148.549,61.708 148.889,61.821C149.229,61.935 149.49,61.991 149.674,61.991C150.467,61.991 150.865,61.831 150.869,61.511C150.869,61.312 150.594,61.091 150.043,60.849C149.238,60.493 148.723,60.237 148.496,60.081C147.945,59.694 147.67,59.224 147.67,58.669C147.67,57.884 148.086,57.355 148.918,57.081C149.406,56.921 150.149,56.841 151.145,56.841C151.535,56.841 151.824,56.892 152.012,56.993C152.27,57.13 152.399,57.382 152.399,57.749C152.399,58.452 152.209,58.804 151.83,58.804Z" style="fill-rule:nonzero;"/>
        <path d="M156.5,63.362C155.566,63.362 154.803,63.14 154.209,62.694C153.553,62.202 153.225,61.509 153.225,60.614C153.225,59.626 153.484,58.79 154.004,58.107C154.582,57.349 155.361,56.97 156.342,56.97C157.022,56.97 157.586,57.079 158.035,57.298C158.625,57.587 158.92,58.036 158.92,58.646C158.92,59.075 158.68,59.456 158.199,59.788C157.981,59.941 157.541,60.163 156.881,60.456L154.906,61.329C155.094,61.532 155.32,61.685 155.586,61.786C155.852,61.888 156.156,61.939 156.5,61.939C157.024,61.939 157.467,61.831 157.83,61.616C158.154,61.425 158.414,61.329 158.609,61.329C159.016,61.329 159.219,61.526 159.219,61.921C159.219,62.366 158.893,62.73 158.24,63.011C157.693,63.245 157.113,63.362 156.5,63.362ZM156.342,58.388C155.979,58.388 155.668,58.509 155.41,58.751C155.152,58.993 154.945,59.357 154.789,59.841C155.231,59.649 155.67,59.46 156.108,59.273C156.635,59.034 157.055,58.814 157.367,58.61C157.106,58.462 156.764,58.388 156.342,58.388Z" style="fill-rule:nonzero;"/>
        <path d="M166.977,57.907C167.566,57.224 168.125,56.882 168.652,56.882C169.254,56.882 169.695,57.11 169.977,57.567C170.215,57.357 170.479,57.198 170.768,57.093C171.057,56.987 171.369,56.935 171.705,56.935C172.471,56.935 172.99,57.316 173.264,58.077C173.318,58.233 173.402,58.763 173.516,59.665C173.625,60.298 173.766,61.353 173.938,62.829C173.953,63.052 173.877,63.235 173.709,63.38C173.541,63.524 173.344,63.597 173.117,63.597C172.668,63.597 172.404,63.374 172.326,62.929C172.256,62.526 172.184,61.958 172.109,61.224C172.031,60.419 171.967,59.849 171.916,59.513C171.811,58.814 171.676,58.464 171.512,58.464C171.422,58.464 171.217,58.554 170.897,58.733C170.576,58.913 170.342,59.067 170.193,59.196C170.193,59.642 170.246,60.282 170.352,61.118C170.461,61.974 170.516,62.614 170.516,63.04C170.516,63.263 170.44,63.448 170.287,63.597C170.135,63.745 169.941,63.819 169.707,63.819C169.473,63.819 169.279,63.745 169.127,63.597C168.975,63.448 168.899,63.263 168.899,63.04C168.899,62.595 168.851,61.94 168.755,61.074C168.659,60.209 168.611,59.554 168.611,59.108C168.611,58.858 168.59,58.659 168.547,58.511C168.094,58.773 167.639,59.208 167.182,59.817C167.162,59.845 167.129,59.886 167.082,59.941C167.066,60.73 167.059,61.349 167.059,61.798C167.059,61.907 167.055,62.055 167.047,62.24C167.039,62.426 167.035,62.564 167.035,62.653C167.035,62.864 166.949,63.03 166.777,63.151C166.621,63.265 166.428,63.321 166.197,63.321C165.865,63.321 165.641,63.177 165.524,62.888C165.441,62.692 165.4,62.382 165.4,61.956L165.4,59.776C165.4,59.581 165.393,59.295 165.377,58.918C165.361,58.541 165.354,58.255 165.354,58.06C165.354,57.712 165.416,57.398 165.541,57.116C165.693,56.765 165.908,56.589 166.186,56.589C166.404,56.589 166.6,56.674 166.772,56.844C166.943,57.014 167.029,57.2 167.029,57.403C167.029,57.321 167.012,57.489 166.977,57.907Z" style="fill-rule:nonzero;"/>
        <path d="M177.195,63.439C176.473,63.439 175.852,63.191 175.332,62.694C174.762,62.151 174.463,61.427 174.436,60.521C174.408,59.657 174.645,58.888 175.145,58.212C175.738,57.415 176.565,57.017 177.623,57.017C178.404,57.017 179.025,57.329 179.486,57.954C179.9,58.517 180.108,59.214 180.108,60.046C180.108,60.952 179.865,61.726 179.381,62.366C178.838,63.081 178.109,63.439 177.195,63.439ZM177.547,58.564C177.066,58.56 176.688,58.778 176.41,59.22C176.176,59.591 176.059,60.024 176.059,60.521C176.059,60.989 176.191,61.349 176.457,61.599C176.668,61.798 176.914,61.898 177.195,61.898C177.535,61.898 177.83,61.782 178.08,61.552C178.365,61.282 178.518,60.917 178.537,60.456C178.588,59.198 178.258,58.567 177.547,58.564Z" style="fill-rule:nonzero;"/>
        <path d="M186.225,59.706C186.225,59.968 186.227,60.362 186.231,60.89C186.234,61.417 186.236,61.812 186.236,62.073C186.236,62.155 186.243,62.277 186.257,62.44C186.271,62.602 186.277,62.724 186.277,62.806C186.277,63.024 186.198,63.205 186.04,63.348C185.882,63.49 185.688,63.562 185.457,63.562C185.133,63.562 184.897,63.415 184.748,63.122C184.248,63.306 183.731,63.398 183.195,63.398C182.641,63.398 182.174,63.28 181.795,63.046C181.369,62.776 181.115,62.384 181.033,61.868C180.881,60.892 180.805,60.019 180.805,59.249C180.805,58.741 180.863,58.161 180.981,57.509C181.059,57.067 181.322,56.847 181.772,56.847C181.998,56.847 182.191,56.918 182.352,57.061C182.512,57.203 182.592,57.384 182.592,57.603C182.592,57.774 182.564,58.044 182.507,58.411C182.45,58.778 182.422,59.058 182.422,59.249C182.422,59.8 182.441,60.281 182.478,60.693C182.515,61.106 182.57,61.446 182.645,61.716C182.742,61.759 182.837,61.792 182.929,61.816C183.021,61.839 183.109,61.851 183.195,61.851C183.629,61.851 184.106,61.788 184.625,61.663C184.625,61.362 184.623,61.021 184.619,60.638C184.611,60.181 184.608,59.853 184.608,59.653C184.608,58.853 184.645,58.161 184.719,57.579C184.777,57.114 185.043,56.882 185.516,56.882C185.746,56.882 185.943,56.954 186.108,57.099C186.272,57.243 186.348,57.425 186.336,57.644C186.262,59.132 186.225,59.819 186.225,59.706Z" style="fill-rule:nonzero;"/>
        <path d="M191.949,63.509C191.469,63.509 191.201,63.273 191.147,62.8C191.092,62.398 191.037,61.993 190.983,61.587C190.924,61.157 190.895,60.753 190.895,60.374C190.895,60.273 190.901,60.099 190.915,59.853C190.929,59.607 190.936,59.433 190.936,59.331C190.936,59.304 190.94,59.234 190.947,59.123C190.955,59.012 190.959,58.921 190.959,58.851C190.959,58.526 190.875,58.364 190.707,58.364C190.348,58.364 189.995,58.574 189.65,58.994C189.304,59.414 189.033,59.946 188.838,60.591C188.83,60.72 188.813,60.892 188.785,61.107C188.762,61.282 188.75,61.454 188.75,61.622C188.75,61.732 188.763,61.897 188.788,62.117C188.814,62.338 188.826,62.503 188.826,62.612C188.826,62.835 188.749,63.02 188.595,63.166C188.441,63.313 188.246,63.386 188.012,63.386C187.777,63.386 187.584,63.313 187.432,63.166C187.279,63.02 187.203,62.835 187.203,62.612C187.203,62.503 187.191,62.338 187.168,62.117C187.145,61.897 187.133,61.732 187.133,61.622C187.133,61.247 187.16,60.726 187.215,60.058C187.27,59.39 187.297,58.868 187.297,58.493C187.297,58.376 187.29,58.201 187.276,57.969C187.263,57.736 187.256,57.564 187.256,57.45C187.256,57.232 187.335,57.051 187.493,56.908C187.651,56.766 187.846,56.694 188.076,56.694C188.588,56.694 188.861,57.001 188.897,57.614L188.902,57.679C189.473,57.105 190.074,56.817 190.707,56.817C191.445,56.817 191.955,57.126 192.236,57.743C192.424,58.157 192.518,58.776 192.518,59.601L192.518,60.017C192.514,60.196 192.512,60.323 192.512,60.398C192.512,60.702 192.554,61.095 192.638,61.575C192.722,62.056 192.764,62.446 192.764,62.747C192.764,62.966 192.686,63.148 192.529,63.292C192.373,63.437 192.18,63.509 191.949,63.509Z" style="fill-rule:nonzero;"/>
        <path d="M197.75,58.376C197.668,58.376 197.571,58.373 197.46,58.367C197.349,58.361 197.252,58.358 197.17,58.358C197.01,58.358 196.824,58.374 196.613,58.405C196.684,59.983 196.719,61.015 196.719,61.499C196.719,61.55 196.721,61.645 196.725,61.783C196.729,61.922 196.731,62.034 196.731,62.12C196.731,63.019 196.447,63.468 195.881,63.468C195.666,63.468 195.481,63.401 195.324,63.269C195.152,63.128 195.066,62.952 195.066,62.741C195.066,62.601 195.072,62.39 195.084,62.108C195.096,61.827 195.102,61.616 195.102,61.476C195.102,61.003 195.066,59.991 194.996,58.441C194.754,58.429 194.388,58.397 193.898,58.344C193.407,58.291 193.162,58.038 193.162,57.585C193.162,57.366 193.236,57.181 193.385,57.028C193.533,56.876 193.725,56.8 193.959,56.8C194.104,56.8 194.436,56.823 194.955,56.87C194.951,56.745 194.941,56.538 194.926,56.249C194.91,55.999 194.902,55.806 194.902,55.669C194.902,55.45 194.983,55.269 195.143,55.124C195.303,54.98 195.496,54.907 195.723,54.907C196.301,54.907 196.59,55.394 196.59,56.366L196.578,56.847C196.82,56.812 197.018,56.794 197.17,56.794C197.619,56.794 197.926,56.823 198.09,56.882C198.402,56.991 198.559,57.23 198.559,57.597C198.559,57.819 198.483,58.005 198.33,58.153C198.178,58.302 197.984,58.376 197.75,58.376Z" style="fill-rule:nonzero;"/>
        <path d="M204.324,63.48C204.145,63.48 203.859,63.284 203.469,62.894C203.109,63.066 202.793,63.195 202.52,63.283C202.246,63.371 202.014,63.415 201.822,63.415C200.881,63.415 200.175,63.163 199.704,62.659C199.233,62.155 198.998,61.401 198.998,60.398C198.998,59.456 199.346,58.65 200.041,57.981C200.736,57.311 201.568,56.976 202.537,56.976C202.908,56.976 203.338,57.081 203.826,57.292C204.416,57.546 204.711,57.841 204.711,58.177C204.711,58.317 204.666,58.441 204.576,58.546C204.537,58.702 204.507,58.899 204.485,59.135C204.464,59.371 204.453,59.648 204.453,59.964C204.453,60.71 204.506,61.247 204.611,61.575C204.623,61.61 204.713,61.814 204.881,62.185C205.033,62.521 205.109,62.712 205.109,62.759C205.109,62.966 205.03,63.138 204.872,63.274C204.714,63.411 204.531,63.48 204.324,63.48ZM202.871,59.46C202.871,59.335 202.88,59.191 202.898,59.029C202.915,58.867 202.941,58.687 202.977,58.487C202.899,58.448 202.829,58.42 202.769,58.402C202.708,58.385 202.656,58.376 202.613,58.376C202.082,58.376 201.617,58.584 201.219,59C200.82,59.416 200.621,59.898 200.621,60.444C200.621,60.968 200.715,61.361 200.902,61.625C201.09,61.889 201.371,62.021 201.746,62.021C201.988,62.021 202.218,61.981 202.435,61.9C202.651,61.82 202.856,61.702 203.047,61.546C202.93,60.616 202.871,59.921 202.871,59.46Z" style="fill-rule:nonzero;"/>
        <path d="M207.272,56.05C207.022,56.05 206.805,55.966 206.621,55.798C206.438,55.63 206.346,55.425 206.346,55.183C206.346,54.941 206.438,54.735 206.621,54.567C206.805,54.399 207.022,54.316 207.272,54.316C207.522,54.316 207.737,54.399 207.919,54.567C208.101,54.735 208.191,54.941 208.191,55.183C208.191,55.425 208.101,55.63 207.919,55.798C207.737,55.966 207.522,56.05 207.272,56.05ZM207.77,60.345C207.77,60.567 207.776,60.925 207.79,61.417C207.804,61.909 207.811,62.267 207.811,62.489C207.811,62.716 207.734,62.902 207.582,63.049C207.43,63.195 207.236,63.269 207.002,63.269C206.768,63.269 206.574,63.195 206.422,63.049C206.27,62.902 206.193,62.716 206.193,62.489C206.193,62.267 206.187,61.909 206.173,61.417C206.159,60.925 206.152,60.567 206.152,60.345C206.152,59.997 206.172,59.562 206.211,59.038C206.25,58.515 206.27,58.079 206.27,57.732C206.27,57.505 206.346,57.318 206.498,57.172C206.65,57.025 206.844,56.952 207.078,56.952C207.313,56.952 207.506,57.025 207.658,57.172C207.811,57.318 207.887,57.505 207.887,57.732C207.887,58.079 207.867,58.515 207.828,59.038C207.789,59.562 207.77,59.997 207.77,60.345Z" style="fill-rule:nonzero;"/>
        <path d="M213.916,63.509C213.436,63.509 213.168,63.273 213.113,62.8C213.059,62.398 213.004,61.993 212.949,61.587C212.891,61.157 212.861,60.753 212.861,60.374C212.861,60.273 212.868,60.099 212.882,59.853C212.896,59.607 212.902,59.433 212.902,59.331C212.902,59.304 212.906,59.234 212.914,59.123C212.922,59.012 212.926,58.921 212.926,58.851C212.926,58.526 212.842,58.364 212.674,58.364C212.315,58.364 211.962,58.574 211.616,58.994C211.271,59.414 211,59.946 210.805,60.591C210.797,60.72 210.779,60.892 210.752,61.107C210.729,61.282 210.717,61.454 210.717,61.622C210.717,61.732 210.73,61.897 210.755,62.117C210.78,62.338 210.793,62.503 210.793,62.612C210.793,62.835 210.716,63.02 210.562,63.166C210.407,63.313 210.213,63.386 209.979,63.386C209.744,63.386 209.551,63.313 209.399,63.166C209.246,63.02 209.17,62.835 209.17,62.612C209.17,62.503 209.158,62.338 209.135,62.117C209.111,61.897 209.1,61.732 209.1,61.622C209.1,61.247 209.127,60.726 209.182,60.058C209.236,59.39 209.264,58.868 209.264,58.493C209.264,58.376 209.257,58.201 209.243,57.969C209.23,57.736 209.223,57.564 209.223,57.45C209.223,57.232 209.302,57.051 209.46,56.908C209.618,56.766 209.813,56.694 210.043,56.694C210.555,56.694 210.828,57.001 210.863,57.614L210.869,57.679C211.44,57.105 212.041,56.817 212.674,56.817C213.412,56.817 213.922,57.126 214.203,57.743C214.391,58.157 214.484,58.776 214.484,59.601L214.484,60.017C214.481,60.196 214.479,60.323 214.479,60.398C214.479,60.702 214.521,61.095 214.605,61.575C214.689,62.056 214.731,62.446 214.731,62.747C214.731,62.966 214.652,63.148 214.496,63.292C214.34,63.437 214.147,63.509 213.916,63.509Z" style="fill-rule:nonzero;"/>
        <path d="M219.705,58.804C219.318,58.804 219.086,58.642 219.008,58.317C218.852,58.29 218.691,58.276 218.527,58.276C217.586,58.276 217.115,58.405 217.115,58.663C217.115,58.816 217.399,59.021 217.965,59.278C218.738,59.634 219.262,59.911 219.535,60.11C220.102,60.521 220.385,60.983 220.385,61.499C220.385,62.171 220.072,62.681 219.447,63.028C218.943,63.306 218.324,63.444 217.59,63.444C217.07,63.444 216.596,63.364 216.166,63.204C215.58,62.985 215.287,62.663 215.287,62.237C215.287,61.847 215.52,61.651 215.984,61.651C216.164,61.651 216.424,61.708 216.764,61.821C217.104,61.935 217.365,61.991 217.549,61.991C218.342,61.991 218.74,61.831 218.744,61.511C218.744,61.312 218.469,61.091 217.918,60.849C217.113,60.493 216.598,60.237 216.371,60.081C215.82,59.694 215.545,59.224 215.545,58.669C215.545,57.884 215.961,57.355 216.793,57.081C217.281,56.921 218.024,56.841 219.02,56.841C219.41,56.841 219.699,56.892 219.887,56.993C220.145,57.13 220.274,57.382 220.274,57.749C220.274,58.452 220.084,58.804 219.705,58.804Z" style="fill-rule:nonzero;"/>
    </g>
</svg>
