<?xml version="1.0" encoding="UTF-8" standalone="no"?>
<!DOCTYPE svg PUBLIC "-//W3C//DTD SVG 1.1//EN" "http://www.w3.org/Graphics/SVG/1.1/DTD/svg11.dtd">
<svg width="100%" height="100%" viewBox="0 0 300 300" version="1.1" xmlns="http://www.w3.org/2000/svg" xmlns:xlink="http://www.w3.org/1999/xlink" xml:space="preserve" xmlns:serif="http://www.serif.com/" style="fill-rule:evenodd;clip-rule:evenodd;stroke-linecap:round;stroke-linejoin:round;stroke-miterlimit:1.5;">
    <g id="grass_backwards" transform="matrix(-1,0,0,1,300.409,46.0523)">
        <g transform="matrix(0.988662,-0.150158,0.150158,0.988662,-21.0053,35.1223)">
            <path d="M-11.518,208.106L303.481,189.214C306.92,186.053 308.506,163.75 308.867,159.695L303.481,149.865C296.796,139.227 286.775,150.249 278.668,151.345C272.815,152.137 267.32,148.488 261.422,148.862C255.135,149.261 250.172,153.529 244.074,154.74C239.432,155.661 235.236,152.593 230.679,152.692C226.423,152.784 222.852,155.812 218.691,156.443C215.201,156.971 212.429,152.077 208.672,151.902C205.376,151.748 203.406,155.223 200.27,154.995C197.488,154.793 196.531,150.98 193.582,150.519C189.673,149.91 187.232,153.531 183.563,153.17C180.368,152.856 177.065,150.926 173.973,150.044C169.185,148.678 163.583,148.065 158.622,147.881C151.458,147.616 144.614,149.629 137.607,150.676C131.147,151.641 124.846,151.526 118.364,152.766C114.439,153.517 111.068,151.852 107.186,153.672C105.416,154.502 103.534,156.595 101.594,156.687C99.036,156.81 96.857,154.894 94.179,155.199C93.035,155.329 91.89,155.648 90.826,156.082C90.296,156.298 89.648,157.346 89.309,156.886C86.154,152.595 82.29,151.06 76.836,152.109C76.012,152.268 73.165,153.828 72.349,153.671C69.27,153.082 67.96,149.683 64.989,148.857C61.536,147.898 58.397,150.145 55.923,152.217C55.319,152.723 53.002,154.573 52.126,153.905C50.606,152.747 50.513,150.089 48.763,148.916C45.95,147.031 41.438,148.501 38.867,150.022C38.562,150.202 36.178,152.291 35.969,152.264C30.889,151.602 27.495,145.976 21.969,145.634C19.552,145.484 16.774,146.186 14.699,147.48C14.145,147.825 12.455,149.75 11.914,149.807C11.78,149.822 9.845,147.226 9.321,146.841C6.763,144.959 1.862,142.69 -1.31,144.227C-4.051,145.555 -4.738,149.234 -5.157,151.86C-6.101,157.782 -6.693,163.392 -5.502,169.322C-5.346,170.098 -11.696,207.213 -11.518,208.106Z" style="fill:rgb(83,135,57);stroke:black;stroke-width:2px;"/>
        </g>
        <g transform="matrix(1,0,0,1,0,1)">
            <path d="M403.872,170.875C67.835,167.585 142.506,185.581 -37.157,191.08L-65.503,330.599L403.872,330.599L403.872,170.875Z" style="fill:rgb(109,166,86);stroke:black;stroke-width:2px;"/>
        </g>
    </g>
    <g id="sad_blue" transform="matrix(1.109,0,0,1.109,-31.2187,-32.2776)">
        <g transform="matrix(-0.889345,-0.154069,-0.200489,1.1573,415.053,-24.7968)">
            <path d="M174.993,225.15C185.728,226.244 205.521,233.573 210.804,242.904C220.543,260.104 217.564,287.148 213.897,305.993C212.729,311.998 211.621,314.592 100.878,300.4C106.452,254.539 93.569,203.04 174.993,225.15Z" style="fill:rgb(39,134,152);"/>
            <path d="M175.219,224.43C181.772,225.117 191.589,228.051 199.557,232.335C204.961,235.239 209.507,238.767 211.683,242.61C221.485,259.92 218.536,287.136 214.846,306.102C214.579,307.474 214.256,308.672 212.992,309.61C211.786,310.505 209.65,311.193 205.579,311.44C194.352,312.124 167.312,309.661 100.72,301.127C100.224,301.064 99.876,300.717 99.923,300.332C102.268,281.041 101.359,260.755 105.55,245.352C108.404,234.861 113.64,226.617 123.664,222.342C134.308,217.802 150.471,217.721 175.219,224.43ZM174.867,225.881C174.801,225.874 174.736,225.862 174.673,225.845C150.62,219.314 134.931,219.222 124.595,223.63C115.026,227.712 110.152,235.639 107.427,245.654C103.299,260.829 104.149,280.759 101.914,299.786C167.573,308.192 194.299,310.648 205.428,309.971C208.826,309.764 210.653,309.297 211.66,308.549C212.609,307.845 212.748,306.914 212.949,305.884C216.592,287.159 219.601,260.288 209.925,243.198C207.874,239.577 203.55,236.28 198.458,233.543C190.723,229.385 181.196,226.526 174.867,225.881Z"/>
        </g>
        <path d="M227.57,204.609C227.445,207.653 227.257,210.73 228,213.713C231.236,226.706 243.336,236.714 257.088,234.695C261.061,234.111 265.299,232.428 268.718,230.37C272.698,227.975 274.257,224.013 276.628,220.23C280.195,214.538 284.003,208.996 287.596,203.318C292.923,194.899 298.516,188.86 295.728,176.632C293.234,165.696 249.481,151.63 242.746,163.317C241.153,166.081 221.525,195.427 218.102,201.917C216.666,204.64 215.465,208.472 213.399,210.917C208.158,217.121 222.802,235.965 234.515,235.338" style="fill:rgb(240,225,196);"/>
        <path d="M226.705,204.573C226.577,207.7 226.397,210.859 227.16,213.923C230.501,227.336 243.016,237.635 257.214,235.551C261.296,234.952 265.652,233.226 269.164,231.112C273.268,228.642 274.917,224.59 277.361,220.689C280.927,214.998 284.735,209.458 288.327,203.781C293.781,195.163 299.425,188.957 296.572,176.439C296.089,174.321 294.216,172.054 291.347,169.899C285.042,165.162 273.884,160.782 263.74,158.954C257.884,157.898 252.364,157.699 248.289,158.727C245.377,159.463 243.179,160.832 241.996,162.885C240.402,165.65 220.762,195.019 217.336,201.514C215.927,204.186 214.766,207.958 212.738,210.359C211.764,211.511 211.353,213.032 211.453,214.784C211.589,217.166 212.688,220.01 214.461,222.834C217.057,226.97 221.088,231.076 225.455,233.617C228.445,235.357 231.595,236.362 234.561,236.203C235.039,236.177 235.405,235.769 235.38,235.292C235.354,234.815 234.946,234.448 234.469,234.474C231.813,234.616 229.003,233.679 226.326,232.121C222.193,229.716 218.383,225.827 215.927,221.914C214.332,219.373 213.304,216.828 213.181,214.685C213.109,213.42 213.357,212.308 214.06,211.476C216.164,208.986 217.406,205.093 218.868,202.321C222.288,195.835 241.904,166.511 243.496,163.749C244.468,162.062 246.32,161.01 248.713,160.406C252.595,159.426 257.854,159.652 263.433,160.658C271.906,162.185 281.11,165.525 287.436,169.357C289.908,170.854 291.935,172.42 293.282,173.986C294.107,174.945 294.671,175.893 294.884,176.824C297.606,188.763 292.066,194.635 286.864,202.855C283.271,208.534 279.462,214.077 275.894,219.77C273.597,223.436 272.128,227.307 268.271,229.629C264.947,231.63 260.826,233.271 256.962,233.838C243.655,235.792 231.972,226.076 228.84,213.504C228.117,210.602 228.313,207.607 228.434,204.644C228.454,204.167 228.082,203.764 227.605,203.744C227.128,203.724 226.724,204.096 226.705,204.573Z"/>
        <g transform="matrix(-0.60314,-0.930515,-0.749349,0.485712,487.67,232.129)">
            <path d="M127.056,166.564C121.551,164.597 118.044,167.232 121.076,170.202C123.267,172.347 131.397,173.795 131.987,173.158C134.222,170.747 128.86,167.209 127.056,166.564Z" style="fill:rgb(108,102,88);"/>
            <path d="M127.272,165.633C128.234,165.977 130.148,167.088 131.521,168.439C133.26,170.151 134.009,172.26 132.499,173.89C132.395,174.002 132.224,174.129 131.969,174.198C131.725,174.264 131.323,174.294 130.807,174.27C129.04,174.188 125.709,173.525 123.251,172.528C122.123,172.07 121.172,171.531 120.593,170.963C119.587,169.978 119.192,168.967 119.177,168.126C119.159,167.16 119.594,166.274 120.498,165.676C121.795,164.818 124.26,164.556 127.272,165.633L127.272,165.633ZM131.572,172.306C131.933,171.788 131.606,171.214 131.173,170.651C130.03,169.17 127.841,167.854 126.84,167.496L126.84,167.496C124.346,166.604 122.306,166.677 121.231,167.387C120.947,167.575 120.732,167.778 120.737,168.082C120.745,168.51 121.048,168.939 121.56,169.441C123.019,170.87 127.263,171.915 129.863,172.242C130.559,172.329 131.347,172.313 131.572,172.306Z"/>
        </g>
        <path d="M254.129,191.734C255.282,192.375 261.182,194.932 261.153,194.974C260.844,195.416 251.35,194.668 249.836,194.974" style="fill:none;stroke:black;stroke-width:1.8px;"/>
        <path d="M277.477,201.044C278.097,201.345 280.327,202.431 280.067,202.631" style="fill:none;stroke:black;stroke-width:1.8px;"/>
        <g transform="matrix(1.17112,0.0895959,-0.0895959,1.17112,129.016,-26.5256)">
            <path d="M127.056,166.564C121.551,164.597 118.044,167.232 121.076,170.202C123.267,172.347 131.397,173.795 131.987,173.158C134.222,170.747 128.86,167.209 127.056,166.564Z" style="fill:rgb(108,102,88);"/>
            <path d="M127.304,165.87C125.158,165.103 123.291,165.002 121.935,165.311C120.895,165.549 120.131,166.033 119.69,166.638C118.927,167.684 118.989,169.19 120.561,170.728C121.32,171.472 122.727,172.16 124.326,172.7C126.611,173.471 129.283,173.967 130.802,174.038C131.332,174.062 131.745,174.03 131.995,173.962C132.252,173.892 132.423,173.773 132.528,173.659C133.687,172.408 133.388,170.916 132.32,169.531C130.997,167.815 128.464,166.285 127.304,165.87ZM131.544,172.541C131.318,172.547 130.553,172.56 129.876,172.475C128.284,172.275 126.093,171.79 124.273,171.118C123.138,170.699 122.149,170.221 121.592,169.675C120.917,169.015 120.605,168.411 120.712,167.881C120.811,167.392 121.275,167.052 121.927,166.84C123.087,166.464 124.8,166.541 126.808,167.258C127.813,167.617 130.006,168.944 131.153,170.431C131.7,171.141 132.037,171.888 131.544,172.541Z"/>
        </g>
        <path d="M289.075,202.429C308.38,190.102 302.066,163.329 290.787,155.099C267.914,138.408 234.08,145.351 227.487,178.343C227.021,180.672 239.223,181.614 241.876,181.209C249.94,179.977 256.394,167.147 257.41,164.739C258.074,163.166 291.89,176.173 295.218,185.584C296.226,188.434 289.757,201.199 289.075,202.429Z" style="fill:rgb(108,102,88);"/>
        <path d="M258.012,165.518C258.529,165.606 259.77,165.838 261.021,166.226C267.336,168.186 280,173.545 287.934,179.145C291.184,181.438 293.645,183.733 294.402,185.872C294.489,186.119 294.473,186.47 294.421,186.897C294.32,187.737 294.033,188.801 293.643,189.973C292.063,194.724 288.789,201.159 288.318,202.009C288.126,202.356 288.194,202.788 288.483,203.06C288.771,203.331 289.207,203.372 289.541,203.158C301.475,195.538 303.935,182.57 301.461,171.574C299.81,164.236 295.951,157.795 291.298,154.4C277.288,144.176 259.247,142.667 245.605,150.347C236.5,155.473 229.333,164.688 226.638,178.174C226.485,178.938 226.957,179.772 228.176,180.355C231.259,181.83 239.804,182.401 242.007,182.064C245.416,181.544 248.578,179.1 251.184,176.146C254.65,172.216 257.143,167.423 258.012,165.518ZM228.354,178.42C230.948,165.563 237.761,156.75 246.454,151.856C259.54,144.489 276.839,145.992 290.277,155.798C294.646,158.987 298.222,165.064 299.772,171.954C301.889,181.363 300.213,192.323 291.45,199.626L291.45,199.626C292.681,197.066 294.303,193.475 295.286,190.52C295.718,189.219 296.027,188.037 296.14,187.105C296.231,186.35 296.188,185.732 296.034,185.295C295.193,182.917 292.545,180.28 288.932,177.731C280.855,172.029 267.964,166.568 261.534,164.572C259.531,163.951 258.094,163.684 257.528,163.761C256.983,163.835 256.725,164.135 256.613,164.402C256.016,165.816 253.503,170.899 249.886,175C247.561,177.636 244.787,179.888 241.746,180.353C239.946,180.628 233.614,180.252 230.131,179.235C229.464,179.04 228.91,178.829 228.541,178.58C228.476,178.536 228.397,178.462 228.354,178.42Z"/>
        <g id="ear" transform="matrix(0.688782,0.615256,-0.66618,0.745791,223.446,-78.0981)">
            <path d="M201.227,182.666C199.018,181.493 196.483,180.54 194.058,179.964C188.005,178.528 181.22,183.156 182.734,189.94C184.056,195.861 188.991,199.229 194.919,199.386C197.071,199.443 199.481,198.938 201.324,197.778" style="fill:rgb(240,225,196);"/>
            <path d="M201.694,181.916C199.413,180.704 196.796,179.72 194.291,179.126C187.624,177.543 180.148,182.642 181.816,190.114C183.235,196.469 188.53,200.083 194.892,200.251C197.231,200.313 199.848,199.754 201.852,198.493C202.28,198.224 202.39,197.685 202.099,197.29C201.808,196.895 201.224,196.793 200.796,197.062C199.113,198.122 196.91,198.573 194.946,198.521C189.451,198.375 184.877,195.254 183.652,189.765C182.292,183.671 188.387,179.512 193.825,180.803C196.171,181.36 198.622,182.281 200.76,183.417C201.208,183.655 201.782,183.512 202.039,183.098C202.297,182.683 202.143,182.154 201.694,181.916Z"/>
        </g>
        <path d="M265.109,268.62C265.475,275.342 270.989,282.463 277.843,285.799C284.024,288.806 290.749,283.099 292.839,275.974C297.942,258.574 288.236,236.206 287.832,227.409C287.57,221.693 289.683,213.912 290.748,209.239C291.205,207.236 291.594,203.87 289.524,202.513C288.791,202.032 286.588,201.681 285.773,202.247C285.757,202.258 286.241,204.161 286.269,204.393C286.439,205.786 285.712,212.784 285.741,212.632C286.644,207.919 287.195,205.281 285.533,201.917C284.942,200.722 283.299,199.491 282.341,200.57C278.946,204.393 277.807,214.09 277.843,213.914C279.437,206.199 280.197,204.1 277.028,203.444C273.976,202.813 269.009,214.535 268.203,218.933C267.262,224.075 268.003,229.476 268.123,234.66C268.322,243.313 268.352,251.952 268.661,260.604" style="fill:rgb(39,134,152);"/>
        <path d="M279.473,203.833C279.442,203.791 279.409,203.75 279.375,203.71C278.921,203.179 278.232,202.81 277.204,202.597C276.646,202.481 276.038,202.6 275.413,202.974C274.719,203.389 273.969,204.155 273.229,205.17C270.603,208.77 267.931,215.616 267.352,218.777C266.4,223.977 267.136,229.438 267.257,234.68C267.457,243.337 267.486,251.979 267.796,260.635C267.813,261.112 268.215,261.486 268.692,261.469C269.17,261.452 269.543,261.05 269.526,260.573C269.217,251.925 269.187,243.289 268.988,234.64C268.87,229.514 268.124,224.173 269.055,219.089C269.603,216.092 272.138,209.603 274.628,206.19C275.117,205.519 275.599,204.972 276.067,204.619C276.353,204.403 276.603,204.24 276.853,204.292C277.409,204.407 277.812,204.546 278.058,204.834C278.294,205.111 278.354,205.505 278.356,206.036C278.358,206.484 278.309,207.006 278.22,207.614C277.481,210.346 277.107,212.817 277.01,213.577C277.003,213.631 276.998,213.684 276.997,213.733L276.995,213.739L276.996,213.734C276.977,214.148 277.106,214.371 277.109,214.377C277.304,214.686 277.568,214.769 277.799,214.781C277.861,214.784 278.541,214.816 278.691,214.089C279.261,211.327 279.721,209.268 279.943,207.73C280.616,205.287 281.602,202.706 282.988,201.144C283.175,200.934 283.432,201.029 283.667,201.154C284.12,201.396 284.535,201.853 284.757,202.3C284.859,202.508 284.953,202.713 285.038,202.916C285.175,203.48 285.392,204.348 285.41,204.498C285.559,205.723 284.984,211.385 284.891,212.397C284.878,212.541 284.875,212.626 284.875,212.64C284.88,213.344 285.488,213.466 285.566,213.482C285.777,213.526 286.008,213.506 286.241,213.341C286.277,213.315 286.516,213.188 286.591,212.795C287.423,208.456 287.922,205.791 286.858,202.821C286.971,202.817 287.09,202.819 287.21,202.823C287.915,202.843 288.697,203.006 289.05,203.237C289.86,203.768 290.139,204.717 290.221,205.705C290.318,206.874 290.116,208.118 289.904,209.046C288.825,213.779 286.702,221.661 286.968,227.448C287.171,231.875 289.702,239.718 291.553,248.641C293.364,257.372 294.521,267.163 292.008,275.73C291.019,279.102 288.941,282.144 286.371,283.982C283.92,285.735 281.012,286.378 278.222,285.02C271.648,281.822 266.324,275.02 265.973,268.573C265.947,268.096 265.539,267.73 265.062,267.756C264.585,267.782 264.219,268.19 264.245,268.667C264.625,275.665 270.329,283.105 277.464,286.577C280.191,287.904 283.013,287.705 285.566,286.471C289.236,284.698 292.345,280.735 293.67,276.217C296.26,267.385 295.115,257.291 293.248,248.289C291.421,239.479 288.898,231.74 288.697,227.369C288.438,221.726 290.54,214.045 291.592,209.431C291.889,208.13 292.145,206.296 291.83,204.72C291.589,203.518 291.025,202.462 289.999,201.789C289.471,201.443 288.316,201.122 287.259,201.092C286.852,201.081 286.462,201.116 286.118,201.194C285.622,200.404 284.793,199.672 283.972,199.409C283.151,199.146 282.334,199.274 281.693,199.995C280.817,200.982 280.082,202.345 279.473,203.833Z"/>
        <path d="M287.832,225.325C288.102,218.631 291.201,212.278 291.084,205.634C291.047,203.59 289.716,202.132 287.679,201.987C287.04,201.942 286.097,201.693 285.773,202.247C285.402,202.88 286.272,203.659 286.269,204.393C286.261,207.145 285.363,209.906 285.741,212.632C286.013,214.589 286.444,208.738 286.599,206.769C286.738,205.007 285.905,199.873 283.16,200.157C280.698,200.412 279.19,207.171 278.805,208.742C278.388,210.445 277.577,215.647 277.843,213.914C278.055,212.538 281.56,204.26 277.028,203.444C274.67,203.02 272.055,208.76 271.773,209.302C267.909,216.741 267.597,223.685 268.015,231.926C270.012,234.932 285.849,232.98 287.832,225.325Z" style="fill:rgb(240,225,196);"/>
        <path d="M279.335,203.821C278.856,203.203 278.155,202.768 277.181,202.592C276.234,202.422 275.214,202.9 274.298,203.804C272.629,205.453 271.212,208.506 271.005,208.903C267.064,216.488 266.724,223.567 267.151,231.97C267.159,232.125 267.208,232.276 267.294,232.405C267.706,233.024 268.54,233.538 269.717,233.826C271.17,234.182 273.195,234.239 275.39,233.965C278.634,233.559 282.249,232.432 284.892,230.569C286.758,229.254 288.145,227.572 288.67,225.542C288.686,225.483 288.695,225.421 288.697,225.36C288.83,222.07 289.664,218.865 290.444,215.666C291.256,212.337 292.009,209.014 291.949,205.618C291.904,203.096 290.254,201.302 287.741,201.124C287.311,201.093 286.758,200.994 286.307,201.043C286.252,201.049 286.198,201.056 286.146,201.066C285.424,199.889 284.388,199.16 283.071,199.296C282.113,199.395 281.196,200.17 280.466,201.379C280.039,202.086 279.661,202.943 279.335,203.821ZM284.844,202.286L284.827,202.251C284.459,201.538 283.99,200.941 283.25,201.018C282.952,201.049 282.703,201.276 282.453,201.564C282.084,201.989 281.756,202.565 281.459,203.202C280.931,204.334 280.51,205.654 280.199,206.773C280.201,206.882 280.201,206.991 280.199,207.102C280.151,209.671 278.984,212.797 278.735,213.864L278.654,214.35C278.573,214.829 278.266,214.986 278.261,214.989C277.987,215.167 277.726,215.161 277.494,215.076C277.329,215.016 277.095,214.892 276.974,214.552C276.968,214.533 276.901,214.403 276.931,214.156C276.934,214.135 276.951,214.018 276.987,213.782C276.995,213.733 277.007,213.674 277.023,213.607C277.214,212.461 277.68,209.696 277.964,208.536C278.061,208.141 278.228,207.429 278.462,206.575C278.408,205.451 278.051,204.508 276.875,204.296C276.61,204.249 276.351,204.379 276.087,204.557C275.68,204.83 275.288,205.244 274.917,205.707C273.673,207.264 272.705,209.387 272.541,209.702C268.797,216.908 268.477,223.645 268.866,231.6C269.131,231.851 269.58,232.01 270.129,232.144C271.421,232.461 273.223,232.491 275.175,232.247C278.15,231.875 281.471,230.862 283.895,229.154C285.38,228.107 286.527,226.8 286.971,225.195L286.971,225.196C287.12,221.825 287.962,218.536 288.762,215.255C289.538,212.072 290.276,208.897 290.218,205.649C290.19,204.084 289.177,202.961 287.618,202.851C287.401,202.835 287.149,202.796 286.898,202.774C287.378,204.285 287.532,205.951 287.462,206.837C287.374,207.948 287.199,210.286 287.014,211.782C286.92,212.545 286.799,213.12 286.708,213.321C286.514,213.746 286.192,213.851 286.004,213.881C285.769,213.919 285.525,213.878 285.293,213.686C285.2,213.61 284.967,213.349 284.884,212.751C284.5,209.985 285.395,207.183 285.404,204.39C285.404,204.247 285.318,204.108 285.249,203.963C285.156,203.767 285.058,203.572 284.983,203.382C284.834,203.004 284.775,202.636 284.844,202.286Z"/>
        <path d="M170.387,243.743C166.583,252.522 171.889,276.413 186.589,289.78C191.688,294.417 202.664,295.847 209.536,289.78C227.361,274.042 250.307,232.622 251.709,231.287C254.403,228.719 258.462,223.161 262.314,221.069C265.74,219.208 276.059,209.025 275.123,205.899C273.642,200.951 265.268,211.432 265.268,211.432C265.268,211.432 275.789,199.393 270.288,197.408C267.016,196.228 261.119,208.735 261.119,208.735C262.042,207.475 267.082,198.415 266.354,195.545C265.762,193.212 262.61,194.856 261.89,196.004C260.367,198.43 253.572,208.572 250.768,209.255C250.724,209.266 251.358,207.227 251.399,206.924C251.637,205.158 252.346,198.082 248.378,200.136C243.338,202.744 238.705,215.57 234.984,221.069C233.824,222.784 208.677,256.101 196.542,263.143C198.8,261.873 201.076,259.912 201.076,259.912C203.304,258.539 200.132,242.802 191.803,236.856" style="fill:rgb(39,134,152);"/>
        <path d="M252.206,207.27C252.233,207.162 252.251,207.081 252.257,207.04C252.382,206.11 252.624,203.781 252.32,201.955C252.09,200.581 251.503,199.497 250.589,199.092C249.946,198.807 249.089,198.793 247.98,199.367C245.857,200.466 243.762,203.253 241.809,206.613C239.039,211.38 236.491,217.297 234.267,220.584C233.297,222.019 215.439,245.737 202.629,257.361C202.627,256.756 202.582,256.078 202.488,255.341C201.773,249.689 198.328,240.451 192.305,236.151C191.917,235.874 191.376,235.964 191.098,236.353C190.82,236.742 190.911,237.283 191.3,237.56C196.938,241.586 200.101,250.267 200.771,255.559C200.934,256.847 200.952,257.925 200.798,258.662C200.767,258.811 200.729,258.943 200.68,259.054L200.669,259.076C199.018,260.464 197.479,261.599 196.107,262.395C195.696,262.633 195.554,263.16 195.79,263.573C196.026,263.986 196.552,264.131 196.966,263.898C199.126,262.683 201.303,260.856 201.605,260.598C201.757,260.495 201.902,260.351 202.033,260.165C215.083,249.007 234.677,223.067 235.701,221.554C237.942,218.243 240.516,212.285 243.306,207.482C245.061,204.462 246.867,201.892 248.776,200.905C249.256,200.656 249.609,200.552 249.888,200.675C250.152,200.792 250.289,201.084 250.409,201.421C250.995,203.06 250.674,205.823 250.541,206.808C250.505,207.073 249.997,208.701 249.928,209.017C249.813,209.55 250.122,209.835 250.168,209.879C250.389,210.092 250.656,210.174 250.974,210.096C251.913,209.867 253.298,208.744 254.761,207.132C257.852,203.723 261.545,198.182 262.623,196.464C262.901,196.021 263.665,195.507 264.4,195.304C264.714,195.217 265.027,195.161 265.26,195.312C265.387,195.395 265.462,195.548 265.515,195.758C265.706,196.511 265.384,197.741 264.901,199.138C264.51,200.267 263.991,201.488 263.441,202.661C261.675,205.533 260.336,208.366 260.336,208.366C260.146,208.77 260.293,209.251 260.677,209.479C261.06,209.707 261.554,209.607 261.817,209.247C262.271,208.627 263.698,206.17 264.977,203.455C265.768,202.177 266.644,200.904 267.517,199.904C268.061,199.28 268.599,198.765 269.115,198.454C269.435,198.26 269.724,198.125 269.995,198.223C271.179,198.65 271.168,199.776 270.797,201.074C269.901,204.208 266.746,208.29 265.322,210.024C264.864,210.553 264.591,210.891 264.591,210.891C264.298,211.259 264.351,211.794 264.712,212.096C265.074,212.398 265.61,212.356 265.919,212.001C265.919,212.001 266.233,211.64 266.725,211.032C268.011,209.53 270.64,206.66 272.707,205.697C273.172,205.48 273.579,205.319 273.898,205.496C274.087,205.601 274.198,205.827 274.294,206.147C274.365,206.385 274.297,206.684 274.182,207.034C273.932,207.798 273.402,208.713 272.707,209.706C269.853,213.783 264.238,219.039 261.901,220.308C257.99,222.433 253.848,228.053 251.111,230.66C250.821,230.938 249.614,232.864 247.756,235.923C240.622,247.667 223.167,276.59 208.963,289.132C202.437,294.893 192.014,293.543 187.172,289.14C178.489,281.245 173.145,269.615 171.06,259.712C169.694,253.223 169.709,247.485 171.181,244.087C171.371,243.649 171.17,243.139 170.731,242.949C170.293,242.759 169.783,242.96 169.593,243.399C168.022,247.024 167.908,253.145 169.366,260.069C171.517,270.286 177.049,282.275 186.007,290.421C191.362,295.291 202.891,296.802 210.108,290.429C224.425,277.789 242.045,248.659 249.236,236.822C250.959,233.985 252.036,232.171 252.306,231.914C254.959,229.385 258.934,223.89 262.727,221.83C265.187,220.493 271.122,214.989 274.126,210.699C274.936,209.541 275.536,208.463 275.828,207.572C276.074,206.818 276.106,206.163 275.952,205.651C275.692,204.783 275.25,204.266 274.739,203.983C274.007,203.577 273.04,203.631 271.975,204.127C271.711,204.25 271.439,204.402 271.161,204.576C271.723,203.539 272.19,202.503 272.462,201.55C273.126,199.228 272.701,197.358 270.582,196.594C269.989,196.38 269.336,196.429 268.652,196.742C268.145,196.974 267.607,197.366 267.062,197.878C267.292,196.845 267.351,195.956 267.193,195.332C267.009,194.608 266.643,194.147 266.203,193.861C265.767,193.577 265.239,193.464 264.672,193.505C263.304,193.604 261.692,194.691 261.156,195.544C260.103,197.222 256.498,202.639 253.478,205.969C253.037,206.455 252.61,206.896 252.206,207.27Z"/>
        <path d="M251.399,231.969C254.094,229.402 258.462,223.161 262.314,221.069C265.74,219.208 276.059,209.025 275.123,205.899C273.642,200.951 265.268,211.432 265.268,211.432C265.268,211.432 275.789,199.393 270.288,197.408C267.016,196.228 261.119,208.735 261.119,208.735C262.042,207.475 267.082,198.415 266.354,195.545C265.762,193.212 262.61,194.856 261.89,196.004C260.367,198.43 253.572,208.572 250.768,209.255C250.724,209.266 251.358,207.227 251.399,206.924C251.637,205.158 252.346,198.082 248.378,200.136C243.338,202.744 238.705,215.57 234.984,221.069C233.824,222.784 249.997,233.305 251.399,231.969Z" style="fill:rgb(240,225,196);"/>
        <path d="M252.206,207.27C252.233,207.162 252.251,207.081 252.257,207.04C252.382,206.11 252.624,203.781 252.32,201.955C252.09,200.581 251.503,199.497 250.589,199.092C249.946,198.807 249.089,198.793 247.98,199.367C245.857,200.466 243.762,203.253 241.809,206.613C239.039,211.38 236.491,217.297 234.267,220.584C234.023,220.945 233.95,221.484 234.308,222.144C234.697,222.86 235.757,223.93 237.209,225.105C240.844,228.046 246.955,231.81 249.765,232.714C250.411,232.922 250.93,232.983 251.271,232.933C251.588,232.887 251.824,232.76 251.996,232.596C254.652,230.066 258.931,223.891 262.727,221.83C265.187,220.493 271.122,214.989 274.126,210.699C274.936,209.541 275.536,208.463 275.828,207.572C276.074,206.818 276.106,206.163 275.952,205.651C275.692,204.783 275.25,204.266 274.739,203.983C274.007,203.577 273.04,203.631 271.975,204.127C271.711,204.25 271.439,204.402 271.161,204.576C271.723,203.539 272.19,202.503 272.462,201.55C273.126,199.228 272.701,197.358 270.582,196.594C269.989,196.38 269.336,196.429 268.652,196.742C268.145,196.974 267.607,197.366 267.062,197.878C267.292,196.845 267.351,195.956 267.193,195.332C267.009,194.608 266.643,194.147 266.203,193.861C265.767,193.577 265.239,193.464 264.672,193.505C263.304,193.604 261.692,194.691 261.156,195.544C260.103,197.222 256.498,202.639 253.478,205.969C253.037,206.455 252.61,206.896 252.206,207.27ZM263.441,202.661C263.991,201.488 264.51,200.267 264.901,199.138C265.384,197.741 265.706,196.511 265.515,195.758C265.462,195.548 265.387,195.395 265.26,195.312C265.027,195.161 264.714,195.217 264.4,195.304C263.665,195.507 262.901,196.021 262.623,196.464C261.545,198.182 257.852,203.723 254.761,207.132C253.298,208.744 251.913,209.867 250.974,210.096C250.656,210.174 250.389,210.092 250.168,209.879C250.122,209.835 249.813,209.55 249.928,209.017C249.997,208.701 250.505,207.073 250.541,206.808C250.674,205.823 250.995,203.06 250.409,201.421C250.289,201.084 250.152,200.792 249.888,200.675C249.609,200.552 249.256,200.656 248.776,200.905C246.867,201.892 245.061,204.462 243.306,207.482C240.577,212.179 238.056,217.98 235.85,221.33C235.925,221.452 236.054,221.653 236.183,221.804C236.654,222.357 237.395,223.029 238.298,223.759C241.355,226.233 246.228,229.326 249.209,230.641C249.774,230.891 250.265,231.075 250.653,231.167C250.745,231.189 250.86,231.204 250.937,231.212C253.682,228.532 258.057,222.396 261.901,220.308C264.238,219.039 269.853,213.783 272.707,209.706C273.402,208.713 273.932,207.798 274.182,207.034C274.297,206.684 274.365,206.385 274.294,206.147C274.198,205.827 274.087,205.601 273.898,205.496C273.579,205.319 273.172,205.48 272.707,205.697C270.64,206.66 268.011,209.53 266.725,211.032C266.233,211.64 265.919,212.001 265.919,212.001C265.61,212.356 265.074,212.398 264.712,212.096C264.351,211.794 264.298,211.259 264.591,210.891C264.591,210.891 264.864,210.553 265.322,210.024C266.746,208.29 269.901,204.208 270.797,201.074C271.168,199.776 271.179,198.65 269.995,198.223C269.724,198.125 269.435,198.26 269.115,198.454C268.599,198.765 268.061,199.28 267.517,199.904C266.644,200.904 265.768,202.177 264.977,203.455C263.698,206.17 262.271,208.627 261.817,209.247C261.554,209.607 261.06,209.707 260.677,209.479C260.293,209.251 260.146,208.77 260.336,208.366C260.336,208.366 261.675,205.533 263.441,202.661Z"/>
    </g>
    <g id="pink" transform="matrix(-1.13326,0,0,1,232.382,0.925377)">
        <g transform="matrix(0.660376,0,0,0.921532,50.8172,42.4465)">
            <path d="M150.012,134.546C129.953,150.758 131.299,193.638 132.979,205.274C137.133,234.046 155.171,239.218 173.576,223.608C181.331,217.031 189.216,204.431 190.271,165.762L150.012,134.546Z" style="fill:rgb(240,225,196);"/>
            <path d="M149.107,133.808C149.6,133.409 150.394,133.403 150.898,133.793L191.157,165.009C191.417,165.211 191.561,165.493 191.553,165.786C190.485,204.939 182.355,217.669 174.503,224.329C164.795,232.562 155.098,235.118 147.366,232.018C139.784,228.979 133.853,220.275 131.705,205.395C130.689,198.363 129.793,180.001 133.605,162.909C136.178,151.37 140.923,140.422 149.107,133.808ZM150.049,136.015C142.724,142.43 138.509,152.609 136.129,163.28C132.373,180.125 133.252,198.222 134.253,205.153C136.259,219.045 141.423,227.312 148.501,230.15C155.429,232.927 163.952,230.265 172.65,222.888C180.277,216.419 187.886,204.023 188.976,166.199C188.976,166.198 150.049,136.015 150.049,136.015L150.049,136.015Z"/>
        </g>
        <g transform="matrix(0.952698,0,0,1,7.46319,-2)">
            <path d="M121.053,273.913C120.21,280.372 120.583,286.482 120.436,292.963C120.336,297.404 120.153,299.315 120.28,303.755M192.154,275.003C192.422,281.213 193.661,287.506 194.525,293.641C195.307,299.192 196.052,298.245 197.086,303.755M174.993,225.15C185.728,226.244 196.617,232.915 201.9,242.247C211.639,259.447 214.239,277.946 214.668,297.485C214.802,303.556 213.91,297.73 214.668,303.755C214.668,303.755 212.556,316.514 101.813,302.322C101.988,294.822 103.263,268.994 103.934,264.056C106.705,243.671 126.229,231.014 137.67,228.419L137.895,228.673C140.748,232.806 145.829,234.489 150.596,234.889C158.603,235.561 168.993,232.972 173.938,226.099L174.993,225.15Z" style="fill:rgb(224,129,138);"/>
            <path d="M215.265,301.089C215.296,301.442 215.376,302.248 215.549,303.626C215.562,303.725 215.56,303.825 215.544,303.924C215.544,303.924 215.519,304.76 214.041,305.778C212.971,306.514 210.927,307.474 207.004,308.281C195.735,310.599 168.325,311.812 101.708,303.276C101.252,303.217 100.912,302.794 100.924,302.298C101.1,294.776 102.382,268.869 103.055,263.917C105.885,243.093 125.799,230.131 137.488,227.48L137.67,229.379C137.67,229.379 138.314,227.756 138.314,227.756C138.314,227.756 138.336,227.782 138.538,228.01C138.563,228.038 138.586,228.068 138.607,228.099C141.311,232.015 146.149,233.553 150.665,233.932C158.4,234.581 168.459,232.149 173.236,225.51C173.275,225.455 173.32,225.405 173.369,225.361L174.424,224.412C174.606,224.249 174.841,224.17 175.076,224.194C186.085,225.316 197.241,232.177 202.659,241.746C212.482,259.096 215.124,277.752 215.557,297.462C215.601,299.441 215.526,300.256 215.448,300.604C215.397,300.829 215.331,300.981 215.265,301.089ZM137.346,229.479C140.377,233.663 145.6,235.432 150.527,235.846C158.774,236.538 169.444,233.816 174.58,226.771L175.275,226.145L175.276,226.145C185.618,227.323 196.053,233.76 201.141,242.747C210.795,259.797 213.354,278.139 213.779,297.508C213.809,298.837 213.753,299.73 213.729,300.035C213.706,300.06 213.686,300.085 213.669,300.111C213.597,300.218 213.511,300.371 213.48,300.654C213.456,300.884 213.496,301.54 213.748,303.565C213.623,303.715 213.329,304.022 212.792,304.348C211.743,304.984 209.898,305.731 206.671,306.395C196.614,308.464 173.637,309.611 121.168,303.694C121.043,299.298 121.225,297.395 121.325,292.987C121.471,286.543 121.095,280.468 121.933,274.047C122.002,273.523 121.663,273.037 121.177,272.963C120.691,272.889 120.241,273.255 120.172,273.779C119.324,280.275 119.695,286.421 119.547,292.94C119.448,297.304 119.272,299.236 119.383,303.491C114.124,302.89 108.578,302.219 102.725,301.472C102.967,293.047 104.169,268.941 104.814,264.195C107.484,244.547 126.091,232.268 137.346,229.479ZM193.042,274.958C193.308,281.136 194.545,287.395 195.404,293.496C196.182,299.023 196.928,298.079 197.958,303.564C198.055,304.083 197.744,304.591 197.263,304.696C196.782,304.801 196.312,304.465 196.215,303.945C195.176,298.411 194.431,299.361 193.646,293.785C192.778,287.618 191.535,281.291 191.266,275.047C191.243,274.518 191.623,274.069 192.113,274.044C192.603,274.019 193.02,274.429 193.042,274.958ZM213.924,299.862C214,299.804 214.061,299.766 214.061,299.766C214.061,299.766 213.988,299.809 213.924,299.862Z"/>
        </g>
        <g transform="matrix(1.12265,0,0,1.09988,-23.8588,-25.611)">
            <path d="M150.012,134.546C129.953,150.758 131.299,193.638 132.979,205.274C137.133,234.046 155.171,239.218 173.576,223.608C181.331,217.031 189.216,204.431 190.271,165.762L150.012,134.546Z" style="fill:rgb(240,225,196);"/>
            <path d="M149.58,133.831C149.835,133.624 150.173,133.621 150.432,133.821L190.691,165.037C190.907,165.205 191.033,165.489 191.025,165.79C189.957,204.937 181.874,217.654 174.023,224.312C164.577,232.323 155.209,234.925 147.686,231.909C140.148,228.887 134.371,220.214 132.234,205.418C131.218,198.376 130.32,179.99 134.136,162.877C136.704,151.36 141.411,140.432 149.58,133.831ZM150.025,135.607C142.405,142.008 138.03,152.403 135.598,163.313C131.846,180.136 132.724,198.209 133.723,205.13C135.741,219.106 141.06,227.405 148.181,230.259C155.317,233.12 164.17,230.503 173.13,222.904C180.757,216.436 188.41,204.031 189.503,166.218C189.503,166.218 150.025,135.607 150.025,135.607L150.025,135.607Z"/>
        </g>
        <g transform="matrix(-0.882408,0,0,1,194.466,0.0746234)">
            <path d="M11.57,199.456C17.979,194.892 20.086,186.592 17.908,179.287C17.122,176.652 16.104,174.01 14.763,171.603C14.684,171.462 13.355,169.508 13.4,169.442C14.989,167.114 17.223,165.863 18.499,163.032C20.241,159.166 20.023,154.809 21.476,151.053C21.527,150.921 23.993,151.414 24.244,151.447C26.123,151.692 27.983,152.048 29.867,152.26C30.55,152.337 31.234,152.402 31.918,152.455C38.172,152.938 42.973,150.785 48.914,149.24C59.89,146.385 72.691,145.057 80.832,136.124C83.836,132.826 86.019,128.309 86.244,126.024C87.024,118.107 81.635,120.324 79.559,122.406C84.887,116.262 82.775,109.042 72.556,113.507C74.384,102.014 55.998,107.286 49.997,113.507C38.328,125.602 24.293,122.266 11.57,127.941C-2.054,134.018 -3.794,149.512 -3.785,155.634C-3.778,160.266 -3.6,164.852 -3.377,169.479C-3.143,174.338 -2.625,179.076 -2.169,183.901C-1.96,186.116 -2.108,188.704 -0.938,190.689C0.521,193.163 3.005,194.554 5.283,196.159C6.465,196.992 8.111,198.54 9.549,199.013" style="fill:rgb(207,178,59);"/>
            <path d="M14.549,169.495C15.234,168.606 16.013,167.871 16.761,167.09C17.749,166.057 18.687,164.952 19.374,163.427C20.279,161.418 20.684,159.284 21.042,157.161C21.335,155.428 21.595,153.703 22.129,152.078C22.825,152.192 23.973,152.379 24.12,152.399C26.004,152.645 27.87,153.001 29.76,153.214C30.453,153.292 31.148,153.359 31.845,153.412C38.212,153.903 43.106,151.742 49.155,150.169C54.661,148.737 60.624,147.686 66.231,145.875C71.98,144.018 77.355,141.364 81.541,136.77C84.704,133.299 86.962,128.524 87.199,126.118C87.57,122.354 86.543,120.581 85.289,119.89C84.477,119.443 83.498,119.389 82.504,119.63C82.905,118.744 83.162,117.878 83.278,117.066C83.472,115.704 83.274,114.479 82.723,113.506C82.016,112.254 80.728,111.374 78.8,111.194C77.439,111.067 75.72,111.301 73.643,112.042C73.653,110.207 73.1,108.838 72.196,107.849C71.055,106.6 69.3,105.934 67.197,105.793C61.48,105.41 53.065,108.944 49.306,112.84C43.627,118.727 37.363,120.842 30.98,122.192C24.357,123.593 17.604,124.198 11.179,127.064C-2.894,133.341 -4.754,149.312 -4.745,155.635C-4.738,160.283 -4.559,164.883 -4.336,169.525C-4.102,174.399 -3.582,179.151 -3.125,183.992C-2.903,186.339 -3.005,189.072 -1.765,191.176C-0.235,193.771 2.341,195.26 4.73,196.944C5.977,197.822 7.733,199.426 9.249,199.925C9.753,200.09 10.296,199.816 10.461,199.312C10.627,198.809 10.352,198.266 9.849,198.101C8.49,197.654 6.953,196.161 5.836,195.374C3.668,193.847 1.277,192.556 -0.111,190.201C-1.211,188.335 -1.017,185.893 -1.213,183.811C-1.668,179 -2.185,174.277 -2.418,169.433C-2.64,164.821 -2.818,160.25 -2.825,155.632C-2.833,149.712 -1.214,134.694 11.961,128.818C18.259,126.008 24.885,125.444 31.377,124.071C38.11,122.647 44.698,120.382 50.688,114.173C54.131,110.605 61.833,107.358 67.069,107.708C68.617,107.812 69.939,108.225 70.779,109.144C71.609,110.052 71.914,111.43 71.608,113.356C71.553,113.703 71.691,114.052 71.969,114.266C72.246,114.481 72.619,114.527 72.94,114.387C75.301,113.355 77.187,112.972 78.621,113.106C79.797,113.216 80.62,113.687 81.052,114.451C81.413,115.09 81.505,115.901 81.377,116.795C81.157,118.338 80.291,120.097 78.833,121.777C78.495,122.168 78.526,122.757 78.905,123.109C79.284,123.461 79.873,123.45 80.238,123.084C80.881,122.44 81.89,121.775 82.89,121.513C83.414,121.375 83.935,121.337 84.363,121.572C84.707,121.762 84.959,122.131 85.13,122.689C85.364,123.455 85.428,124.511 85.289,125.93C85.075,128.095 82.969,132.353 80.122,135.477C76.168,139.817 71.072,142.294 65.641,144.048C60.069,145.848 54.143,146.888 48.672,148.311C42.839,149.827 38.132,151.972 31.992,151.498C31.319,151.446 30.646,151.381 29.975,151.306C28.096,151.094 26.242,150.74 24.369,150.495C24.129,150.463 21.987,150.054 21.522,150.072C20.878,150.096 20.648,150.532 20.58,150.707C19.831,152.644 19.505,154.735 19.149,156.842C18.818,158.803 18.46,160.781 17.624,162.638C17.036,163.943 16.219,164.879 15.374,165.762C14.421,166.757 13.433,167.691 12.607,168.901C12.546,168.99 12.291,169.392 12.567,169.944C12.753,170.316 13.852,171.941 13.924,172.07C15.231,174.417 16.222,176.993 16.988,179.562C19.051,186.48 17.084,194.351 11.013,198.674C10.581,198.982 10.481,199.582 10.788,200.013C11.095,200.445 11.695,200.546 12.127,200.238C18.875,195.433 21.121,186.703 18.828,179.013C18.022,176.311 16.976,173.604 15.602,171.136C15.553,171.048 14.92,170.067 14.549,169.495Z"/>
        </g>
        <g transform="matrix(1.00016,0,0,1.97876,-118.481,-136.354)">
            <path d="M249.688,126.158C250.707,127.94 251.588,128.358 253.053,129.371C253.352,129.577 253.302,129.883 252.942,130.054C252.582,130.225 252.047,130.196 251.749,129.99C250.142,128.879 249.196,128.415 248.078,126.461C247.933,126.206 248.175,125.932 248.619,125.849C249.063,125.765 249.542,125.904 249.688,126.158Z"/>
        </g>
        <g id="ear1" serif:id="ear" transform="matrix(-0.878736,-0.0911362,-0.089463,1.10783,372.413,5.79542)">
            <path d="M201.227,182.666C199.018,181.493 196.483,180.54 194.058,179.964C188.005,178.528 181.22,183.156 182.734,189.94C184.056,195.861 188.991,199.229 194.919,199.386C197.071,199.443 199.481,198.938 201.324,197.778" style="fill:rgb(240,225,196);"/>
            <path d="M201.715,181.923C199.431,180.71 196.811,179.725 194.303,179.13C187.628,177.546 180.123,182.629 181.793,190.109C183.213,196.471 188.522,200.08 194.891,200.248C197.238,200.311 199.864,199.75 201.875,198.485C202.309,198.211 202.415,197.673 202.111,197.283C201.807,196.893 201.208,196.798 200.774,197.071C199.098,198.126 196.904,198.575 194.947,198.523C189.459,198.378 184.899,195.252 183.675,189.77C182.317,183.683 188.382,179.51 193.813,180.799C196.156,181.355 198.604,182.276 200.739,183.409C201.195,183.651 201.784,183.515 202.053,183.105C202.323,182.695 202.171,182.165 201.715,181.923Z"/>
        </g>
        <g transform="matrix(0.991973,0.12645,-0.12645,0.991973,59.4867,-8.60857)">
            <path d="M114.355,178.53C113.888,184.323 103.226,194.677 114.355,194.276" style="fill:rgb(240,225,196);"/>
            <path d="M115.2,178.647C115.099,179.907 114.572,181.374 113.861,182.897C112.888,184.985 111.574,187.205 110.779,189.149C110.483,189.874 110.261,190.553 110.181,191.165C110.124,191.601 110.133,191.991 110.309,192.309C110.494,192.642 110.844,192.863 111.356,193.033C112.064,193.268 113.027,193.364 114.301,193.318C114.769,193.301 115.173,193.717 115.202,194.245C115.232,194.774 114.876,195.217 114.409,195.234C112.575,195.3 111.282,195.075 110.406,194.666C109.673,194.323 109.187,193.845 108.879,193.29C108.565,192.725 108.429,192.066 108.458,191.328C108.493,190.439 108.782,189.407 109.233,188.302C110.038,186.331 111.367,184.079 112.353,181.964C112.949,180.686 113.424,179.471 113.509,178.414C113.552,177.889 113.965,177.515 114.432,177.579C114.898,177.643 115.243,178.122 115.2,178.647Z"/>
        </g>
        <g id="pink_puzzled_face">
            <g transform="matrix(0.802265,0.676522,0.526769,-0.802265,-25.8991,223.259)">
                <path d="M127.056,166.564C121.551,164.597 118.044,167.232 121.076,170.202C123.267,172.347 131.397,173.795 131.987,173.158C134.222,170.747 128.86,167.209 127.056,166.564Z" style="fill:rgb(207,178,59);"/>
                <path d="M127.311,165.649C124.909,164.79 122.854,164.766 121.466,165.217C120.143,165.646 119.365,166.528 119.164,167.52C118.968,168.491 119.288,169.72 120.522,170.928C121.288,171.678 122.708,172.377 124.32,172.922C126.607,173.694 129.281,174.19 130.802,174.261C131.334,174.285 131.748,174.252 131.999,174.184C132.275,174.11 132.459,173.975 132.571,173.854C133.118,173.264 133.347,172.62 133.369,171.967C133.397,171.115 133.031,170.201 132.374,169.35C131.038,167.616 128.482,166.067 127.311,165.649ZM131.516,172.319C131.264,172.325 130.53,172.334 129.877,172.252C128.287,172.052 126.098,171.568 124.28,170.897C123.159,170.483 122.181,170.015 121.63,169.475C121.042,168.899 120.722,168.412 120.816,167.949C120.865,167.705 121.049,167.521 121.291,167.361C122.347,166.663 124.351,166.604 126.801,167.48C127.636,167.778 129.29,168.752 130.481,169.923C130.913,170.349 131.284,170.796 131.506,171.254C131.682,171.617 131.732,171.986 131.516,172.319Z"/>
            </g>
            <g transform="matrix(-0.882408,0,0,1,205.055,-0.925377)">
                <path d="M53.949,209.769C66.325,206.295 64.539,211.101 77.727,208.476" style="fill:none;stroke:black;stroke-width:2px;"/>
            </g>
            <g transform="matrix(-0.952779,0.344131,-0.267955,-0.952779,303.693,285.434)">
                <path d="M127.056,166.564C121.551,164.597 118.044,167.232 121.076,170.202C123.267,172.347 131.397,173.795 131.987,173.158C134.222,170.747 128.86,167.209 127.056,166.564Z" style="fill:rgb(207,178,59);"/>
                <path d="M127.311,165.649C128.482,166.067 131.038,167.616 132.374,169.35C133.031,170.201 133.397,171.115 133.369,171.967C133.347,172.62 133.118,173.264 132.571,173.854C132.459,173.975 132.275,174.11 131.999,174.184C131.748,174.252 131.334,174.285 130.802,174.261C129.281,174.19 126.607,173.694 124.32,172.922C122.708,172.377 121.288,171.678 120.522,170.928C119.288,169.72 118.968,168.491 119.164,167.52C119.365,166.528 120.143,165.646 121.466,165.217C122.854,164.766 124.909,164.79 127.311,165.649L127.311,165.649ZM131.516,172.319C131.872,171.786 131.544,171.19 131.098,170.613C129.965,169.143 127.795,167.835 126.801,167.48C124.351,166.604 122.347,166.663 121.291,167.361C121.049,167.521 120.865,167.705 120.816,167.949C120.722,168.412 121.042,168.899 121.63,169.475C122.181,170.015 123.159,170.483 124.28,170.897C126.098,171.568 128.287,172.052 129.877,172.252C130.53,172.334 131.266,172.325 131.516,172.319Z"/>
            </g>
            <g transform="matrix(0.996,-0.0893582,0.0893582,0.996,-1.92041,12.8332)">
                <path d="M120.491,173.075C113.511,172.915 112.466,177.349 118.649,180.423C120.648,181.417 125.774,183.777 127.731,181.238C130.795,177.263 125.889,173.198 120.491,173.075Z" style="fill:white;"/>
                <path d="M120.527,172.116C124.061,172.197 127.373,173.893 128.758,176.12C129.824,177.834 129.909,179.856 128.365,181.859C127.412,183.096 125.863,183.473 124.165,183.289C121.98,183.052 119.546,181.926 118.293,181.302C116.247,180.285 114.94,179.101 114.291,177.991C113.741,177.051 113.615,176.125 113.817,175.299C114.015,174.49 114.543,173.739 115.45,173.173C116.534,172.496 118.236,172.063 120.527,172.116L120.527,172.116ZM120.455,174.034C118.853,173.997 117.589,174.208 116.687,174.613C116.023,174.912 115.573,175.275 115.451,175.773C115.334,176.251 115.557,176.762 115.987,177.31C116.591,178.081 117.596,178.843 119.004,179.543C120.15,180.113 122.367,181.163 124.364,181.379C125.455,181.498 126.485,181.412 127.097,180.617C127.559,180.018 127.799,179.426 127.826,178.847C127.866,177.956 127.415,177.142 126.713,176.435C125.316,175.029 122.938,174.091 120.455,174.034Z"/>
            </g>
            <g transform="matrix(-0.912725,-0.460564,-0.377263,0.905252,342.409,79.2095)">
                <path d="M120.491,173.075C113.511,172.915 112.466,177.349 118.649,180.423C120.648,181.417 125.774,183.777 127.731,181.238C130.795,177.263 125.889,173.198 120.491,173.075Z" style="fill:white;"/>
                <path d="M120.527,172.116C118.236,172.063 116.534,172.496 115.45,173.173C114.543,173.739 114.015,174.49 113.817,175.299C113.615,176.125 113.741,177.051 114.291,177.991C114.94,179.101 116.247,180.285 118.293,181.302C119.546,181.926 121.98,183.052 124.165,183.289C125.863,183.473 127.412,183.096 128.365,181.859C129.909,179.856 129.824,177.834 128.758,176.12C127.373,173.893 124.061,172.197 120.527,172.116L120.527,172.116ZM120.455,174.034C122.938,174.091 125.316,175.029 126.713,176.435C127.415,177.142 127.866,177.956 127.826,178.847C127.799,179.426 127.559,180.018 127.097,180.617C126.485,181.412 125.455,181.498 124.364,181.379C122.367,181.163 120.15,180.113 119.004,179.543C117.596,178.843 116.591,178.081 115.987,177.31C115.557,176.762 115.334,176.251 115.451,175.773C115.573,175.275 116.023,174.912 116.687,174.613C117.589,174.208 118.853,173.997 120.455,174.034L120.455,174.034Z"/>
            </g>
            <g transform="matrix(1.37133,0,0,1.55407,-22.7465,-104.949)">
                <circle cx="112.954" cy="182.309" r="2.606"/>
            </g>
            <g transform="matrix(1.37133,0,0,1.55407,5.65001,-99.9806)">
                <circle cx="112.954" cy="182.309" r="2.606"/>
            </g>
        </g>
    </g>
</svg>
